/* XPM */
static char *d4a6a512b6394b00b46287d9c0d5595doxRmhy2NPhOFq8Vf[] = {
/* columns rows colors chars-per-pixel */
"64 64 4 1 ",
"  c gray10",
". c gray13",
"X c #615E5E",
"o c gray46",
/* pixels */
"................................................................",
"oooooooooooo......oooo....ooo......oooooooo......ooooooooo.....o",
"ooXoooooooooo....oooooo..ooooo...ooooooooooo....ooooooooooo...oo",
"ooooooooooXXoo..ooooooo..ooooo..ooooooooooooo..ooooooooooooo..oX",
"oooXoooooooooo..ooXoooo..ooooo..Xoooooooooooo..oooooooooooooo.oo",
"oXoooooooooXoX..oXooooX..ooooo..oXoXooooooooo..oooooooooooooo.XX",
"XoXoXoXoXoXoX  ooooooooo.ooooo..XooXooooooooX..XoXoooooooooXo.XX",
" XXXXXXXXXXX  .ooooooooo.ooooo.. XXooXooXoXoX..XXXoXXoXoooXoX. X",
"             .oXoooooooo.ooooX..  XXXoXXoXoXX.. XXXXXooXXXXoX.  ",
"  ooooo     ..XoooXooooo.oooo ...   XXXXXXX   .      XXXXXXX .  ",
"..oooooooooo..XooXoXoXoX.oooo ....         ..ooooo..         .. ",
".XoXooooXooo..XXXXXXoXXX.XooX.....oooo     .XoooooXX      ......",
".XXooooooXXo..  XXXXoXX . XX......ooooo......XXXXXX.............",
"..XXXXXXXooX..    .XXX  .    .....XoooX.........................",
"o       XXX ..oo       .ooooooooo..XXX..ooooooooooo...ooooo...oo",
"oooooo      .oooo.....oooooooooooo.....ooooooooooooo..oooooo..oo",
"ooooooo.....oooooo....oooooooooooo....oooooooooooooo..oooooo.ooo",
"ooooooooo..ooooooo...ooooXoooXooooo..ooooooooooooooo..oooooo.ooo",
"oooooXoooo.ooooooo..ooooooooooooooX..Xoooooooooooooo..oooooo.ooo",
"oooooooooo.ooooooo..oooooooooooXoXX.. oXoooooooooooX..oXXooo.ooo",
"XoXooooXoX.XoXooooX.oXoooooXoXoXX   . XoXooooooXXoXX..XooooX.oXo",
"oXoXXoXoXX. XoXXoX .XooXooXoXXX. ....  XooXoXXXooXX  .oXXXXo.XoX",
"XXXXXXXXXX.  XXXXX .XXXXXXXX    oooo..  XXXXXXXXX  ...XXXXXX. XX",
"............      ..         ...XooXo..            oo.      .   ",
"............ ..   .. .   ........Xooo..............ooX.  .  ... ",
"ooo.....ooooooooooo......ooo......XXX...oooooooo...XX ..oooooooo",
"ooo.....ooXoooXXXoooo...oooooooo.......ooooooooooo.  ..ooooooooo",
"oXXo...oooooooooooooo...XooooooXoo.....oooooXoooooo...ooooooXooo",
"oooo...ooooooooooooooo..Xooooooooooo...Xooooooooooo...oooXoooXoo",
"oooX...XoXooXooXoooooo..ooooooooooooo..oooooooooooo...oooooooooo",
"ooXX...XXoXXXXXXXoXoXX..XXooXoooooXoo..XooooooooXoX...XoXooooooo",
"oXoX... XXX     XXoXoX..XoXXoXXoXXoXo..XXXooXooXXX ... XoXoXoXoX",
"XXX ...          XXXX .. XXXXXXXXXXXX.    XXXXXXX  .oo. XXXXXXXX",
"    ....   oooo      ...             ...          oooo.        .",
"..........ooXooX..........         .....        ..ooooo..       ",
"oooooooo.. XXX  ..oooooooooooo.....oooooooooo.....ooooo......ooo",
"ooooooooo..    ..ooooooooooooXo..oooooooooooooo...ooooX...oooooo",
"Xooooooooooo...oooooXoooooooXXoo.ooooooXoXXXoooo..Xooo...ooooooo",
"XXooooooooooo..ooooooooXoooooooo.ooooooooooooooo.. ooX..oooooooo",
"ooooooooooooX..ooooooooooooooooX.Xooooooooooooooo. oooo.oooooooo",
"ooooooooXoXoX.. XoXXXoXXoXoXoXXX. XoXoXXooXXXXXoX..XXoo.XooXXoXX",
"oXXoXooXXXXX ..  XXXXXXXXXXXXXX .  XXXXXXXXXXXXX ..oXXX.XXXXXXXX",
"X  XXXX      ...                .             .  ..XXX .        ",
"            ..... oo  .. .oooo......            ...    ..       ",
" ....  ...........XX......XooX.....................    .........",
"o.....ooooooooooo.....oo...X....oooooooooooo....ooooooooo...oooo",
"ooo..ooooooooooooo...ooooo...oooooooooooooooo...oooooooooo.ooooo",
"ooo..oooooooooooooo..ooooo...oooooooooooXXXoo..ooooooooooo.ooooo",
"ooo..oooXooXoooooXo..oooooo..oooooooXXXooooooo.ooooooooooX.ooooo",
"ooX..ooXXoooooooXoo..XXoXoo..ooooooooooooooooo.XooXXoooXoX.oXXoo",
"oXX..XXooXoXXXoXoXX..XoXoXX..XoXoXoXoXXXoXoXXX. XXooXoXoXX.XooXX",
"XX .. XXXXXXXXXXXX .. XXXX .. XXXXXXXXXXXXXX.... XXXXXXX  . XXXX",
"   ..              ..   .  ..              ..oo.          .    .",
"   ....           ....    ....             .ooX...       ..     ",
"ooooooooooo.....oooooo....oooooooooooooooo..XX..ooooo......ooooo",
"oooooooooooo...ooooooo...oooooooooooooooooo....ooooooo.....ooooo",
"ooooooooooooo..ooooooo...ooooooooooooooooooo...oooooooo...oooooo",
"oooXoooooXooo..oooooooo.oooXoXooooooooXXooooo..oooXoooo..ooXoooo",
"oooooooXoXooo..oooooooo.XoooXXoooooXooooooooo.oooXooooo..ooooXoo",
"ooooooooooooo..XXXoooXX. oXoooooooooooooooooo.ooooooooo..XoooXoX",
"ooooooooXoXoX..XooXXXoo. XoXoooooooooXooooXoX.XXooooooo.. Xooooo",
"XoXoXXoXoXXX ..XXXXXoXX..XXXoXooXXoXXoXooXXX . XXoXXXoX..  XoXoX",
"XXXXXXXXX    ..     XX  .   XXXXXXXXXXXXX    .  XXXXXX  .. XXXXX",
"           ....        ....                .....       ...      "
};
