/* XPM */
static char *result[] = {
/* columns rows colors chars-per-pixel */
"64 64 172 2 ",
"   c #1B1B1A",
".  c #201F19",
"X  c #242219",
"o  c #2A261A",
"O  c #2E2A1D",
"+  c #322D1C",
"@  c #36311D",
"#  c #3B341C",
"$  c #3F381F",
"%  c #222220",
"&  c #282620",
"*  c #2C2A20",
"=  c #3E2723",
"-  c #322E20",
";  c #3F2823",
":  c #353120",
">  c #3C3520",
",  c #3F3820",
"<  c #403719",
"1  c #443A1A",
"2  c #493D1A",
"3  c #432B23",
"4  c #443B20",
"5  c #483F20",
"6  c #4E342E",
"7  c #51362E",
"8  c #55392E",
"9  c #5B3E2E",
"0  c #4E421C",
"q  c #53461B",
"w  c #56481D",
"e  c #5B4C1C",
"r  c #64521B",
"t  c #69551B",
"y  c #6D591B",
"u  c #745E1A",
"i  c #76601B",
"p  c #7C631B",
"a  c #4D4220",
"s  c #524621",
"d  c #554920",
"f  c #5C4D20",
"g  c #5D402E",
"h  c #5D4037",
"j  c #66462F",
"k  c #6C4B2F",
"l  c #635221",
"z  c #695720",
"x  c #6C5A20",
"c  c #725E20",
"v  c #74502F",
"b  c #634537",
"n  c #6B4B38",
"m  c #745238",
"M  c #7B5738",
"N  c #756020",
"B  c #7A6421",
"V  c #5F5D5C",
"C  c #6D4C41",
"Z  c #704E41",
"A  c #7B5741",
"S  c #615E5D",
"D  c #66605B",
"F  c #6A635A",
"G  c #70675A",
"H  c #746A59",
"J  c #7A6E59",
"K  c #7E7159",
"L  c #7A776F",
"P  c #7E796F",
"I  c #757473",
"U  c #797670",
"Y  c #7D7970",
"T  c #80661B",
"R  c #846A1B",
"E  c #8A6E1B",
"W  c #8E711B",
"Q  c #94751B",
"!  c #9B7A1C",
"~  c #835D38",
"^  c #806722",
"/  c #846B21",
"(  c #896F22",
")  c #8D7222",
"_  c #937521",
"`  c #977822",
"'  c #9B7B22",
"]  c #8B6338",
"[  c #A17F22",
"{  c #FF5622",
"}  c #FF5822",
"|  c #FF6323",
" . c #FF6923",
".. c #845E42",
"X. c #8B6342",
"o. c #976C42",
"O. c #837559",
"+. c #8C7B59",
"@. c #917E58",
"#. c #837D6F",
"$. c #887F6E",
"%. c #837D70",
"&. c #A3801C",
"*. c #AB861C",
"=. c #A48122",
"-. c #AC8622",
";. c #B48C22",
":. c #B88F22",
">. c #BC9222",
",. c #FF8708",
"<. c #FF9900",
"1. c #FFA000",
"2. c #C79923",
"3. c #E5AE23",
"4. c #FFC107",
"5. c #FFCC07",
"6. c #FFD308",
"7. c #948159",
"8. c #9B8558",
"9. c #9D8859",
"0. c #A58D58",
"q. c #A68E58",
"w. c #AC9258",
"e. c #B39659",
"r. c #B59958",
"t. c #BA9C59",
"y. c #BFA058",
"u. c #87806F",
"i. c #8C836F",
"p. c #91866F",
"a. c #958A6F",
"s. c #9B8E6E",
"d. c #9E916F",
"f. c #878070",
"g. c #8B8370",
"h. c #918670",
"j. c #9B8F70",
"k. c #A4946E",
"l. c #A8976E",
"z. c #AC9A6E",
"x. c #B29E6E",
"c. c #B5A16E",
"v. c #BBA56E",
"b. c #BFA86E",
"n. c #C4A359",
"m. c #CDAA58",
"M. c #D6B159",
"N. c #DAB459",
"B. c #E4BA59",
"V. c #E8BE59",
"C. c #C4AB6E",
"Z. c #C9AF6E",
"A. c #CCB26E",
"S. c #D2B56E",
"D. c #D6B96E",
"F. c #DCBC6E",
"G. c #C5AD70",
"H. c #E0BE6E",
"J. c #F2C559",
"K. c #F8C959",
"L. c #FDEA59",
"P. c #DFC06E",
"I. c #E4C26E",
"U. c #EAC66E",
"Y. c #EEC96E",
"T. c #F3CD6E",
"R. c #F7D06D",
"E. c #FAD46D",
"W. c #FBDC6E",
"Q. c #FCE36D",
"!. c #FDEC6D",
"~. c #FDF06E",
/* pixels */
"%   % %   . % % % & o & - - + > < 4 4 5 5 s s f f l l l l l l l l l l f f f d s 2 5 5 4 4 : : : - & & & % % % % % % % %   % % % ",
"I I I I I I I U U L L P & - - - @ @ h.p.p.s.5 5 5 5 d.j.k.a a s a s a d.j.s.s.a.j.a.h.> : : - - - #.P Y L U U U I I % . % % % I ",
"I I V I I I L L L L P #.%.+ : : # p.p.s.s.s.d.5 2 k.k.l.l.l.d d d l.l.l.k.k.k.s.a.a.a.h.< > : - #.#.P P Y U I U I I I   % % I I ",
"I I I I I I H L L Y F G %.g.: , p.p.s.s.d.d.k.q f l.z.z.z.x.f l x.z.z.z.l.l.k.k.k.d.j.a.h.4 > g.$.%.%.Y Y U U U U I I I % % I V ",
"I I I V I I L L P P #.$.$.i.# 4 p.s.O.d.k.l.l.e l z.x.x.x.x.z l 0.x.x.x.x.z.z.l.l.k.d.j.a.4 , g.$.$.#.#.P Y Y U I I I I I % I I ",
"I V I U I L L L P #.#.H g.J , 4 s.+.k.k.l.l.8.r l x.v.v.C.C.x x 1.w.b.q.x.v.x.z.l.l.k.d.s.5 4 h.g.g.g.%.#.Y Y U I U I I I   V V ",
"V G V U S #.D #.F #.H $.J @ # a.s.k.l.z.z.x.x.v.x C.C.C.C.Z.u 5. .G.C.w.v.v.v.x.x.z.l.l.+.0 5 O.h.J g.%.#.#.Y U L L I V I % V V ",
"  V S S S S F G G H J J @ # 5 d.k.l.z.x.x.x.v.C.c Z.C.Z.Z.A.^ 1.<.} t.Z.C.e.C.v.q.x.9.l.7.s a O.O.K g.H H %.F Y L U V I V %   V ",
"        . . X X o o + + # 1 d.@.l.l.x.x.v.v.C.C.i S.S.D.D.n.4.<.} } n.y.t.Z.e.e.b.q.x.9.7.d s 1 O.O.K J H #.#.F S S S L S %     ",
"    L L L P #.o o + + # 2 2 +.k.z.z.0.v.C.C.Z.S./ D.D.F.F.W ) <.4.} R T n.y.t.t.e.w.w.e w q q 1 < # # + + H G F F F F S   X     ",
"X . L L L P #.#.$.p.p.a.2 0 @.z.z.0.v.w.C.t.S.y.( F.I.I.} 4.' ' } ` W W E R p i u y r t l x.l.l.d.s.< $ + o O X X . .     %     ",
"% D L D L #.#.$.J p.p.s.2 0 8.8.0.w.w.e.A.y.n.m.` M.U.Y.{ 4.} =.=.=.Y.U.I.I.E T u u y c q.x.z.l.k.d.O.O.@ + O o X X o o & % % % ",
"X D D L #.#.#.$.i.J O.s.a w q w 0.w.e.t.S.n.m.W ' ! B.B.4.} <.<.-.-.R.T.Y.Y.I.) ( ^ B c x 0.9.8.@.+.O.1 $ # : - * * & & % % % % ",
"% % D F F G G J J a.a.+.s d q e r y N y.n.m.Q Q [ &.*.*. .1.4.<.<.} J.E.R.T.N.` ) ( ^ B c z l f q q a a , > : : : & & & & % % % ",
"I . . X X X o + O.O.O.2 w e x.v.r y i p E W Q =.E.E.E.Q.<.<.4.<.<.{ >.J.J.V.=.' I.F.D.S.C.C.c.x.l.k.d.5 4 > i.f.%.Y Y & % X I I ",
"I U L Y #.$.+ + @ # < 2 d x.x.v.C.B / ( Q ' T.E.E.W.Q.Q.4.4.<.4.4.{ } 2.>.;.-.T.U.I.D.S.Z.G.v.x.z.l.d.j.4 , g.f.%.%.Y U & % U I ",
"I L U P #.u.u.# 4 4 5 s l.x.x.C.C.Z./ _ ' [ R.E.Q.Q.Q.4.{ 4.{ 4.4.4.<.{ 2.>.W.R.Y.U.P.D.A.Z.b.c.c.l.d.d., , i.u.u.P Y Y % I I I ",
"U L P P #.u.i.i.a.2 a l.z.x.v.C.Z.S.( _ ' T.Q.1.Q.Q.~.{ 4.4.{ <.4.4.{ <.2.Q.{ E.T.U.P.D.S.G.C.c.x.z.k.d.a , h.g.f.%.Y Y % Y I I ",
"I U L #.#.H i.h.a.a.a k.z.x.C.C.Z.D.W _ Y.R.W.4.{ !.~.{ { 4.4.<.4.4.4.{ { { Q.E.R.Y.I.F.D.Z.C.v.x.z.k.d., , g.g.u.P Y Y X U I I ",
"L L L P #.u.i.h.a.s.s l.z.x.v.C.A.D.) ' T.E.W.} { 4.!.{ { <.4.4.<.4.4.{ { 4.Q.W.E.T.I.P.D.A.C.v.c.x.k.7.a a h.J G f.%.Y o U I U ",
"D L F P #.u.i.K p.+.2 @.x.0.v.Z.A.D.m.' T.E.W.4.} ,.~.<.4.4.4.<.{ 5.4.4.{ <.K.W.E.T.U.P.D.S.C.w.0.z.7.7.4 $ K g.f.%.%.F & I S I ",
"I D P G G u.J p.O.+.s q 8.x.w.Z.A.D.E ' T.E.W.Q.~.~.L.4.<.4.<.4.1.6.4.4.{ 4.4.} E.R.U.P.n.y.e.v.c.9.7.0 1 $ i.J G G F Y & D U V ",
"D D F F F H J K O.+.s 2 q 0.w.e.A.F.W ' R.E.4.Q.~.4.4.{ 4.<.<.<.4.{ <.<.4.{ { } E.T.M.m.n.y.e.w.0.w 0 q 0 a J J H G F F X . V V ",
"& o * * + : > # 4 5 s e q e r y i p ) ' ! *.,.4.4. .1.4.<.{ <.<.4.{ <.4.4.<.4.} } ' Q E p i y l e w 0 d.s., @ O O O X X & .   . ",
"% & o * * @ : > 4 5 a w q r y y i p Q ` ! -.} ,.{ { 3.{ 4.<.<.<.<.{ { { <.4.} :.-.=.` ) / B N z r f d d.s.K $ O O O X X & X % . ",
"U U Y * - - > , p.s.k.l.z.x.v.C.A.S.F.` ' -.;.2.4.4.4.4.<.<.<.} <.{ <.<.1. .<.4.E.Y.I.F.S.A.C.v.l f d +.O.# $ : u.#.Y Y U I I I ",
"U U U O + - : > a.s.+.k.z.x.q.C.Z.S.D.I.U.=.-.>.Q.} { 4.} 4.4.<.<.<.<.<.4.4.<.W.T.U.P.P.S.G.b.v.x.z.s 1 # 1 $ g.u.#.P U U U I I ",
"U D F Y - - : p.p.a.s.k.z.x.x.v.Z.A.D.H.I.=.-.;.K.Q.!.4.<.5.1.<.<.<.<.<.{ 4.;.T.Y.I.P.D.A.G.b.c.z.l.d.a a , g.f.f.Y Y Y D U I I ",
"U U P P o + - p.p.a.s.k.l.z.x.C.C.Z.S.D.I.U.=.-.J.Q.!.| | 5.5.1.1.4.4.<.{ ;.-.T.U.P.P.S.A.b.v.c.z.l.d.a a > g.u.u.F P L U V I I ",
"I U P F O + + J p.O.s.d.@.z.x.x.v.Z.A.D.F.I.' -.E.W.Q.6. .6.| | 1.<.4.} E.-.=.U.P.P.S.A.G.b.c.c.z.l.s.a , , g.f.#.P P U U I I I ",
"I I S S & - - H J p.O.+.@.8.8.0.v.C.Z.S.D.F.Q ' V.A ..X.~ v k m 9 6 7 = = = ' I.P.D.S.Z.b.b.c.z.7.d.O.a , > H u.F P L L L I I I ",
"I S P F O - - O J K O.1 1 2 q e q.b.C.A.S.F._ ` B.E...~ ] ] v b 9 3 7 = = ' ` P.D.S.A.G.w.c.x.7.7.7.$ , > # + G %.F L D I D I V ",
"S D D . O * O O + + # # < 0 0 q e 0.b.e.t.p ( ) Q V.W.o.o.] v j 6 7 3 = M.) R R i u r.q.q.x.7.7.7.0 # # h.f.: o F F S S S V V V ",
"      . & * O @ o + @ a.s.d.k.0 q e r t y B B ( E Q ! *.] M M j h 7 ; E R ) / p u y t r e q 0 0 # # a.p.g.f.: o X . . . .     % ",
"X % % & & & O O @ # i.a.O.s.d.7.e f l x x N B B / ) W ! M m m g 3 3 ; ) / B B B y t r e q q 0 0 0 1 p.i.f.f.%.* * . .           ",
"I U U U U Y P #.+ @ + K O.O.1 1 s e x.x.v.b.C.G.A.D.F.P.A n n 9 8 7 ; A.S.Z.Z.C.b.c.x.x.z.w 0 0 4 1 p.i.f.f.%.* o & & % X I I I ",
"I I I I I L L P #.+ @ + # # # 0 s k.z.z.x.c.v.b.C.G.A.A.b b 8 7 7 ; ; G.Z.C.v.v.c.c.z.z.k.d.s.0 , , g.f.u.#.F & X . I I I I I I ",
"V I I I L L P P P #.u.i.> , 1 s.j.k.k.z.9.x.c.c.v.b.C.Z.Z h h 7 6 ; ; b.b.v.c.c.x.z.z.i.d.d.a.a., > J f.#.Y * & o I I I I I I I ",
"V V I I I L L P P #.#.u.g.: $ a.a.d.d.k.l.l.z.x.c.c.c.v.C h 6 6 ; ; = c.c.c.x.z.l.l.k.d.d.s.a.h.$ : O #.#.F * o I I I I I I I I ",
"I I H I I I L L L P #.$.G # $ h.a.s.d.d.k.l.l.z.z.x.x.c.c.c.; ; = 0.c.c.x.x.z.l.l.k.d.s.s.a.h.h.f.: o #.Y Y U & U I I I I I I I ",
"I I I I I G I U F U F #.G # : @ K a.a.s.d.d.d.k.l.l.l.l.z.z.6 6 6 q 8.l.l.l.k.k.d.d.s.a.K K J u.G - - F F U I % V I I V V I V V ",
"I V V I V I U S D D F F o - @ O + K a.O.O.s.d.d.k.k.7.l.l.7.C 6 6 a 0 7.k.k.+.d.s.O.a.K h.J J H o - * Y D D S % D V V V V V V V ",
"V     V S S S   . . X X X - - @ O O @ @ # # # # < 1 1 1 1 1 h 6 6 1 1 1 1 < < # # # @ @ + o @ o o - & F D S   %                 ",
"                  . . X & * * - @ O u.i.+ @ 1 1 # 5 j.j.d.d.C h 6 5 5 5 # # # # + + + + O O o o * & & . . .   % X               ",
"  % %   .     X . X X % & & O - O : H H @ # # $ 4 , O.a.h.#.C h 6 1 5 4 , > # > # @ @ @ O O * * & & % .         % % % % % % % % ",
"I % % % % % I I I I U U U U Y Y Y * - : @ # g.u.: > : K 4 > h 6 7 g.g.g.g.g.g.g.u.u.u.u.* * * & Y Y I I I I I I I % % % I I I I ",
"I I I %   I I I I I I I U U Y U Y Y * O O u.u.f.$.g.: > : $.h h 7 g.g.g.g.g.#.u.u.u.P P Y * & & U U I I I I I I I I % I I I I I ",
"I I I % % I I I I I I I I U U U U Y Y * * Y f.Y %.$.- - : $.C 6 7 %.f.%.%.%.%.%.F F F P Y * & U I U I I I I I I I I % I I I I I ",
"I I I   % I I I V I I V I I I I I S I % = I Y Y %.%.%.= - %.9 h 6 %.%.%.F G G Y I I I I I I % I I I I I I I I I I V % I I I I I ",
"I I V % % I I V V I I I I I I I V I I % & S F Y F Y I & * %.h 6 6 %.%.%.Y %.I I I I I I I I % V I I V V I I I V I V % I V V I I ",
"I V V % % V V I I V I V V V I V I V V % % S I F Y D F * & D C 6 6 S I F I F S S I I I V V V % % V V I I V I V I V V % V I I V V ",
"V V   % %   V V V V V V V V V V V V   % % % S F S S % & & % C h 6 D D D D D S S V V I V % % % %   V V V V V V V     %   S S S S ",
"%     % %                             % %       & %   % &   C h 6                     % % I I %                     %   %     % ",
"    % % % % %                       % % % %         % % & % 9 7 6 %                   % I I V % . .               % % % %       ",
"I I I I I I I I I I I % % %     I I I I I I % % % % I I I I C 7 6 I %.I I I I I I I % % V V % % I I I I I % % % % % % I I I I I ",
"I I I I I I I I I I I I % % % I I I I I I I % % % I I I I I 9 9 6 I I I I I I I I I I % % % % I I I I I I I % % % % % I I I I I ",
"I I I I I I I I I I I I I % % I I I I I I I % %   I I I I I h h 6 I I I I I I I I I I I % % % I I I I I I I I % % % I I I I I I ",
"I I I I I I I I I V I I I % % I I I I I I I I % I I I V I V V 6 6 I I I I I V V I I I I I % % I I I I I I I I % % I I V I I I I ",
"I I I I I I I V I V I I I % % I I I I I I I I % V I I I V V 6 6 6 I I V I I I I I I I I I % I I I I I I I I I % % I I I I V I I ",
"I I I I I I I I I I I I I % % V S S I I I V V %   I V I I I I I I I I I I I I I I I I I I % I I I I I I I I I % % V I I I V I I ",
"I I I I I I I I V I V I V % % V I I V V V I I %   V I V I I I I I I I I I V I I I I V I V % V V I I I I I I I % %   V I I I I I ",
"V I I I V V I I I V V V % % % V V V V S I V V % % V V V I V I I S S I S V I V I I V V V % % % V V I V V V I V % %   % V I V I I ",
"V V V V V V V V V %       % %           S S     %       V V S V V V S S V V V V V     %   % % % V V V V V V     % %   V V V V V ",
"% % % %           %   % % % %             %   % % % %       %                         % % % % % % % % %       % % %           % "
};
