/* XPM */
static char *result[] = {
/* columns rows colors chars-per-pixel */
"64 64 172 2 ",
"   c #1B1B19",
".  c #201F19",
"X  c #25231D",
"o  c #29261C",
"O  c #2D2A1D",
"+  c #322D1C",
"@  c #36311E",
"#  c #3B351D",
"$  c #3F381F",
"%  c #212120",
"&  c #292720",
"*  c #2D2A20",
"=  c #3E2723",
"-  c #322E20",
";  c #3F2823",
":  c #353020",
">  c #383220",
",  c #403719",
"<  c #443B1D",
"1  c #493E1D",
"2  c #432B23",
"3  c #483B21",
"4  c #4E342E",
"5  c #51362E",
"6  c #55392E",
"7  c #5B3E2E",
"8  c #4D421D",
"9  c #53461B",
"0  c #56481D",
"q  c #5B4B1C",
"w  c #64521B",
"e  c #6A561A",
"r  c #6D591A",
"t  c #745E1A",
"y  c #76601A",
"u  c #7C631A",
"i  c #4C4220",
"p  c #514620",
"a  c #554920",
"s  c #5C4D20",
"d  c #5D402E",
"f  c #5E5020",
"g  c #5D4037",
"h  c #66462F",
"j  c #6C4B2F",
"k  c #645320",
"l  c #695620",
"z  c #6C5A20",
"x  c #735E20",
"c  c #74502F",
"v  c #664737",
"b  c #745238",
"n  c #7B5738",
"m  c #7A6320",
"M  c #7B6420",
"N  c #5F5C5B",
"B  c #6D4C41",
"V  c #7B5741",
"C  c #615D5C",
"Z  c #6C6457",
"A  c #666059",
"S  c #6B6358",
"D  c #716657",
"F  c #756957",
"G  c #7B6E57",
"H  c #706658",
"J  c #756A58",
"K  c #796D58",
"L  c #7E7057",
"P  c #7D7158",
"I  c #75736F",
"U  c #7A766E",
"Y  c #7D796E",
"T  c #747373",
"R  c #7A7670",
"E  c #7D7870",
"W  c #81671A",
"Q  c #866B1B",
"!  c #8B6E1A",
"~  c #8F701A",
"^  c #94751A",
"/  c #99771A",
"(  c #9C7A1B",
")  c #835D38",
"_  c #806721",
"`  c #856B20",
"'  c #896E21",
"]  c #8D7120",
"[  c #937520",
"{  c #987720",
"}  c #9B7A20",
"|  c #8B6338",
" . c #A27E21",
".. c #FF5622",
"X. c #FF5922",
"o. c #FF6323",
"O. c #FF6923",
"+. c #845E42",
"@. c #976C42",
"#. c #837457",
"$. c #897756",
"%. c #8C7A56",
"&. c #8E7B58",
"*. c #927E56",
"=. c #947F58",
"-. c #837C6D",
";. c #887F6C",
":. c #AA841B",
">. c #B3891B",
",. c #A58121",
"<. c #AC8521",
"1. c #AF8821",
"2. c #B38A21",
"3. c #B88E21",
"4. c #BC9121",
"5. c #C1911B",
"6. c #FF9900",
"7. c #FFA000",
"8. c #C59622",
"9. c #D39F21",
"0. c #FFC107",
"q. c #FFCB07",
"w. c #FFD308",
"e. c #968156",
"r. c #9C8556",
"t. c #968258",
"y. c #A48B56",
"u. c #AA8E56",
"i. c #AD9056",
"p. c #B39556",
"a. c #B89756",
"s. c #BC9B56",
"d. c #87806E",
"f. c #8B826D",
"g. c #92866C",
"h. c #95896C",
"j. c #9B8D6B",
"k. c #9F906C",
"l. c #A08F6B",
"z. c #A4926B",
"x. c #A9966B",
"c. c #AD996B",
"v. c #B39D6B",
"b. c #B7A06B",
"n. c #BBA36A",
"m. c #C29F55",
"M. c #C4A155",
"N. c #CDA755",
"B. c #CEA856",
"V. c #D4AD55",
"C. c #E5B955",
"Z. c #C1A76A",
"A. c #C4AA6A",
"S. c #CBAE6A",
"D. c #CEB06A",
"F. c #D4B46A",
"G. c #D9B76A",
"H. c #DDBB6A",
"J. c #E2BE69",
"K. c #F2C356",
"L. c #E6C16A",
"P. c #EBC469",
"I. c #F5CB67",
"U. c #F3CA69",
"Y. c #F8CF68",
"T. c #FADD67",
"R. c #F7D269",
"E. c #F9D468",
"W. c #FBDC68",
"Q. c #FBE567",
"!. c #FCE967",
"~. c #FCE868",
/* pixels */
"% % %     % % % % & o O O + > # 2 < 1 8 8 p 0 s q f f k k k k l k k l k k s q p 8 i 1 < $ > : @ * O & o X % o % X % % % % % % % ",
"T T T T I I I I I I U U * * - - > > f.f.g.h.3 3 3 i j.k.j.p p p p a p z.z.z.l.h.h.g.f.> > # @ : * Y Y E U I T I I T % %   % % T ",
"T I C I I I I I U U U -.-.+ @ > > g.h.h.j.j.j.8 8 z.z.z.x.z.0 0 q v.v.v.0.c.z.l.j.h.g.g.$ $ @ > d.Y Y Y U U I T I I I   % % T T ",
"T I I I I I I R U -.Z D -.;.> # g.=.j.h.j.l.z.p a x.c.c.c.v.f k v.v.v.n.v.v.c.x.z.k.j.h.g.> > f.;.d.Y Y Y Y I R I T T T % % T N ",
"T T I N I I U P U Y -.;.;.;.# 3 h.j.$.l.z.z.x.s s c.v.v.v.v.k l i.n.Z.n.Z.n...c.x.z.k.h.h.< $ f.d.;.-.Y Y Y I I I I I I T % T T ",
"S N I I I I U U Y -.-.F ;.G # 3 h.$.l.l.z.x.r.k w b.b.n.Z.n.z z n.p.A.p.A.n.n.v.c.x.z.k.j.3 < g.f.f.;.-.Y Y Y R I I I I T   N N ",
"N T N I C U Z U Z -.F ;.G # @ j.l.l.x.x.c.v.v.m.z n.Z.Z.A.A.t m a.6...a.A.Z.n.b.c.c.x.x.%.8 3 #.f.P ;.;.;.Y Y Y I I I N T % N N ",
"  N N C C C Z Z D F F L + @ 1 j.l.x.x.c.v.v.v.Z.x A.S.S.S.F.M _ u s.6.D.S.p.Z.n.y.v.r.x.t.i 8 $.#.L f.J D -.S Y I I N I N %   N ",
"  .   . . . X o o o + # # 1 y.%.z.c.c.v.n.Z.Z.A.u S.F.F.F.M.` ` u u M.M.m.S.p.i.n.y.v.r.r.9 i , #.L G G F -.Y Z A C A I N       ",
"    I I U Y Y o o + + + , 1 *.z.x.c.y.v.Z.A.S.D.W F.G.H...! [ [ [ Q Q Q M.m.s.s.p.i.u.q 9 9 p 1 , # # + + F D Z S S C C   o     ",
"  o I U U Y Y ;.&.;.g.h.1 8 *.x.c.y.b.i.Z.s.D.m.' H.H.J.0.0.} } } / ~ ! Q W u u t r e e k c.x.l.y.h.$ $ + o o o X . .     % X   ",
". A U A U -.-.;.G g.g.h.3 9 *.r.y.u.i.p.S.m.M.N.[ V.P.....0.,.,.,.,.P.P.L.J.Q u u t r z y.v.c.x.k.k.$.#.+ + O o X X o o X X X . ",
"X C C U U -.#.;.;.#.#.j.8 a 9 0 y.u.p.s.F.M.N.! } / 0...0.0...1.<.<.U.U.P.L.J.[ ` _ m x z y.r.t.e.%.#.< $ # : : * O & X % % % % ",
"X X Z C Z D F F G g.h.$.p a 0 q w e m s.M.N.~ ^ ,...0.0...0.4.4.4.3.0.0.U.U.V.{ ] ' _ x x z k k 0 9 8 8 $ > @ : O * & & X % % % ",
"I   . . X o o + G #.$.1 9 q v.v.w t y u Q ! ^ ,.0.0.....0...T.Q.X.X.0...0.C.,.} J.H.F.S.A.n.v.v.x.z.j.8 3 # f.d.-.Y Y & X X I T ",
"I U U -.-.%.+ + + # , 1 0 c.v.Z.A.M W ] [ } U.Y.0...0.0...Q.~.~.~.6.6.0.6.0.<.U.L.J.G.F.S.Z.n.v.c.z.k.h.3 > f.d.-.-.Y R & X I T ",
"I U P U Y -.;.@ , 3 3 9 x.c.v.A.A.D.Q ] {  .U.Y.0.0.0.0.~.~.~.!.~.~.0.6.0...R.U.P.L.H.F.S.A.n.b.c.x.k.k.< > g.d.d.Y Y R X I T I ",
"I U U -.-.;.f.g.g.1 i z.x.v.v.Z.S.D.' [ } U.Y.E...0.....~.~.!.!.!.~.6...6.0.R.R.U.L.H.G.D.S.n.n.v.x.k.k.< $ g.d.d.Y Y Y & I I T ",
"I I U Y -.F ;.g.h.j.1 z.c.v.n.A.S.F.~ { P.I.E.W.W.0.0.0.X.0.~.~.~.!.0.0.0.6.W.R.R.L.L.G.F.S.A.n.v.x.z.k.8 $ f.f.d.Y Y Y X I I T ",
"U U U -.-.;.;.g.h.j.p x.c.v.n.A.D.D.] { U.Y.E.W.Q.0...0...6.0.~.!.!...6.0.6...R.R.U.L.H.F.S.n.n.b.c.k.e.8 $ g.G J Y Y Y o I T I ",
"C I S Y -.;.;.G g.$.9 =.c.y.n.A.S.G.N.} U.Y.E.T.~.....6.7...0.0.X.0.0.....6.0.W.R.U.L.H.F.S.A.u.r.c.e.$.8 # L f.d.Y Y S X T N I ",
"U S U Z Z ;.G g.#.$.1 9 y.v.i.A.S.G.! } U.I.W.T.0.6.0.6.7.6.6.0.0.0...0.6...5.K.R.U.L.H.M.s.p.n.b.r.e.8 , $ f.G F Z S Y o A I N ",
"C C S S D F F #.#.%.9 1 9 y.u.a.D.G.! } U.Y.E...0.6.6.0.q.q.0.0.6.0.6.0.6.9.5.>.R.U.V.B.M.s.p.u.y.0 9 9 8 8 K G F D Z S o   N N ",
"o o o + + @ @ # 1 1 1 q 9 q w t y W ] / ( :.>.0.......0.....0.0...0.0.0.0.9.8.>.,.( [ ' u m z k q 0 8 k.j.$ + + O o X X o . .   ",
"o o O O - + > $ < 1 i 0 9 w e r t u ] { ( <.>.....0.0...0.0.0.6.6.6.0.6...0.8.2.<.,.[ ] ` M m z w f 0 k.j.#.# @ o @ o X X X X   ",
"I I U * - - > $ g.h.l.x.c.v.v.A.S.F.G.{ } <.2.8...0.0.6.0.0.0.....0.6...6...0.2.R.P.J.G.F.S.n.n.k a 0 %.#.# # > d.Y Y Y U I I I ",
"I U U O O + # > h.h.%.z.x.v.u.Z.A.F.G.J.P. .2.3.0.0.6.0.X.0...6.0.6...0.w.7.0.R.R.L.H.G.D.A.n.b.v.x.8 < $ $ # d.-.-.Y U I I I I ",
"I C S U - - > f.h.h.h.z.x.v.v.Z.A.S.F.H.L. .<.2.0.6.0.0.X.q.6.q.0.0.6.0.q.6.2.Y.P.L.H.F.S.A.n.n.x.x.k.8 8 $ f.d.-.Y Y U A I I I ",
"I U U -.o + + g.g.h.j.l.x.c.v.v.A.S.F.G.J.L.,.<.K.T.q.X.o.q.q.7.6.q.0...0.6.<.P.L.H.G.D.D.n.b.v.c.x.k.3 3 # d.d.-.S Y U I N I I ",
"I U U Z O + @ F f.#.h.l.*.x.v.v.n.A.S.G.H.J.} ,.E.W.Q.q.O.w.O.o.7.6.0...6.<.,.P.L.H.F.D.A.n.b.v.x.z.j.i 8 > f.d.-.Y Y U I I I T ",
"I I C C & - - K G g.#.%.*.=.y.y.n.Z.A.S.G.H.^ } C.V +.n ) c j b 7 2 5 = ; 4 } L.H.F.D.S.n.n.b.c.e.z.$.3 < > J -.Z Y Y I I I T I ",
"I C U Z O - + o F #.#., , 1 9 q y.Z.A.S.D.G.] } C.E.+.) | | c h g 2 5 = = } [ H.F.D.S.A.i.b.c.e.e.%.$ $ > # O H -.S I C I N I N ",
"C C C X O O O + + + # # , , 8 9 0 u.n.p.a.u ` ] ^ C.W.@.@.| c h 4 6 2 = B.[ Q W y t p.i.y.v.e.e.$., # 8 f.f.: o Z A A C C N N N ",
"        X O O + + + + g.l.k.z.9 0 q w w r M M ] ! ^ ( :.) | n h 7 6 2 ! Q ' _ _ t r e f q 9 8 8 , , g.t.f.d.- o X . . .   .   X ",
"o X X & O O o + + # t.f.#.j.l.*.q f k l z m M M ` ] ~ ( b b b d 2 2 2 ' ` _ _ t r e w q 9 9 8 8 8 < f.f.d.d.-.& O . .           ",
"I I I R I R Y -.+ + + L #.$., 1 a a v.v.b.n.Z.A.S.F.G.H.V b v 6 6 5 @ D.S.S.A.Z.n.b.v.c.x.0 8 8 < < g.f.d.-.-.* o o X % . T T T ",
"I I I I U U U Y -.+ @ + @ # # 8 9 z.x.c.b.b.b.n.n.D.D.D.v v 6 6 4 2 = A.A.Z.Z.b.v.v.c.z.z.k.h.8 $ > f.d.-.-.S & o X C T T T T T ",
"N I I I I U U Y -.-.;.f.# $ , j.j.z.x.x.t.v.v.b.n.n.Z.n.B g g 4 4 = = Z.Z.n.b.v.v.c.x.e.k.j.h.h.$ $ J d.-.Y * & o T T T T T T I ",
"N N T I I I U U U -.-.;.d.# # h.h.j.k.z.x.x.c.v.b.b.b.n.B g 4 4 = = 2 v.b.v.c.c.x.x.k.k.j.h.h.g.> > O -.Y Z & & T T I T T T T T ",
"T C I I I I U U Y Y Y -.F # $ g.h.h.j.j.k.z.x.x.c.c.c.b.v.b.; ; = l.v.v.c.c.x.x.k.k.k.j.j.h.g.f.f.: O -.Y Y U o I I I I I T T T ",
"T T T I I I I I A U Z Y D @ @ @ P g.h.j.j.j.z.z.z.z.c.c.c.c.4 4 4 9 =.c.x.z.z.l.k.j.h.h.L G G f.J : - Z A R I X C T I N N T N N ",
"T N N T N I I N A Z Z Z o + @ O + P g.#.$.h.k.k.z.z.e.z.z.e.B 4 4 1 1 *.z.z.%.k.j.#.h.L g.G F F o * O E A A A X N N N N N N N N ",
"N     N N C N     X   X X O + @ + + + + # # # , , , < < , 8 g 4 5 1 1 , , , , , # # @ + + o @ o o O & A A N   %                 ",
"                  . . X o + O + + + ;.f.+ # , , # 1 j.j.j.j.v g 5 1 1 1 # # # $ # + + + + o o o O O o . . .   % X               ",
"  % % %       %   % X X & O * O * + J J @ # # # < 3 L g.g.-.B g 4 , 3 3 # > > > # # @ @ O O O * o o &           % % % %   % % % ",
"T % % % . . T I T I I I R U Y Y Y * - : + @ f.f.> > > P # ; g 4 5 g.f.g.f.f.d.d.d.#.-.d.* * * & R R R T T T T T T % % % T T T T ",
"T T T %   T T I T T I I I I R I Y Y O O O ;.-.d.;.;.> > # ;.g g 4 ;.;.;.d.d.-.-.Y -.Y Y Y O & X I I I I T T T T T T % T T T T T ",
"T T T   % T T T I T I T I R R R U Y Y O O Y Y -.-.;.- - - ;.B 4 4 ;.;.-.;.-.-.-.D Z Z Y E & & R I I I T T T T T T T % T T T T T ",
"T T T % % T T T N T T N T C T T T N T & & T -.-.-.-.-.& = -.7 g 4 -.-.-.A C A -.T T T T T T % T T T I I T T T T T N % T T T T T ",
"T T N % % T T N N T T T T T T T N T T % & S A -.C -.-.& & -.7 4 4 I -.-.-.-.-.-.E T T T T T % N I T N N T T T N T N % T N N T T ",
"T N N % % N N T T N T N N N T N T N N % & C T A -.A C & & S B 4 4 C -.C -.N A A T T T N N N % % N N I T N T N T N N % N T T C C ",
"C N   % %   N N N N N N N N N N N N   % % % C A C C % & & . B g 4 C A A C N C C C C N N % % % %   N N N N N N N     %   T C C C ",
"    % % %   %                         % %     % %   . % % . B g 4                     % % T T %                     % %       % ",
"    % % % % % %                       % % %   %     % % % % g 4 4     .             % % T T N % %                 % % %         ",
"T T T T T T T T T T T % %     % T T T T T T % % % % I I I I B 4 4 I -.I T T T T T T % % N N % % T T T T T % % % % % % T T T T T ",
"T T T T T T T T T T T T % % % T T T T T T T % % % I I I I I g g 4 I I I T T T T T T T   % % % T T T T T T T % % % % % T T T T T ",
"T T T T T T T T T T T T T % % T T T T T T T % % % T T T T T g g 4 T T T T T T T T T T T % % % T T T T T T T T % % % T T T T T T ",
"T T T T T T T T T N T T T % % T T T T T T T T % T T T N T N B 4 2 T T T T T N N T T T T T % % T T T T T T T T % % T T T T T T T ",
"T T T T T T T N T C T T T % % T T T T T T T T % N T T T N N 4 4 4 T T N T T T T T T T T T % T T T N T T T T T % % T T T T N T T ",
"T T T T T T T T T T T T T % % C N N T T T N N %   T N T T T T T T T T T T T T T T T T T T % T T T T T T T T T % % N T T T N T T ",
"T T T T T T T T C T N T C % % C T T N N N T T %   N T N T T T T T T T T T N T T T T N T N % N N T T T T T T T % %   N T T T T T ",
"T T T T N N T T T N N N % % % C N N N N T N N % % N N N T N T T N N T C N T N T T N N N % % % N T T N N N T T % %   % N T N T T ",
"N N N N N N N N T         % % %         N N     %       N N N N C C C C N N N N N     %   % % % N N N N N N     % %   N N N N N ",
"%                     % % % %             %   % % % %             %                   % % % % % % % % %       % % %     %     % "
};
