/* XPM */
static char *result[] = {
/* columns rows colors chars-per-pixel */
"64 64 180 2 ",
"   c #1F1D17",
".  c #1B1A19",
"X  c #201F17",
"o  c #201F18",
"O  c #242217",
"+  c #2A2617",
"@  c #2E2917",
"#  c #23221E",
"$  c #29261D",
"%  c #2D2A1D",
"&  c #332D17",
"*  c #322D1C",
"=  c #373017",
"-  c #3B3317",
";  c #36311D",
":  c #3B351C",
">  c #3F381E",
",  c #212120",
"<  c #3E2723",
"1  c #3F2823",
"2  c #463B17",
"3  c #403718",
"4  c #443B1C",
"5  c #493E1C",
"6  c #432B23",
"7  c #4B3123",
"8  c #4E342E",
"9  c #51362E",
"0  c #54392E",
"q  c #5A3D2E",
"w  c #4F4217",
"e  c #4D421C",
"r  c #544617",
"t  c #584917",
"y  c #53461C",
"u  c #55491D",
"i  c #5B4C1C",
"p  c #604F1E",
"a  c #655317",
"s  c #6A5717",
"d  c #6D5917",
"f  c #64521C",
"g  c #6A561B",
"h  c #6D591C",
"j  c #745D17",
"k  c #735D1B",
"l  c #7C6317",
"z  c #766018",
"x  c #7B631C",
"c  c #5D4037",
"v  c #63442F",
"b  c #6D4B2F",
"n  c #634537",
"m  c #6C4B37",
"M  c #725037",
"N  c #755238",
"B  c #7C5738",
"V  c #7C5838",
"C  c #5F5A57",
"Z  c #5F5B5A",
"A  c #6D4C41",
"S  c #7B5641",
"D  c #635C56",
"F  c #685F55",
"G  c #615E5E",
"H  c #6B6154",
"J  c #726653",
"K  c #776953",
"L  c #7B6B52",
"P  c #726F6C",
"I  c #7D7567",
"U  c #73716C",
"Y  c #7B7569",
"T  c #7F7869",
"R  c #747373",
"E  c #856A17",
"W  c #8B6D17",
"Q  c #81661B",
"!  c #856A1B",
"~  c #8B6D1B",
"^  c #8E701C",
"/  c #9B7717",
"(  c #94731C",
")  c #99771D",
"_  c #9C791D",
"`  c #A37E1E",
"'  c #A87F19",
"]  c #835D38",
"[  c #FF5622",
"{  c #FF5E22",
"}  c #FF6222",
"|  c #825C42",
" . c #916D46",
".. c #816F52",
"X. c #847152",
"o. c #8B7551",
"O. c #8E7851",
"+. c #937C51",
"@. c #997F50",
"#. c #817766",
"$. c #857A67",
"%. c #8A7D66",
"&. c #807769",
"*. c #837A69",
"=. c #897E68",
"-. c #A6801E",
";. c #AC821D",
":. c #B2861C",
">. c #B4881E",
",. c #BB8C1D",
"<. c #BF901E",
"1. c #CB961E",
"2. c #D49B1E",
"3. c #FF9900",
"4. c #FFA400",
"5. c #FFC107",
"6. c #FFCD08",
"7. c #FFD108",
"8. c #9C814F",
"9. c #9B8151",
"0. c #A3864F",
"q. c #A7884F",
"w. c #AC8B4E",
"e. c #B28F4E",
"r. c #B4914E",
"t. c #BB954E",
"y. c #BF984E",
"u. c #A28650",
"i. c #AA8B50",
"p. c #8E8066",
"a. c #8C8068",
"s. c #948465",
"d. c #998764",
"f. c #978867",
"g. c #9C8A65",
"h. c #A38E64",
"j. c #A69064",
"k. c #AB9363",
"l. c #B19762",
"z. c #B59A62",
"x. c #BB9D61",
"c. c #BEA062",
"v. c #C39B4D",
"b. c #CA9F4D",
"n. c #CBA04D",
"m. c #D2A54D",
"M. c #D7A84E",
"N. c #DDAD4D",
"B. c #C5A35F",
"V. c #CBA75F",
"C. c #CDA95F",
"Z. c #D2AC5F",
"A. c #DBB25F",
"S. c #E2AF4C",
"D. c #E6B34C",
"F. c #F2BB4D",
"G. c #E1B75F",
"H. c #E4B95E",
"J. c #EBBE5E",
"K. c #C09F60",
"L. c #C3A361",
"P. c #CAA760",
"I. c #CBA961",
"U. c #D2AD60",
"Y. c #D6B160",
"T. c #DBB360",
"R. c #E0B760",
"E. c #E5BA60",
"W. c #EBBE60",
"Q. c #F5C24C",
"!. c #EFC15D",
"~. c #F3C45E",
"^. c #F5CC5D",
"/. c #FACB5E",
"(. c #F6D15C",
"). c #FAD55C",
"_. c #F7D95B",
"`. c #FADB5A",
"'. c #EFC260",
"]. c #F6C660",
/* pixels */
"# , , , , , # O # $ O $ % ; ; ; 3 3 5 e y y u u p p p p f f f p f p v p i u u y w e 4 4 > ; ; * < % , % O # # # # # , o , # , , ",
"P P P P P P P P U Y I I % * * ; : : =.%.%.s.5 e e e g.f.g.e y y e y e h.g.f.f.f.s.p.a.- : ; ; * % Y T R Y U U U P P , , , , , P ",
"P P C P P K P P U U I I T * ; ; - %.s.s.d.d.d.7 e h.h.h.j.j.u u u j.h.h.h.g.g.d.f.d.s.p.> : ; * *.T T Y Y U U U P P P # , , R R ",
"P P P P P P I P I I H J *.=.; : %.s.s.d.d.h.h.u u 3.k.k.k.k.p p k.k.k.j.k.j.h.h.g.g.f.f.a.4 : =.*.T T Y I Y U Y P P P R , , P Z ",
"P P P C P P P I Y I #.$.*.%.; > s.s.o.g.g.j.j.i i [ l.l.l.l.f f 0.l.l.l.k.k.i.j.g.g.g.g.s.7 > a.p.$.$.I I I U U U U P P P , P P ",
"P Z P U P I I I I I $.J %.L > 4 d.o.g.h.j.k.5.} f l.z.x.x.x.[ h x.3.x.q.z.l.l.j.k.j.j.g.f.5 4 p.$.p.*.*.I Y Y Y U U U U P , Z Z ",
"Z P C U D I D I H #.J %.L = - f.f.h.i.j.k.k.l.4.h x.x.L.B.B.k x e.L.L.i.x.z.z.l.l.j.j.g.O.e 4 L p.L p.T T I Y Y U U U C P , Z Z ",
". C C D D F F H J J K L = - 5 g.g.j.j.l.l.z.z.K.k L.P.L.V.V.x x j t.t.L.L.e.x.x.0.l.8.j.9.e e o.L L p.J J T H Y U Y C P C , . Z ",
". . . . o o + o + @ & = = 5 d.O.h.k.k.l.z.K.K.B.k V.C.C.U.v.! { [ l v.t.r.V.e.e.x.0.l.@.@.y e 4 o.L L K K T T H H D D U C # . . ",
". . Y Y Y &.#.+ @ & = 3 4 5 O.h.j.l.u.x.x.K.B.V.! Z.[ A.T.~ ^ ^ ^ ! E [ v.v.t.e.e.w.q.i u y u 2 3 - = * & J H H H H D D . # . . ",
"X o P Y Y I #.#.$.%.%.%.5 y +.j.i.u.x.w.B.r.V.v.~ T.A.G.R.( ) ) ) ) W W E Q Q j j d a g f k.j.g.g.f.e > & & + + X X X   . , o . ",
"o D P F I Y #.$.K %.d.d.5 5 @.@.0.q.w.e.V.v.v.b.3.m.H.J.N.` -.-.` ` J.3.G.G.E Q j j d k u.l.k.j.g.g.L L & & % $ X O % $ # # , , ",
", F F Y #.#.#.$.%.....d.5 y y t 0.w.e.t.C.b.b.W ) / N.S.;.;.>.>.;.5.[ W.W.E.T.^ ! ! x k h u.9.9.9.O.X.4 > ; ; * % % % # # # # # ",
"# # D F H J J K L d.%.o.u i r i a s x t.v.b.W ( ` ` ' ;.:.,.,.,.,.3.{ 7.J.W.M.) ^ ! Q x k h f v y e e e > > ; ; % % % $ # # # # ",
"P X X X o + + & L ..o.2 y i l.z.a d z l E W / ' ~.~.^.5.^.(.(.(.(.[ 3.4.D.D.` _ R.T.I.P.K.x.z.l.j.h.f.e > > a.*.T Y U % # # U U ",
"U U Y &.&.$.@ & = 3 2 2 u k.l.x.L.x ! ~ ) / J.~.~.^.5.[ )._.`._.{ 3.[ 3.3.>.;.W.E.T.U.I.P.x.x.l.j.j.f.f.4 > a.*.T T T U $ # U U ",
"U I I I I #.%.- 4 7 e e j.k.l.x.K.C.! ^ ( -.!.~.^.5.[ [ `.`._.[ 3.[ 3.3.{ ,.^.'.!.A.Y.U.I.c.z.z.k.j.g.f.4 > a.a.T Y Y U $ P P P ",
"U U U I #.#.%.%.%.5 e h.k.l.x.c.B.C.~ ( _ '.~.^.(.)._.`.`.`.5.3.3.[ [ 3.1.(.^.'.'.E.T.Y.I.c.c.z.l.j.h.g.e > a.T T I Y Y $ P P P ",
"I P I I #.K %.%.s.d.e h.k.l.x.K.B.C.W ) J.J.~.(._._.`.`.`.5.5.5.3.5.5.[ 2.Q.^.'.!.!.T.T.I.P.c.c.z.j.j.f.4 4 a.a.a.I Y Y $ Y Y P ",
"P I I I $.%.%.%.s.d.y j.k.l.x.L.C.Z.^ ) J.~.^.(.7.`.`.4.5.[ 5.3.4.5.[ 5.5.5.(.^.'.E.T.Y.U.P.c.z.z.j.j.O.e 4 a.K J T T Y , U P P ",
"D U H T #.%.o.L s.o.e +.k.0.x.L.P.U.n._ J.~./.(.5.3.3.[ 3.5.5.5.} 3.[ [ 5.3.5.!.!.'.A.T.Y.P.c.q.9.l.9.L e 4 L a.*.T Y H $ Y C P ",
"U D Y H F %.L a...o.e w @.l.w.L.P.U.W _ J.~.^.3.5.3.5.{ [ 3.3.5.6.[ [ 5.5.[ 5.F.!.'.T.T.y.t.e.c.l.9.9.e > 4 a.K J H H Y $ G U C ",
"F F H H J K K ..X.o.w r t 0.w.e.I.U.W ) !.^.^.3.4.{ 3.[ 5.3.[ 5.3.3.3.5.5.[ 5.3.5.!.M.n.v.t.e.j.9.t w e e 4 K K J H H H $   Z Z ",
"$ O * , * ; ; 6 4 5 e u t i a d z l ^ ) / ;.,.4.4.3.[ 3.[ 3.3.5.[ 3.5.3.[ 3.5.5.-.-.^ W l z h p f u w g.f.4 ; & % @ O o $ X     ",
"$ O % % ; ; : : 4 e e u y f h h z l ^ ) _ ;.:.,.4.4.5.[ [ 3.5.[ 3.[ [ 3.3.[ 4.6.-.-.( ^ ! x k h f i u g.f.L > % @ * O o $ $ # . ",
"U U Y % , ; : : a.f.f.j.k.l.z.L.L.U.Y.) _ ;.>.<.1.6.[ 3.3.5.5.3.[ 3.3.3.[ [ { 3.'.'.T.Y.I.P.c.z.p u u o.o.: : ; T T Y Y U U U P ",
"U Y Y $ % ; ; ; s.d.O.h.j.l.q.x.L.C.Z.A.E.` ;.,.^._.3.3.5.5.{ 3.[ 3.5.3.3.3.5.'.'.T.T.Y.I.L.c.z.l.j.y 4 - > ; a.*.T Y Y R U U P ",
"U D F I * ; ; a.p.f.g.g.i.l.z.x.L.I.Z.T.R.` ;.>.F._.5.5.3.6.3.3.3.3.[ 3.[ 3.>.'.'.T.Y.I.I.c.c.l.k.j.g.e e > a.a.*.T Y Y H U P U ",
"U U P I @ * ; a.p.s.d.g.h.k.l.x.L.B.C.Z.A.H.` ;.D.(.6.{ { 6.4.3.3.5.[ 3.3.[ ;.'.E.T.U.I.L.c.z.l.k.j.f.e 4 > a.T T H Y Y U Z U P ",
"P Y I F % % ; K p...d.g.+.k.l.z.x.L.I.Z.A.G._ ` ]./.).7.} 7.4.} 4.3.5.[ 3.-.` R.T.Y.U.P.c.c.z.k.j.h.f.e 4 > T a.T Y Y U Y P U P ",
"P U F F % ; ; K L s.X.o.O.@.8.0.z.L.B.I.Z.A.) _ S.S S N B m v M q 6 8 < < 8 _ T.Y.U.I.L.c.z.l.k.9.f.X.e > : K T H Y Y P Y U P P ",
"U D I D @ , < @ L L ..3 2 2 r t 0.x.L.L.I.Z.~ ) N.].| V ] ] b v q 6 9 < < _ ( T.U.I.P.c.k.z.k.9.O.O.> > > : % J T H Y H P Z U G ",
"C D D   , % & @ @ = - - 3 w w r i 0.c.e.t.x ! ^ ( N.~. . .V b v 8 0 6 < n.^ ! Q z j w.i.0.k.9.+.O.2 - > %.=.* % H H D D C Z C Z ",
".     O % % % * @ & = s.f.g.g.r r i p f h x x ! E ( / -.V V M v q 0 6 ! ! ^ ! Q j d g a i u w e 2 - f.a.a.*.* O O           . , ",
"# # $ , $ % % % ; ; p.a...d.f.+.i i f h h k x x E ^ ^ ( M M b v 6 6 < ~ ! Q x x s a a t t r w 4 e 4 a.a.=.*.*.% $ O # # . . . . ",
"U P U U Y Y Y I ; ; = L ..X.- w u i k.z.z.c.c.c.V.C.Y.Y.V m c c 0 9 < I.P.L.L.x.c.z.l.k.j.y e e 4 > a.a.*.*.T ; $ , O , # P P P ",
"P P P P Y U I I T * ; & = - : e e j.j.k.l.z.z.c.c.L.B.I.c n c 9 8 < 1 L.L.c.x.x.c.k.j.j.h.g.f.e 4 > a.%.I T H , % , P P P P R P ",
"C P U U U Y I Y T *.$.%.: > e p.f.h.j.j.9.k.l.z.x.x.c.c.A c c 8 8 1 1 c.x.z.z.l.k.j.j.p.g.f.s.s.> : K *.T T % % $ P P P P R P R ",
"C C P P U U Y Y I I I *.*.: : f.d.d.f.h.h.j.j.z.l.z.z.z.A c 8 8 < < 1 z.l.l.k.j.j.j.j.f.f.f.p.a.: ; % T T H $ , P U P R P R R P ",
"P P U P U U U U Y I *.*.K : : a.s.f.d.f.h.j.j.j.j.k.z.l.l.z.< < < h.l.l.k.k.j.j.h.h.f.f.f.s.a.a.*.; % T Y Y U $ U U P R P P P R ",
"R P P P P P U U Z Y H I J ; ; ; L s.s.d.d.g.g.h.j.j.k.k.k.k.8 8 8 u 9.j.j.j.g.g.g.f.d.a.L L L a.J * % H H Y Y # G P P Z Z P G Z ",
"P C Z P C P U D H H H H + * ; * & L a.X.X.d.f.g.g.g.+.g.g.9.A 8 8 7 e +.h.g.O.f.f.o.f.L a.K K K % % % Y D G C # Z Z C Z Z Z G Z ",
"Z . . Z C C D   . o O O O % * * @ & & = = - 3 3 > 2 > 4 w w c 8 8 4 2 4 2 4 4 : : = = = * @ ; + O % % H D D . #   . . . . . . . ",
". . . . . . . . o . o o % % % * ; % %.=.= * 4 4 ; e f.f.s.f.n c 8 e 4 e - - - = = = & % @ @ + O % % $ X X   . , o . . . . . . . ",
". , , , # . . # # $ # + $ % % % % ; K K : ; : > > > L f.s.L A c 8 > > > > > ; > ; ; * * * < % % % % $ . . . . , , , , , . , , , ",
"P , , , #   P P P U P U U U Y Y Y % % ; < ; *.a.: : > K > > c 8 8 a.a.a.a.=.=.=.=.=.*.*.; , % % U U Y R P P P R P , , , R R R R ",
"R R R , , R P P P P U U U Y U Y Y Y % % % *.T *.T a.; ; ; a.c c 8 %.%.=.*.$.$.*.T *.I Y Y % $ % U Y P U P P R R P P , R R R R R ",
"R P P , , P P P P P U P P U Y U Y Y Y % % T T T T T ; ; * a.m 8 8 $.*.*.$.*.T T H H H Y R % , R U U P R P R P P R R , R R R R R ",
"R R P , , R P P Z P P Z P P P P U D U $ , *.I Y Y I I ; * T c c 8 T *.Y H H H Y Y Y U U P R , R U P P U R P R P R Z , R R R R R ",
"R R G , , R R Z Z P P P P P R P Z P Y O $ H D I H Y Y % % R c 8 8 Y I Y T Y Y Y Y Y U P P R , Z P R Z Z P R R Z R Z , R Z G R R ",
"R G Z , , Z Z R R Z P Z C C P C P Z Z , , C U H P H H $ % H A 8 8 H I H Y D D D U D P Z Z Z , . Z Z P P Z R Z R Z Z . G R R G G ",
"G G . , , . Z Z Z Z Z Z Z Z C C Z Z . , $ # D D G H O , $ o A c 8 D D D D G D D D G Z Z , . , , . Z Z Z Z Z Z Z . . , . G G G G ",
". . . , , . . . . . . . . . . . . . . , , . . . #   o $ # . A c 8   . # . . .   . . . o . R R , . . . . . . . . . , , , , . . , ",
". . , , , , , , . . . . . . . . . . . . , , . . .   , , , $ c 8 8 .     . . . . . . o , R R Z . , , . . . . . . . , , , . . . . ",
"R R R R R R R R R P R , , , . , R R P P R R , , # # P P P P A 8 8 P P U P R P R R P , , Z Z , , P P R R R . , , , , , R R R R R ",
"R R R R R R R R R R R R , , . R P R P P R R . , , P P P R P c c 8 P P U P R P P P U U , , , , R R R R R R R , , , , , R R R R R ",
"R R R R R R R R R R R R R , , R R G R R R R , , , G R P P P c c 8 R R P R P P R R R G R , , , R R R R R R R R , , , R R R R R R ",
"R R R R R R R R R Z R R R , , R R R R R R R R , R R R Z R Z C 8 8 P P R R P Z Z R R R R R , , R R R R R R R R , , R R G R R R R ",
"R R R R R R R G R G R R R , , R R R R R R G R , G R R P Z Z < 8 8 P R Z P R R R R R R R R , R R R R R R R R R , , R R R R G R R ",
"R R R R R R R R R R R R R , , G Z Z R R R Z G , . R Z R P R R R R R R P R R P R R R R R R , R R R R R R R R R , , G R R R R R R ",
"R R R R R R R R G R G R G , , G R R G G G R R , . G R Z R R R R R R R R R Z R R R R G R G , G G R R R R R R R , , . G R R R R R ",
"R R R R G G R G R G G G , , , G G G G G R G G , . G Z Z R Z R R Z Z R G Z R Z R R G G G . , . G G R G G G R G , , . . G R G R G ",
"G G G G G G G G G , . . . , , . . . . . G G . . , . . . G Z G G Z Z G G G G G G G , . . . , , . G G G G G G . , , , . G G G G G ",
". . , , . . . . . . . , , , , . . . . . . . . , , , , . . . . . . . . . . . . . . . . , , , , , . . , , . . . , , , . . . . , , "
};
