/* XPM */
static char *result[] = {
/* columns rows colors chars-per-pixel */
"64 64 174 2 ",
"   c #1B1B1A",
".  c #201F19",
"X  c #242219",
"o  c #2A2619",
"O  c #2E291A",
"+  c #332D1B",
"@  c #36311D",
"#  c #3B341C",
"$  c #3F381F",
"%  c #222220",
"&  c #282620",
"*  c #2D2A20",
"=  c #3E2723",
"-  c #322E20",
";  c #3F2823",
":  c #363120",
">  c #3C3520",
",  c #3F3820",
"<  c #40371A",
"1  c #443A1B",
"2  c #493D1A",
"3  c #432B23",
"4  c #4B3123",
"5  c #443B20",
"6  c #483F20",
"7  c #4E342E",
"8  c #51362E",
"9  c #573B2E",
"0  c #4E411B",
"q  c #54451A",
"w  c #56481C",
"e  c #5C4C1A",
"r  c #64521A",
"t  c #69551A",
"y  c #6D591A",
"u  c #755E1A",
"i  c #7C641A",
"p  c #4D4220",
"a  c #524621",
"s  c #554920",
"d  c #5B4D21",
"f  c #5D4037",
"g  c #67472F",
"h  c #635221",
"j  c #695721",
"k  c #6C5A21",
"l  c #725E21",
"z  c #694937",
"x  c #785538",
"c  c #756020",
"v  c #7B6421",
"b  c #5F5D5D",
"n  c #6D4C41",
"m  c #7B5641",
"M  c #615E5D",
"N  c #66615B",
"B  c #6B645B",
"V  c #70675B",
"C  c #746A5A",
"Z  c #796E5A",
"A  c #7E715A",
"S  c #757473",
"D  c #797671",
"F  c #7D7A71",
"G  c #80671B",
"H  c #856B1B",
"J  c #8A6D1B",
"K  c #8E711C",
"L  c #94751C",
"P  c #9C7B1C",
"I  c #835D38",
"U  c #846B21",
"Y  c #896F21",
"T  c #8D7221",
"R  c #927522",
"E  c #967922",
"W  c #9B7B22",
"Q  c #A07F22",
"!  c #FF5622",
"~  c #FF5A22",
"^  c #FF6323",
"/  c #825C42",
"(  c #906E4A",
")  c #83755A",
"_  c #87785A",
"`  c #8C7C5A",
"'  c #837E6F",
"]  c #837D70",
"[  c #A8841C",
"{  c #B38B1C",
"}  c #A48222",
"|  c #AB8723",
" . c #AE8822",
".. c #B48D23",
"X. c #BC9223",
"o. c #C5981D",
"O. c #FF9900",
"+. c #FFA400",
"@. c #EAB11D",
"#. c #C79B23",
"$. c #D7A623",
"%. c #EEB724",
"&. c #FFC207",
"*. c #FFCC07",
"=. c #FFD108",
"-. c #94825A",
";. c #9A8659",
":. c #9D885A",
">. c #A48D59",
",. c #A7905A",
"<. c #AC9259",
"1. c #B29659",
"2. c #B39859",
"3. c #BB9D59",
"4. c #BFA159",
"5. c #8B836F",
"6. c #93886F",
"7. c #9B8D6F",
"8. c #9E916F",
"9. c #878071",
"0. c #8B8370",
"q. c #918770",
"w. c #948A70",
"e. c #9A8E70",
"r. c #9E9170",
"t. c #A4956F",
"y. c #AC9A6F",
"u. c #B19E6F",
"i. c #A39570",
"p. c #AB9B70",
"a. c #B19E70",
"s. c #B5A16F",
"d. c #BBA66F",
"f. c #BEA86F",
"g. c #B4A170",
"h. c #B9A470",
"j. c #BFA970",
"k. c #C4A459",
"l. c #CEAA59",
"z. c #D9B35A",
"x. c #E4BC5A",
"c. c #C4AC6F",
"v. c #C9AF6F",
"b. c #CCB26F",
"n. c #D1B66F",
"m. c #D6B96F",
"M. c #DBBD6F",
"N. c #C4AD70",
"B. c #C8AF70",
"V. c #CCB270",
"C. c #D6B970",
"Z. c #F5C85A",
"A. c #FCD25B",
"S. c #FDEC5B",
"D. c #DFC06F",
"F. c #E3C36F",
"G. c #E8C66F",
"H. c #ECCA6F",
"J. c #F4CE6F",
"K. c #F7D26E",
"L. c #FAD56F",
"P. c #FCDB6F",
"I. c #E4C370",
"U. c #ECC970",
"Y. c #F3CD70",
"T. c #F4D070",
"R. c #FAD570",
"E. c #FCDC70",
"W. c #FDE56F",
"Q. c #FCEC6F",
"!. c #FDF26F",
"~. c #FCE670",
"^. c #FCED70",
"/. c #FDF270",
/* pixels */
"%   % % . . % . % & o * - - - > 3 1 p p p p s d d d h h h h h h h h h h s s w a 0 6 5 5 > > : : - & & & % & % X % % X % % % %   ",
"S S S S S S S D D D D D * - - - : : 0.w.w.w.5 6 6 p 7.i.i.a a p a a a 8.8.e.e.e.w.w.w.> : : : - - ] F D D D D S S S % % % % % S ",
"S S b S S S S D D D ] ' ] - @ : # q.w.e.7.7.7.p a t.t.t.t.y.d a a t.t.t.i.i.8.8.e.e.w.q.< : : - ] ] ] D F D D S S S S   % % S S ",
"S S S S S D D D D ] B V ' ' : 5 w.w.6.7.8.i.i.a s t.y.u.u.p.d h a.y.u.p.y.y.t.t.i.8.e.w.w.5 > 0.' ] ] ] D F D D S D S S % % S b ",
"S S S M S D A D F ] ' ' 0.5.# 5 6.7.` 8.t.t.t.d d u.u.u.d.d.h h >.u.u.u.a.a.a.t.i.t.t.e.e.5 $ q.0.0.] ] ] D F D S S S S S   S S ",
"S b S S D D D D ] ' ' Z 0.Z 5 5 7.` 8.t.t.y.>.e h d.d.d.d.d.k k c.<.c.>.u.u.a.a.p.t.t.i.e.5 5 q.0.0.0.] ] F F D D S S S S % b b ",
"b C b D M D M ' M ' C ' Z @ @ 7.8.t.t.t.u.u.u.d.j c.d.! c.v.u l 1.c.c.<.j.j.d.u.u.a.y.t.` p 5 ) q.Z 5.' ] ] F F D D S b S % b b ",
"  b M M M B V V C C Z Z @ # 6 e.t.t.y.u.u.d.d.c.l v.v.v.n.b.v U u 3.3.v.c.<.c.c.,.a.:.p.-.a p _ ) ) 0.C C ] B F F D M S b %   b ",
"      . . . . O o O + + < 1 8.` t.t.u.s.d.f.c.v.! O.n.C.m.k.U U G G 4.4.3.b.2.1.d.>.s.:.;.a a < ) ) Z Z C ] ] B M M M F M .     ",
"    D D D ] ] O O O + # 1 2 ` t.y.u.>.d.c.c.v.n.U m.M.M.! J R R K J H G k.4.3.3.1.<.<.e q q a 2 < < @ + + C V B V M M M . .     ",
". . D D ] F ' ' ' 6.6.6.6 6 ` u.y.>.d.<.c.3.b.k.Y M.I.F.G.L ~ W E E K J J H i i u y t j h p.t.t.8.7.< 5 + O O o . . . .   % %   ",
"% M F M D ] ' ' ) ' 6.7.6 a ` >.>.<.1.2.b.k.k.l.R z.G.Y.x.} O.} } Q Y.Y.F.F.H G i u y k <.u.a.p.t.7.) ) + + O O o . O o % % % % ",
"% M M ] ' ' ' ' ' ) ) 7.a a 2 e >.<.1.2.n.k.l.J W L x.x.|  .O.~  . .K.J.H.H.F.R U U v l j >.>.-.-.` _ 5 > : : - * * * % % % % % ",
"& & M M B V V C ) q.7.` a d q r r y c k.k.l.L P } [ [ [ { X.X.X.X.X.Z.L.O.Y.z.E T U U v l j h d w a p 5 5 > : - - * & & & . % % ",
"S . . . . O O + Z ) _ 2 6 d u.d.r y u i H J L } L.P.O.O.W.W.Q.~.W.#.X.Z.! Z.W W F.M.m.n.B.c.g.a.p.i.r.6 5 > 0.] ] ] D & & % S D ",
"D F ] ' ' ' O O + < 1 2 d y.a.c.N.v U T E W J.L.L.! O.Q.Q.Q.Q.Q.! ~.#.#.X...| T.U.I.M.n.v.N.d.g.p.p.i.e.5 5 0.' ] ] ] D & % S S ",
"D D ' D ' ' ' < $ 5 6 a y.u.u.c.c.b.U T E Q R.R.P.&.Q.Q.!.!.! &.~ /.$.#.#.X.E.K.H.G.D.m.b.N.f.h.a.p.t.e., > 0.9.9.' F F & S S S ",
"D D D D ' ' ' q.w.6 6 t.y.u.d.c.v.n.Y R W Y.R.E.W.Q.!.!.!.!.O.O.! /./.$.#.~.E.R.K.U.D.m.n.V.f.h.g.p.t.r.p , q.0.9.] F F & S D S ",
"S D D ' ' Z q.q.w.7.a t.y.u.c.c.b.n.K E J.R.E.E.W.!.!.!.!.O.&.&.O.!.S.$.$.A.! R.K.H.G.D.m.b.j.d.s.p.t.i.p > q.9.9.F F F o S S S ",
"D D ' D ' ' ' q.e.7.p p.u.u.j.c.b.M.K W Y.L.P.! Q.!.!./.!.! ! &.O.!.S.%.$.o.~.E.R.T.G.D.m.b.N.d.g.p.p.` p 5 q.Z V 9.] F o D D S ",
"M ] M ' ' ' q.) w._ a -.u.>.d.v.n.C.l.W J.L.E.O.! /.!.! /./.&.~ &.&.@.@.! o.A.E.P.J.H.D.C.n.N.<.>.y.-.-.p , A 0.9.9.] B & S N S ",
"F M ' B C ' Z 6.) ` a 2 ;.u.1.v.b.C.J W Y.L.W.&.! /.O.&.&.&.O.+.&.! %.%.&.! o.Z.R.T.U.D.k.3.2.j.g.:.-.1 1 5 q.A V V B F & b D b ",
"M M M V V C Z ) ) _ q 2 q >.<.2.n.C.J W K.L.P.~.&.! O.&.O.~ &.+.&.O.O./.&.! o.{ L.T.z.l.k.3.2.<.,.w 0 0 5 5 A C C V B N o   b b ",
". O * * - : : < 5 6 a d q e r y u G R W P [ { &.! ! &.! &.&.O.! &.~ O.O.! O.#.{ [ P L J i i y r e w q t.r.5 @ + O o o X & . .   ",
"& & * * + - : > 1 6 p s q h k y u G T E P | { +.*.&.&.~ ~ &.O.&.&.! =.&.&.~ #...| } E T H v c j h d a r.8.A $ + O - o . & & %   ",
"D D ] * - : > > w.e.i.t.a.u.d.c.n.n.M.E Q | ..#.#.&.! O.&.&.! &.&.O.+.O.&.O.X...E.U.F.D.n.V.N.d.h d s -._ @ $ > 9.] F F D D S S ",
"D ] D o * - # 3 q.e.` i.y.a.>.c.v.n.M.F.H.}  .X.~.! &.O.O.~ &.&.&.! &.O.&.! X.R.T.H.D.D.n.B.j.d.a.p.a 1 # $ $ 9.9.' F F D S S S ",
"D M M ] - : : q.w.e.i.i.y.u.u.c.v.n.C.D.G.Q | ..Z.^.&.&.&.*.&.~ O.&.! O.! X...R.U.F.D.D.V.B.j.g.a.p.r.p 0 $ 0.0.9.F F F N D S S ",
"S D D ' . + : ' q.w.7.t.t.u.u.d.c.v.n.M.D.H.Q  .Z.~.&.^ *.*.+.~ &.&.O.O.! ..| Y.H.F.D.n.V.j.d.g.y.t.r.p 5 , 0.9.9.B F F D N S S ",
"S D ] B * - : Z q.) 7.8.` p.u.d.c.v.n.C.D.F.W } R.E.~.*.^ =.+.~ +.~ O.! O.| } U.D.D.n.V.v.f.h.a.p.i.r.p $ $ 9.9.9.F F D D S S S ",
"S F M B * * - Z Z q.) ` ` -.>.>.d.c.v.n.C.D.L Q x.m / x x z g x 9 3 7 ; = 7 W I.D.n.n.v.j.f.s.a.-.8._ p $ # C 9.B ' F D D D S S ",
"D M F M * - - O Z ) ) < 2 q q q >.d.v.v.n.M.R E x.R./ x I I g g 9 3 8 = = W R F.D.n.V.B.,.h.a.-.-.-.$ , $ # O V ' B D N D b S b ",
"M N N X * * * O + + # # $ 0 0 q e >.j.2.2.i U R K x.L.( I I g g 4 9 3 = l.R H G i u 1.,.,.a.;.-.-.0 # # 0.0.: o V N N N b N b b ",
"        * * * : O + + 6.8.8.t.0 q e r t y v U U J L P [ I x x g 9 9 3 J J Y U U u y r r e w 0 0 $ # w.q.0.9.- o X . . .       % ",
"X % % & & * O * + # q.6.) 7.8.-.d d h j k l c v H K K L x x z f 4 3 = Y U U v v y r r w w q 0 5 0 5 6.5.9.9.F * & . .           ",
"D S D D D D F ' @ @ + A A ) $ 0 s d p.s.d.c.c.B.V.n.M.M.m z z 9 8 8 = n.V.v.B.N.f.d.a.a.p.w 0 p 5 5 6.5.0.9.9.* & & & % . S S S ",
"S S S S D D F F F @ @ O @ # $ 0 p t.y.p.u.s.d.c.c.v.b.n.f z 7 8 7 = = v.B.B.f.d.g.a.a.p.i.r.e.p 5 , 0.0.' ] B * o X S S S S S S ",
"b S S S D D F F 9.' 9.5.> , 1 e.r.i.t.p.;.g.s.d.d.f.N.N.n z f 7 7 = = N.h.h.g.g.a.a.p.-.r.r.e.w., > C 0.9.F & & o S S S S S S S ",
"M b S S D D D D F ' 9.9.9.> $ w.w.r.t.t.y.p.y.g.s.s.d.d.n f 7 7 = = = h.g.g.s.p.a.p.i.r.r.r.w.q.# : * ] F V & & S S S S S S S S ",
"S S D S D D D F F F F 9.C @ > q.w.e.r.r.i.t.p.p.p.g.p.g.g.s.= = = >.g.g.g.p.p.p.i.i.r.r.w.w.q.q.0.: o ] F F F & D S S S S S S S ",
"S S S S S S S D B F B ] V @ > @ A w.w.7.8.8.8.t.t.y.y.y.y.y.7 7 7 q ;.y.y.t.t.t.8.e.e.w.A A Z 9.C : * V N D S % b S S b b S b b ",
"S b b V M S D M N N B V o - : O + A w.) ) 8.r.r.i.t.` p.y.-.n 7 7 0 0 -.t.t.` 8.8._ w.A q.Z Z C O * * F B N N % N b b b b b b b ",
"b     b M M M .   . . X X * - - O + + @ # # $ $ < 1 1 1 1 1 f 7 7 1 < 1 1 1 < # # # @ @ @ O : o o * * N N N   %                 ",
"                .   . X * * - - : O 5.5.@ @ $ 1 $ 6 e.e.r.r.n f 7 p 5 0 # # # # + @ + O O o o o * & & . .     % .               ",
"  % % % .     X X X % & & * * * * : V Z @ @ # > > 5 ) w.w.) n f 7 5 5 5 , > > > # @ - @ * - * * * & &           % % % % . % % % ",
"S   % % . . S S S S S D D F F F F * - : @ @ 0.0.> > : A 5 3 f 7 7 0.q.0.q.0.0.9.9.9.9.9.* * * & D D D D S S S S S % % % S S S S ",
"S S S %   S S S S S S D D D D D F F * * * 9.9.9.' 0.> : @ 0.f f 7 0.0.0.9.9.9.9.9.9.F ' F * & & D D S D S S S S S S % S S S S S ",
"S S S % % S S S S S S S D S D F F F F * * ] F 9.] 0.- - : ] n 7 7 0.9.] 9.9.] ] V B B F F & & D S D S S S S S S S S % S S S S S ",
"S S S % % S S S b S S b S S S S S M S % % F ] ] ] ] ] * - ] f f 7 ] ] ] B V V ] S S S S S S % S S S S S S S S S S b % S S S S S ",
"S S b % % S S b b S S S S S S S b S S = = M N ] M ] ] * - ] f 7 7 ] D ] D ] D F S S S S S S % b S S b b S S S b S b % S b b S S ",
"S b b % % b b S S b S b b b S b S b b % % M S N ] B M & & M n 7 7 B D B D B M M S S S b b b % % b b S S b S b S b b   b S S b b ",
"b b   % %   b b b b b b b b b b b b   % % % M N M M % & & . n f 8 M B M B M M M b b b S % % % %   b b b b b b b     %   b b b b ",
"      % %                             % %       %   . % % . n f 7     %               % % S S %                     %   %     % ",
"      % % % % %                     % % % %     .   % % % % f 7 7 %                   % S S b % X                 % % % %       ",
"S S S S S S S S S S S % % %     S S S S S S % % % % S S S S z 7 7 S ] S S S S S S S % % b b % % S S S S S % % % % % % S S S S S ",
"S S S S S S S S S S S S   % % S S S S S S S % % % S S S S S f f 7 S S S S S S S S S S % % % % S S S S S S S % % % % % S S S S S ",
"S S S S S S S S S S S S S % % S S S S S S S % %   S S S S S f f 7 S S S S S S S S S S S % % % S S S S S S S S % % % S S S S S S ",
"S S S b S S S S S b S S S % % S S S S S S S S % S S S b S b n 7 7 S S S S S b b S S S S S % % S S S S S S S S % % S S b S S S S ",
"S S S S S S S S S b S S S % % S S S S S S S S % b S S S b b 7 7 7 S S b S S S S S S S S S % S S S b S S S S S % % S S S S b S S ",
"S S S S S S S S S S S S S % % b b b S S S b b %   S b S S S S S S S S S S S S S S S S S S % S S S S S S S S S % % b S S S b S S ",
"S S S S S S S S b S b S b % % b S S b b b S S %   b S b S S S S S S S S S b S S S S b S b % b b S S S S S S S % %   b S S S S S ",
"S S b S b b S b S b b b % % % b b b b b S b b % % b b b S b S S b b S b b S b S S b b b   % % b b S b S b S b % %     b S b S b ",
"b b b b b b b b b %       % %           b b     %       b b b b b b b b b b b b b     %   %     b b b b b b     % % % b b b b b ",
"    % %               % % % %             %   % % % %                                 % % % % %               % % %           % "
};
