/* XPM */
static char *result[] = {
/* columns rows colors chars-per-pixel */
"64 64 185 2 ",
"   c #1F1D17",
".  c #1B1A19",
"X  c #201F17",
"o  c #211F18",
"O  c #242217",
"+  c #2A2617",
"@  c #2E2917",
"#  c #23221E",
"$  c #29261D",
"%  c #2D2A1D",
"&  c #332D17",
"*  c #322E1C",
"=  c #373017",
"-  c #3B3317",
";  c #36311D",
":  c #3B351C",
">  c #3F381E",
",  c #212120",
"<  c #3E2723",
"1  c #3F2823",
"2  c #463B17",
"3  c #403718",
"4  c #443B1C",
"5  c #493E1C",
"6  c #432B23",
"7  c #4B3123",
"8  c #4E342E",
"9  c #51362E",
"0  c #54392E",
"q  c #5A3D2E",
"w  c #4F4217",
"e  c #4D421C",
"r  c #544617",
"t  c #564817",
"y  c #5C4C17",
"u  c #53461C",
"i  c #56491C",
"p  c #5B4C1C",
"a  c #604F1E",
"s  c #665317",
"d  c #695617",
"f  c #6D5917",
"g  c #63521C",
"h  c #6A561B",
"j  c #6C591C",
"k  c #745D17",
"l  c #745E1B",
"z  c #7D6317",
"x  c #7B631C",
"c  c #5D4037",
"v  c #63442F",
"b  c #6D4B2F",
"n  c #634537",
"m  c #6C4B37",
"M  c #755238",
"N  c #7A5638",
"B  c #5F5A57",
"V  c #5F5B5A",
"C  c #6D4C41",
"Z  c #7B5641",
"A  c #635C56",
"S  c #685F55",
"D  c #615E5E",
"F  c #6B6254",
"G  c #736653",
"H  c #766853",
"J  c #7B6B52",
"K  c #726F6C",
"L  c #7D7567",
"P  c #73716C",
"I  c #7B7469",
"U  c #7F7869",
"Y  c #747373",
"T  c #866A17",
"R  c #80661C",
"E  c #856A1C",
"W  c #8B6D1B",
"Q  c #8E7017",
"!  c #8E701C",
"~  c #967417",
"^  c #94731C",
"/  c #99761C",
"(  c #9C791D",
")  c #A37D1D",
"_  c #A87F19",
"`  c #835D38",
"'  c #FF5622",
"]  c #FF5B22",
"[  c #FF6323",
"{  c #825C42",
"}  c #906642",
"|  c #8F774F",
" . c #957C4F",
".. c #816F52",
"X. c #847152",
"o. c #8A7551",
"O. c #8E7851",
"+. c #907750",
"@. c #927B51",
"#. c #987E50",
"$. c #817666",
"%. c #847A66",
"&. c #8A7D66",
"*. c #807768",
"=. c #837A68",
"-. c #8A7E68",
";. c #A6801E",
":. c #AC821C",
">. c #B3861B",
",. c #B4881E",
"<. c #BB8C1D",
"1. c #C18E1B",
"2. c #C4911E",
"3. c #CB951D",
"4. c #D49A1E",
"5. c #D99E1C",
"6. c #FF9900",
"7. c #FFA400",
"8. c #EAA81D",
"9. c #FCBB1C",
"0. c #FFC207",
"q. c #FFCC07",
"w. c #FFCC13",
"e. c #9C814F",
"r. c #9B8150",
"t. c #A4864E",
"y. c #A6884F",
"u. c #AC8B4E",
"i. c #B28F4D",
"p. c #B4914E",
"a. c #BA944D",
"s. c #BF984D",
"d. c #A18550",
"f. c #B79A5F",
"g. c #BE9F5F",
"h. c #8E8066",
"j. c #938365",
"k. c #998664",
"l. c #978866",
"z. c #9C8964",
"x. c #A38D63",
"c. c #A69063",
"v. c #AB9362",
"b. c #B19662",
"n. c #B59962",
"m. c #BB9D61",
"M. c #BEA061",
"N. c #C39A4D",
"B. c #CB9F4C",
"V. c #C09F5F",
"C. c #CCA04D",
"Z. c #D3A64D",
"A. c #DCAC4C",
"S. c #C4A25F",
"D. c #CAA65E",
"F. c #CDA95E",
"G. c #D3AD5F",
"H. c #D8AF5E",
"J. c #D7B15F",
"K. c #DCB35E",
"L. c #E1AF4B",
"P. c #E7B34B",
"I. c #EAB54B",
"U. c #F1BB4C",
"Y. c #E1B75E",
"T. c #E5B95E",
"R. c #EBBD5D",
"E. c #C3A361",
"W. c #C8A661",
"Q. c #CCA960",
"!. c #D1AD60",
"~. c #D6B160",
"^. c #DBB360",
"/. c #E0B760",
"(. c #E5BA60",
"). c #F4C44B",
"_. c #FDDA48",
"`. c #EFC05E",
"'. c #F2C45D",
"]. c #F4CB5C",
"[. c #FACB5E",
"{. c #F6D35B",
"}. c #F7D95B",
"|. c #FADA59",
" X c #FFD859",
/* pixels */
"# , , , O o # # O # + $ % * * : > 4 4 e e u i i p a a g g g g g a g v a a i i u w 5 4 4 : : ; * % % , , + # # O , , , , o , , , ",
"K K K K K K P P I P L L % * < ; 1 : h.h.j.j.4 5 7 e z.z.z.e u u e u e l.z.l.j.l.j.j.h.: : ; ; * % U U U K I P P K K , , , , , P ",
"K K B K K K P P I I I L U % * ; 3 -.#.&.j.k.z.e u x.c.x.c.c.i i i c.x.x.x.z.z.z.k.j.j.h.> ; ; * =.U U I I K I K K K K , , , Y P ",
"K K K K K K I P I I S F =.h.; : -.j.j.k.z.z.x.u i c.c.c.v.v.a a ' v.v.v.c.c.x.x.z.z.k.l.h.7 > h.%.U U U I I P K P P K P , , Y V ",
"K K K B K K L H I L L %.=.%.: > &.k.| k.d.x.x.p p v.v.b.f.b.g g 6.n.b.b.v.v.c.c.x.z.z.j.j.> : h.h.=.=.U I I I P P P K K K , K K ",
"K B K P K I K L I L %.H h.J > 4 k.o.x.x.c.v.#.a g n.f.m.f.f.j j m.y.m.y.n.b.f.v.c.c.c.z.l.e > l.h.%.=.=.L I I I P P P K K , V V ",
"V K B P A I S L F $.G %.J = - k.k.x.x.c.v.b.b.f.j m.g.g.S.S.l l i.V.V.u.m.m.n.b.b.v.c.c.O.e 7 J h.J h.=.$.U I P P P K B K , V V ",
". B B B A S S F G G H J = = e z.x.x.v.b.b.n.m.g.l E.D.W.D.D.x E k a.a.S.V.i.m.f.e.b.e.c. .e e o.J J %.H G %.F I I I B K B , . V ",
". .     X X X + + @ & = - 7 z.O.x.c.v.b.m.m.V.S.x D.D.G.F.N.E E R R s.s.a.S.i.i.m.y.v.e.#.i e 4 X.J J H G U U F A A A P B # . . ",
".   K L I L $.+ + & * = 4 5 O.c.u.v.t.m.m.V.S.D.R G.G.K.K.Q ^ ^ ! T T T N.s.a.p.i.u.u.y i u u 4 w - - ; & G F F S S A A . # . . ",
"X o K K I L $.%.%.&.r.j.e e  .y.v.t.f.u.S.a.D.N.W K.K.K.Y.~ / / / ~ Q T T T z x k j s h g v.c.x.l.l.> > & @ @ + O O X X . # , . ",
"o A I A I L $.%.H &.h.l.e e r.r.t.u.u.i.D.N.N.B.^ Z.Y.R.A.' ;.;.) ) R.T.Y.K.T R z k j j y.v.v.c.z.l.o.J & * % $ O O + # # # # o ",
", A A I L L $.%.&.J ..k.e e u i y.u.i.a.G.N.C.Q / ~ A.L.:.:.>.>.>.:.`.`.T.T.^.! E R x l j t.r.#.@.o.X.e > : ; % % % $ $ # # # # ",
"# $ A S F F G H J j.j.o.e i t p s d x a.N.C.Q / ) ) :.>.>.<.<.<.<.<.I.`.'.R.A./ W E R l l j g a t u e > > : ; ; * % $ # # # # # ",
"K   X X O @ @ & J X.o.2 u p v.m.h f k z T Q ~ ) U.].].].].{.{.{.].2.<.U.P.P.) ( /.~.G.W.E.m.n.v.c.z.l.e > > h.=.U U I $ # # K K ",
"K I I L L %.@ & - - 3 5 i v.b.m.m.x E W ^ ( R.'.'.].].{.{.}.}.|.{.}.3.2.<.,.:.(.(.^.G.Q.E.M.n.n.v.c.z.l.> > h.=.U U I P $ # K Y ",
"K I K L L =.%.: 4 5 5 u x.b.f.m.V.D.E ! / ) '.'.].].{.|.|.|.|.|.}.' 4.3.2.,.'.`.R.Y.K.Q.W.E.m.n.v.c.z.z.> > h.U U U I I , P P P ",
"K I L I ..=.&.&.&.5 e x.c.b.m.V.D.F.W ^ ( (.'.[.].{.|.|.|.|.|.|.0.6.' 5.3.{.].`.(./.K.J.W.E.M.n.v.c.c.z.e > h.h.U U I I , I P P ",
"K I L L $.H &.&.j.k.5 x.f.b.f.V.D.F.W ^ T.'.'.[.6.}.}.|.|.' |.|.0.6.' 0.4.).].].'.T.^.~.Q.W.M.n.v.v.z.z.> > h.h.%.U I I $ P P P ",
"K L I I $.&.&.&.j.z.u x.x.b.f.V.D.G.! / R.'.].].}.|.|.|. X6. X|.|.0.9.0.5.3.].].'.R./.^.Q.W.M.m.n.v.c.O.e > h.G G U I I $ P P P ",
"B I F I $.%.&...j.o.u  .v.t.m.V.D.G.B.( R.'.[.{._.}.' _. X X X_._.0.6.0.' 3.U.].'.`.K.^.Q.Q.M.y.r.v. .O.4 4 J h.U U I F , P V P ",
"K S I F G $.J &...o.5 u #.n.u.E.D.G.W ( R.'.].{.}.}.6.' 0.9.6.w.9.9.6.0.' ' <.U.'.R.Y.K.N.a.i.m.n.r.@.e 4 4 h.J H F F I % F P B ",
"A S F F G H J ....o.r 5 t t.y.i.D.H.T ( R.U.].{.{.}.|.0.6.] 0.0.6.|.6.9.0.5.1.>.'.R.Z.C.N.p.p.y.d.t e u e 7 J H G F F F $ o B B ",
"O + # < % ; ; - 4 5 u u r s s k k R ! / ) _ >.1.3.5.8.' 0.0.6.' 0.' 6.6.' 4.2.>.;.( ~ W x x j g a t e z.j.4 = * @ + O # $ X . . ",
"# # % % * * : > > e e u r g h d k z W / ( :.>.<.' 6.8.8.] 0.6.' 0.' 0.0.0.3.2.<.:.) ^ ! E x l j g p u z.l.J : % + ; # O $ $ # . ",
"P I I % % * ; > l.l.z.z.v.b.m.V.D.G.H./ ) ;.,.<.3.}.}.}.8.0.' ' 0.6.9.6.).3.<.>.'.R.^.^.Q.W.M.n.a p i O.o.: : ; %.U I I P P P P ",
"K I I % % * ; : h.l.O.x.v.b.y.g.S.D.G.K.(.) :.<.{.{.}.}.|.] 0.0.0.' 0.6.3.1.<.'.`.K.] ~.W.E.m.n.v.c.e 4 > > : h.U U I I P P K K ",
"K A S I < ; ; &.h.k.l.x.c.v.n.f.S.D.G.K./.) :.,.U.{.0.0.0.] q.6.6.0.' 6.6.<.>.'.(.^.~.Q.W.E.M.b.v.c.z.e e > h.U %.U I I F P K K ",
"K I L I + @ ; &.h.r.z.z.x.v.f.f.m.D.F.G.K.T.) :.I.].w.] q.q.7.] 0.0.6.6.' ,.;.(./.^.~.Q.M.M.M.b.v.x.l.e e : h.h.U F I I P A P K ",
"I K I S % % ; H h.J j.z. .c.v.f.m.E.W.G.K.K.( ;.'.[. Xq.[ q.7.[ 7.' 6.' 6.:.) (.^.~.!.W.M.M.b.v.v.x.l.e > > U =.U I I I P P P P ",
"K K S S % * ; H J l.X.o.+. .#.t.m.m.D.Q.G.K.^ ( L.Z Z M N m b m q 6 9 < < 8 ) ^.~.!.Q.E.M.n.b.v.@.z.X.e > : H U F U P P P P K P ",
"K A I A % % * % H J X.4 5 5 r y t.m.M.W.F.G.W / A.[.{ N ` ` b v q 6 9 < < / / ^.!.Q.W.M.c.n.v.r.@.O.> > > : @ G I F P F P B K V ",
"B A A O % % % @ @ & - - 2 2 w t y y.M.i.i.x E ! Q L.].} } N b v 7 0 6 < C.! R R z f i.u.t.v.r.O.o.2 - > h.U ; + F F A B B B B V ",
".   . X $ % % & @ = = j.k.z.x.e t p p g j x E E T Q ( ;.N N M v q 0 < W W W W R k d s g y t w e 2 - l.h.h.U * $ O . X X X . . , ",
"O # # $ $ % % % ; = h.h.X.k.z. .p a g j j l x x E ! ! / N M M c 6 6 1 W E R x x s g s y t u w e e > h.h.h.U U % $ $ X X . . . . ",
"K K P P P I L L ; ; & J ....- e u i v.n.n.m.M.E.Q.F.!.~.N b n 0 0 9 < Q.W.E.E.m.M.M.v.v.c.i e e > > h.h.U h.U ; $ , # # # P K K ",
"K K K K K I I L U ; ; & ; = > e u c.c.v.v.n.m.m.M.E.W.F.n n c 9 8 < < E.E.m.m.m.M.v.v.c.x.l.l.e > > h.U U U F , # # K K P K Y K ",
"V K P P K I I I I *.*.-.: : e h.l.z.c.c.r.v.n.n.n.m.M.M.C c c 8 8 < < M.m.n.n.b.v.c.x.h.z.l.l.h.> : G h.I U * , $ P K Y Y K K Y ",
"B B K K K I I I I U %.=.h.: : l.j.z.z.x.c.c.v.v.v.M.n.n.C c 8 8 < < < n.n.n.v.v.c.c.z.l.l.l.h.h.: ; % U U F $ $ P P K K K Y Y K ",
"K K K K K P P I I U *.*.G : : h.j.j.l.z.z.c.c.v.v.v.v.v.b.b.< < 1 z.n.v.c.v.c.c.x.z.z.l.l.l.h.h.h.; $ U I I I , P P K Y K K K Y ",
"P P K K K K P P A I F I F ; : * J h.k.l.k.z.z.x.c.c.c.c.c.v.8 8 8 i #.x.c.c.z.z.z.l.l.l.J J J h.G * % F F P P # A P K V V Y V V ",
"K B V K B K P A A F F F + @ ; @ ; J h.J X.l.z.z.z.x.r.z.z.r.C 8 8 e e @.z.z.O.z.l.X.h.J h.J H G $ % % U F A F # A V B V V V V V ",
"V . . B B B A . X X X O + % * * @ & = = = : - 4 3 3 4 e e w c 8 8 w 4 2 2 2 > > - = = ; & @ ; $ + % % D B A . # . . . . . . . . ",
". . . . . . .   X X X X % % % ; ; % %.h.= = > 4 - 7 l.l.l.l.n c 8 7 5 5 - - - ; = ; = % @ @ + $ % % %       . , # . . . . . . . ",
". , , , , . . , # $ # + $ % % @ % * G G ; ; : > : > J h.l.J C c 8 > > > : > ; : : = ; ; * < % % % % #   . . . . , , , , . , , . ",
"K , , , , o K P P P P P P P I I U % < ; ; ; -.-.: : > J : : c 8 8 h.h.h.h.h.h.h.%.%.=.U % $ % % P P P P K K Y Y K , , , Y Y Y Y ",
"Y K Y , , Y K K K K P P P P I I I I % * * *.%.U h.=.; ; ; h.c c 8 U h.h.U %.U U U U U I Y % # # U P P P K K Y K Y K , Y Y Y Y Y ",
"Y Y K , , K K K K P P P P P P P P I *., % U U U U U ; ; ; =.C 8 8 h.U U U %.%.U F F F I I $ % P Y P P P Y K K Y K Y , Y Y Y Y Y ",
"Y K Y , , Y K K V K K V K K K K K A I $ % I I I I I *.* * U c c 9 I U U F F F I I L P K K Y , Y K K K K Y K Y Y K V , Y Y Y Y Y ",
"Y Y V , , Y Y V V K K K K K K K V P P $ $ A S I F I I % % I c 8 9 U I I I I I P P I P Y K Y , V K Y B B K K K V Y V , Y D D Y Y ",
"Y V V , , V V Y K V K V V B Y V K V V , # A I A I A F % % F C 8 9 A I A I S A S P S K V V V , . B V Y K V Y V Y V V . D Y Y D D ",
"D V . , , . V D V V V V B V V V V V . , # X A A A A O , # o C c 9 S A S A D S S A A V V , . , , . V V V V D V D . . , . D D D D ",
". . , , , . . . . . . . . . . . . . . , , . . . , . o , $ o C c 8 . . o . . . . . . . # . Y Y . . . . . . . . . . , , , , . . , ",
". . , , , , , . . . . . . . . . . . , , , , . . . . , , # # c 8 8 . . . . . . . . . . # Y Y V . , , . . . . . . . , , , . . . . ",
"Y Y Y Y Y Y Y Y Y Y Y , , , . . K D K Y Y Y , , # , P K P K C 8 8 P P P K K Y K K K # , D D , , K Y Y Y K . , , , , , Y Y Y Y Y ",
"Y Y Y Y Y Y Y Y Y Y K Y , , , Y Y K Y Y K Y , , # I K K P Y c c 8 Y P P Y K K K K Y K , , , , Y Y Y Y Y Y Y , , , , , Y Y Y Y Y ",
"Y Y Y Y Y Y Y Y Y Y Y Y Y , , Y Y Y D Y Y Y , . . Y K K K K c c 8 P K K Y K Y K Y Y Y D , , , Y Y Y Y Y Y Y Y , , , Y Y Y Y Y Y ",
"Y Y Y Y Y Y Y Y Y V Y Y Y , , Y Y Y Y Y Y D Y , Y K Y V Y V B 8 8 K Y K K Y V V Y Y Y Y Y , , Y Y Y Y Y Y Y Y , , Y Y D Y Y Y Y ",
"Y Y Y Y Y Y Y D Y D Y Y Y . , Y Y Y Y Y Y Y Y , V Y Y K V V < 8 8 Y K V Y Y Y Y Y Y Y Y Y , Y Y Y Y Y Y Y Y Y , , Y Y Y Y D Y Y ",
"Y Y Y Y Y Y Y Y Y Y Y Y Y , , D V V Y Y Y D V . . Y V Y K Y Y Y Y K Y Y Y K Y Y Y Y Y Y Y , Y Y Y Y Y Y Y Y Y , , D Y Y Y D Y Y ",
"Y Y Y Y Y Y Y Y D Y D Y D , , D Y Y D D D Y Y , . V Y V Y Y Y Y Y Y Y Y K V Y Y Y Y D Y D , D D Y Y Y Y Y Y Y , , . D Y Y Y Y Y ",
"Y Y Y Y D D Y D Y D D D . , , D D D D D Y D D , . V D V Y V Y Y V V Y D V Y V Y Y D D D . , . D D Y D D D Y D , , , . D Y Y Y D ",
"D D D D D D D D D , . . . , , , . . . . D D . . , . . . D V D D V V D D D D D D D . . , . , . . D D D D D D . . , , . D D D D D ",
". . . , . . . . . . . , , , , . . . . . . . . , , , , . . . . . . . . . . . . . . . . , , , , , . . , , . . . , , , . . . . . , "
};
