/* XPM */
static char *result[] = {
/* columns rows colors chars-per-pixel */
"64 64 188 2 ",
"   c #1D1C17",
".  c #1A1A19",
"X  c #201F17",
"o  c #201F1C",
"O  c #242216",
"+  c #2A2616",
"@  c #2E2916",
"#  c #23221E",
"$  c #29261D",
"%  c #2D2A1C",
"&  c #332D16",
"*  c #322E1C",
"=  c #373016",
"-  c #3C3316",
";  c #36311C",
":  c #3B351C",
">  c #3F381C",
",  c #212121",
"<  c #3E2723",
"1  c #3F2823",
"2  c #403717",
"3  c #443A16",
"4  c #493D17",
"5  c #433B1C",
"6  c #493F1C",
"7  c #432B23",
"8  c #4D3323",
"9  c #4E342E",
"0  c #51362E",
"q  c #55392E",
"w  c #4E4116",
"e  c #4D421B",
"r  c #544516",
"t  c #564817",
"y  c #5C4C16",
"u  c #52461C",
"i  c #55491C",
"p  c #5B4C1C",
"a  c #5F511B",
"s  c #604E1C",
"d  c #645216",
"f  c #6A5616",
"g  c #6D5916",
"h  c #63521B",
"j  c #6A561C",
"k  c #6C591B",
"l  c #745D16",
"z  c #725D1B",
"x  c #795F19",
"c  c #7C6217",
"v  c #76601A",
"b  c #7B621B",
"n  c #5D402E",
"m  c #5D4037",
"M  c #66462F",
"N  c #6C4B2F",
"B  c #74502F",
"V  c #634537",
"C  c #6B4B38",
"Z  c #745238",
"A  c #7B5738",
"S  c #5E5956",
"D  c #5E5B5A",
"F  c #6D4C41",
"G  c #704E41",
"H  c #6B5F4F",
"J  c #7B5741",
"K  c #635B53",
"L  c #695E51",
"P  c #615E5E",
"I  c #6F614E",
"U  c #74654E",
"Y  c #79674D",
"T  c #7C6A4D",
"R  c #6C6151",
"E  c #736450",
"W  c #786850",
"Q  c #6F6D6B",
"!  c #746E66",
"~  c #786F64",
"^  c #716E6B",
"/  c #767066",
"(  c #7B7264",
")  c #72706E",
"_  c #737373",
"`  c #826616",
"'  c #866916",
"]  c #8B6C16",
"[  c #81661B",
"{  c #86691B",
"}  c #8C6D1B",
"|  c #916F1C",
" . c #947216",
".. c #9B7616",
"X. c #9D7816",
"o. c #93721B",
"O. c #9A761B",
"+. c #9D781B",
"@. c #A77D16",
"#. c #A37B1B",
"$. c #AB7F1B",
"%. c #835D38",
"&. c #8B6338",
"*. c #FF5622",
"=. c #FF6323",
"-. c #FF6923",
";. c #845E42",
":. c #8B6342",
">. c #826D4D",
",. c #976C42",
"<. c #86704D",
"1. c #8B734B",
"2. c #91774B",
"3. c #94794B",
"4. c #9B7D49",
"5. c #85775F",
"6. c #87785F",
"7. c #8D7C5F",
"8. c #927E5E",
"9. c #827663",
"0. c #857962",
"q. c #8B7C61",
"w. c #917F60",
"e. c #AD8116",
"r. c #AD821A",
"t. c #B28316",
"y. c #B2841B",
"u. c #BA8719",
"i. c #BD8A1B",
"p. c #C68E16",
"a. c #FF9900",
"s. c #FFA000",
"d. c #FFC107",
"f. c #FFCC07",
"g. c #FFD308",
"h. c #96825E",
"j. c #9B855E",
"k. c #9F885E",
"l. c #AC8747",
"z. c #A38249",
"x. c #AA8749",
"c. c #B38B47",
"v. c #B88D46",
"b. c #B28B48",
"n. c #BE9346",
"m. c #B79048",
"M. c #A0875B",
"N. c #A38A5C",
"B. c #AA8E5B",
"V. c #AD915C",
"C. c #BA9657",
"Z. c #BE9A57",
"A. c #B3945A",
"S. c #B99759",
"D. c #B7985C",
"F. c #BC9A5A",
"G. c #938261",
"H. c #988460",
"J. c #C39546",
"K. c #CA9A45",
"L. c #C49848",
"P. c #D19F46",
"I. c #C49E57",
"U. c #C29D59",
"Y. c #DBA544",
"T. c #DBA745",
"R. c #CCA357",
"E. c #C5A05A",
"W. c #CAA459",
"Q. c #CCA659",
"!. c #D1A656",
"~. c #D5A956",
"^. c #DBAD56",
"/. c #D3AA59",
"(. c #D5AB59",
"). c #DFB056",
"_. c #E5AB44",
"`. c #EFB143",
"'. c #E1AF55",
"]. c #E4B355",
"[. c #EAB553",
"{. c #EDB953",
"}. c #F1BC52",
"|. c #F5CB4F",
" X c #FBCE4D",
".X c #F3C451",
"XX c #F6CB51",
"oX c #FBC854",
/* pixels */
"# o , # o o o # # O + % % * * : 2 5 6 6 6 i i p s s s s h h h h j j j j j s p n e e 5 5 : - ; * * % $ $ # # # # # o # o , , , , ",
"Q Q Q Q Q Q ! ! ~ / ~ ( % * * * ; ; q.q.8.8.6 6 6 6 8.M.k.e u r p p a D.V.V.k.k.h.8.7.: : ; ; * * ( ( ~ ~ ^ / Q Q Q o o , o o ) ",
"Q Q S Q Q ! ^ ~ ~ ~ ( ( 9.* ; ; 2 w.8.8.8.8.8.6 4 M.N.N.N.N.t p s D.F.U.f.s.V.N.j.h.8.7.> ; : ; 9.( ( ( / ! ! ^ Q Q Q # , , _ Q ",
"Q Q Q ! ! ! ! ~ ~ ( H R 9.0.; > 8.8.8.8.M.M.N.t p B.B.B.V.B.h h D.U.W.Q.*.E.D.V.N.k.h.h.q.5 ; 0.9.9.( ( ( / ~ / ! ! Q ^ # , Q D ",
"Q ! Q S ! ! ~ ~ / ( W 9.5.6.- 2 8.8.2.M.M.M.N.p s B.B.A.A.A.j j l.E./.(./.Q.*.V.B.k.j.h.8.5 5 0.0.9.9.( ( ( ~ ^ ! Q Q Q Q , Q _ ",
"Q S ^ ^ ! ! ~ ( ( 9.0.U 6.T 2 5 w.1.M.M.B.B.4.s h A.A.S.C.C.k z E.C.*.*./.E.U.D.V.N.k.k.j.6 5 7.7.0.9.9.( ( ( / ! ! ! ^ Q o D S ",
"S ! S E S E K ( L 9.U 5.Y = : h.4.M.M.B.B.B.V.A.j C.C.U.U.U.l x m.Q.a.d.d.W.U.D.A.B.N.N.1.e 6 >.8.Y 0.9.9.( ( / / ! Q S Q o S S ",
". S S K K H L L E E Y T = - 6 j.M.M.B.B.B.C.S.S.z I.I.I.I.I.[ [ c J.a.Q.Q.C.E.D.z.V.4.B.2.e e >.>.T 0.Y U ( R ( / / K ^ S , . S ",
". .   o X X X O + @ & = = 6 8.2.M.B.B.A.C.C.L.U.c I.I.R.R.n.{ { c c L.L.n.Q.m.l.S.z.A.4.3.r e 3 <.T Y Y U ( ( R K K K ^ S o .   ",
".   ! ! ~ ~ 9.+ + & = = 3 6 2.N.B.A.4.Z.C.I.I.I.{ !.~.~.^.] o.o. .] ' ' J.n.m.m.l.l.z.y t u i 5 2 - = = & I I R L K K K   # . . ",
"# # ! / ~ W 9.5.5.q.8.8.6 e ,.B.V.4.C.l.I.v.I.J.{ ^.^.^.^. .O.O.O.O.d.a.' ` c b l g f j h B.N.N.j.h.> > & @ + + O O       # o . ",
"# K / K ( 9.9.9.Y 7.8.8.6 u 3.4.4.z.l.c.I.v.K.K.o.P.].].Y.@.#.@.r.#.a.].d.s.] b c l g k z.A.B.N.j.j.<.T = & @ $ O O % # # # # o ",
"# K K / ~ 5.5.5.6.>.>.j.e u r t z.l.c.v.I.K.K.] O...Y.Y.r.r.r.y.r.*.d.d.a.a.^.} { c b z j z.4.3.2.1.<.5 : : ; * % % $ # # # o # ",
"# O K H H H H Y Y 8.8.1.u i t y d f v n.K.K.] ..#.@.@.e.t.i.i.*.*.d.d.a.*.d.P.o.| { [ b z j h p i u e e > : ; ; % % % $ $ # # # ",
"!     O + + @ & T >.<.3 r t V.C.f g l c ' ]  .@.{.}..X.Xa..Xd.d.a.d.a.a.a.a.a.g.^./.R.E.Z.F.A.V.B.k.h.6 > : 0.0.( ( / $ $ # ^ Q ",
"! ! ( ( ~ 5.@ & = - 3 4 i B.V.C.Z.b { } o...[.{.}.}..X|.*.XXa.d.a.*.d.d.a.*.a.s.).^.!.W.U.F.D.B.B.N.j.G.e > 0.0.0.( / / $ # ^ ^ ",
"! W ~ ( ( 5.5.- 2 5 6 u B.B.A.C.I.I.{ | ..#.[.}..X|.|.|.|.|.a.a.a.d.d.*.d.d.a.{.].^.~.W.E.F.D.V.B.N.k.G.> > 0.0.( ( / / , ) ) Q ",
"! ) ~ ( ( 5.6.7.8.6 e N.B.V.C.C.I.I.{ o.O.[.}.}..X*..Xd.|. X Xa.d.d.*.*.*.d.*.d.[.].(./.W.E.C.A.V.N.k.j.e > G.9.0.( ( ( % / ^ ^ ",
"! / / ( ( U 6.7.8.8.u M.B.A.C.C.I.!.] o.[.[.}..XXXd.d.d.*. X X Xd.d.a.d.d.a.a.d.d.].(.~.W.I.C.D.V.V.N.j.5 > q.0.0.9.( ( O ^ ^ ^ ",
"! / ( ( 5.9.7.7.8.j.e B.B.V.C.U.I.!.| ..[.{.}..XXXd.*.d.*.a. X Xd.d.*.d.a.d.a.d.*.d.).(.W.E.F.D.V.V.H.2.e > G.W R ( ( / $ / / ^ ",
"K ! L 9.( 5.7.T 8.1.6 3.V.4.C.U.I.!.K.O.[.{.}..X|.*.d.a.*.*. X X*.d.d.*.*.a.s.a.{.d.).~./.E.C.x.z.N.2.1.e > Y 0.( ( ( K $ / S ^ ",
"! L ~ L H 5.Y 7.>.1.u 4 4.A.x.U.R.!.] O.[.{.}.|.XXd.d.a.*.d.d.d.d.d.*.d.a.a.g.d.a.].).(.n.m.b.D.V.z.2.e - 5 G.Y U I R / $ S / S ",
"K K L L H U Y >.>.1.r 4 t 4.l.c.I.!.] ..[.}.}.|. Xd.s.d.*.d.a.d.a.d.a.d.d.d.a.d.a.].Y.J.J.m.b.x.z.t w u e > T U U I I R $   S S ",
"# + + * * * : : 5 6 r t r d d g l ` | ..X.@.t.i.p.*.-.d.a.a.d.a.*.d.a.d.d.a.d.*.*.+. .' c l g h i t w j.h.e ; & @ + O # $ X     ",
"# O % % % ; - : 5 e e u r d f f l c | ....r.t.i.*.*.d.d.d.d.d.a.a.d.d.a.*.d.*.y.r.+.O.} [ b k k h p u j.G.T > % @ * $ O $ $ # . ",
"~ / ( % % ; ; > 8.h.j.N.V.V.C.Z.I.R.~.o.+.$.y.i.d.d.d.d.*.d.d.a.*.*.a.*.d.*.a.d.{.).^./.W.E.F.D.h p i 1.<.- : : 0.( ( ( / ^ ^ ^ ",
"! ~ / % * ; ; : 8.h.1.N.N.V.z.C.I.R.!.^.'.#.y.u..X*.*.d.d.d.a.a.a.a.*.d.*.d.d.*.[.)././.E.E.C.A.V.N.u 5 2 5 ; 0.( ( ( / / / ^ ^ ",
"! K L ( % ; ; q.7.8.j.k.N.B.C.C.U.I.R.~.^.#.$.y.`.XXXXd.f.f.s.d.d.a.a.d.d.*.y.[.).).~.Q.E.F.D.A.V.N.H.e e > G.0.9.( ( / S ^ ^ ^ ",
"Q ! W ( , ; ; 0.7.8.h.k.M.B.A.C.Z.I.R.!.^.].#.$._..XoX=.=.f.f.a.s.d.s.*.*.d.$.].)./.!.E.U.F.A.V.N.N.H.e 5 : 0.0.( R ( / / S ^ Q ",
"! ~ ! H % ; ; Y 7.>.h.k.2.B.V.C.C.U.E.R.!.^.+.@.{.oXoXg.-.g.-.=.s.s.g.*.*.*.#.'.^./.Q.E.U.S.V.V.N.H.H.e 5 > 0.9.( ( / / / ^ ! ) ",
"Q ! K H % * ; Y T 8.>.1.1.3.4.4.S.C.I.W.!.~.o.+.T.J ;.:.%.B N Z m 7 9 7 7 9 +.(.~.Q.E.U.D.D.V.V.3.H.<.e > : E 9.R ( / / / ) Q Q ",
"Q K ! K % % * % Y T >.2 4 4 r y z.S.Z.E.W.Q.| O.T..X;.%.&.&.B M m 7 9 < < +.o.(.Q.W.E.F.x.V.V.h.2.1.> > > : % E ( R / S / S Q S ",
"S K K O % % * @ & & - - 2 4 w r y z.C.l.m.b { |  .T.oX,.,.&.B M 8 q 7 < K.| ` ` l l l.x.z.V.3.2.1.5 - 5 G.( * + R R R D S D S S ",
".       % % % * @ & & h.j.j.M.r t y d f g b b ] ]  .X.r.%.&.A n n q 1 ] { } { [ l g f d y u w w 4 - G.G.0.G.* $ O   X     . . X ",
"# # # $ O % % % * : 7.7.>.j.j.2.i a h j k v b b { }  .O.Z Z Z m 7 7 1 } { [ b x g d a p t t w 5 e 5 q.0.( ( ( % %       .   . . ",
"Q Q ! ^ / ( ( ( * ; & T T >.2 4 u p V.V.A.C.Z.F.E.Q./.^.J C C q q 0 1 E.U.U.U.F.D.D.V.V.N.u e e 5 > G.0.G.( ( % $ $ $ , # Q Q ) ",
"Q ! ! ! ! ~ / ( ( * : & = - - e e N.N.V.V.V.S.C.F.U.E.E.C V q q 0 1 1 U.F.F.D.A.V.V.B.N.k.H.h.> > > 0.0.0.( R % $ $ ^ ^ ^ Q Q ) ",
"S Q Q ! ! ~ / ( ( 9.9.6.: 5 4 G.j.j.N.N.4.V.V.A.D.D.F.U.G m m 0 0 1 1 F.F.D.V.V.V.V.k.2.j.j.G.G.> : U 0.( ( * , $ ) ^ ^ ^ Q ) ) ",
"S S Q ! ! ! ~ ( ( ( 5.9.0.: > h.h.h.j.k.N.N.B.B.V.V.V.D.C m 9 9 < < 1 V.V.V.V.B.B.N.k.j.G.G.0.G.: ; @ ( ( R % % ^ ^ Q Q Q ) ) ) ",
"Q Q Q Q ! ^ ! ~ ( ( ( 9.E ; : 7.G.j.G.H.k.k.N.B.B.V.V.V.V.V.< < < j.V.V.V.B.N.N.H.k.H.H.G.G.G.G.0.; % ( ( ( / , ^ / Q Q ) ) ) ) ",
"Q Q Q Q Q Q ^ ~ L / H ( I ; ; & T 7.8.h.h.j.j.k.N.N.N.B.B.B.9 9 9 t 3.N.N.k.k.j.j.G.h.G.W W U 0.R * % R R / ) # S Q Q S S Q D S ",
"Q S S ! S R ^ K K L L L + * ; @ = T h.T <.h.j.j.k.k.2.k.k.2.F 9 9 4 r 2.k.j.1.j.G.<.G.T G.W U U @ * % ( K K K $ S S S S S S D D ",
"S . . S S S S     O O O O % * ; @ @ = ; = - : 2 > 2 4 4 4 w m 9 9 3 3 3 3 3 - : = = = = & @ ; @ $ @ % K S K   ,   . . . . . . . ",
". . . . . .       X     % % * * ; @ 0.q.= - > 5 - 6 G.G.h.h.F m 9 6 6 6 > - - - = = & * @ @ @ % % % $ X X     # #   . . . . . . ",
". o o , # . . # # # O $ $ % % % % ; E E ; - : : > > T G.q.>.F m 9 5 8 > > > > : : - ; ; * * * , $ , % X . . . # , , , , , , , , ",
") , , # o o Q Q ! Q ) / ! / ( ( ( % * ; ; ; 0.0.: : : W > > m 9 9 q.q.q.G.0.( G.0.( 0.( ; , % * / / Q / Q Q Q ) Q , , , ) ) _ ) ",
") ) ) , # Q Q Q Q ! ! ^ ! ! ~ / ( ( % % ; 9.9.9.9.0.; ; : 0.m m 9 0.0.0.( G.( 0.( ( ( ( ( * , , / / ^ ^ Q Q Q ) Q ) , Q ) _ _ _ ",
") _ _   # Q ^ Q Q Q Q Q ! ^ ) / / / ( % % ( ( ( 9.9.; ; ; 9.F 9 9 9.9.9.( ( ( ( R R R ( / , % / ^ ) ^ ) Q ) Q Q ) ) , _ _ _ _ _ ",
"_ ) ) , , Q Q Q D Q Q S Q Q Q Q / K / $ $ ( / ( ( ( ( * % 9.m m 0 ( ( ( R R L ( ( ( ! ! ^ ) , Q ^ Q Q Q Q Q _ _ Q D , _ _ _ _ _ ",
"_ ) D , , Q _ D D Q Q Q Q Q Q ! S / / $ $ K R / R / ( % % ( m 9 0 ( ( ( / ( / ( ! / / ^ ^ Q , D Q ^ S S Q Q Q D _ D , _ D P _ _ ",
"_ P D , , D D Q Q S Q S S S Q S ! S S # # K / L / K L $ $ L F 9 9 R ) K ) L K K ^ K ^ K D S , . S S Q Q D Q D Q D D , D _ _ P P ",
"P D . , , . D D D D D S S S S S S S   , # X S K K K X $ $ # F m 9 K R K K S K K K K K K o , , , . D D D D D D D . . , . P P P P ",
". . , , , . . . . . . . . . . . . . . , , . . . #     O $   F m 9           . . . . . , . _ Q , . . . . . . . . . , , , , . . , ",
". . , , , , , . . . . . . . . . . . , , , , . .     # # , $ m 9 9               . .   , Q Q D . o o . . . . . . . , , , . . . . ",
"_ _ _ _ _ _ _ _ Q ) ) , , ,     Q Q Q Q Q Q . , o # Q Q ^ Q C 9 9 ^ Q ^ ^ ^ Q Q Q Q , # D D , . ) ) _ _ ) , , , , , , _ _ _ _ _ ",
"_ _ _ _ _ _ _ _ _ _ _ ) , o , ^ _ Q _ Q Q Q , , # Q Q ) ^ ) m m 9 ^ Q ) Q ) Q ) Q _ ^ , , , , _ _ ) _ ) _ _ , , , , , _ _ _ _ _ ",
"_ _ _ _ _ _ _ _ _ _ _ _ _ , , ) _ Q _ Q Q _ , , , Q Q Q Q Q 0 S 9 ^ ) Q ) Q ) ) Q _ Q _ . , , _ _ _ _ _ _ _ _ , , , _ _ _ _ _ _ ",
"_ _ _ Q _ _ _ _ _ D _ _ _ , , _ Q Q Q _ _ Q Q , Q Q _ D _ D F 9 9 Q ) Q ) ) D D _ Q _ Q _ , , _ _ _ _ _ _ _ _ , , _ _ P _ _ _ _ ",
"_ _ _ _ _ _ _ Q _ P _ _ _ , , _ _ _ _ _ Q Q _ , D _ Q Q D D 1 9 9 ) ) D Q Q Q ) _ Q _ _ _ , _ _ _ P _ _ _ _ _ , , _ _ _ _ P _ _ ",
"_ _ _ _ _ _ _ _ _ _ _ _ _ , , D D D Q _ _ D D , . Q D _ _ Q Q Q _ Q ) _ _ _ _ ) _ _ _ _ _ . _ _ _ _ _ _ _ _ _ , , P _ _ _ Q _ _ ",
"_ _ _ _ _ _ _ _ P _ P _ P , , P _ _ D D P _ _ , . D _ D _ _ Q _ _ _ _ _ _ D _ _ _ _ P _ P , P P _ _ _ _ _ _ _ , , . P _ _ _ _ _ ",
"_ _ Q _ P P _ P _ P P P . , , P P D P P _ P P , , D D D _ P _ _ D D _ D D _ D _ _ P P P . , , P P _ P Q P _ P , , . , P _ P _ P ",
"P P P P P P P P P , . . . , , . . . . . P P . . , . . . P D P D D D D P P P P P P . . . . , . . P P P P P P . , , , . P P P Q P ",
". . . , . . . . . . . , , , , . . . . . . . . , , , , . . . . . . . . . . . . . . . . , , , , , . . . . . . . , , , . . . . . . "
};
