/* XPM */
static char *result[] = {
/* columns rows colors chars-per-pixel */
"64 64 187 2 ",
"   c #1C1C17",
".  c #1A1A19",
"X  c #201F16",
"o  c #211F1F",
"O  c #242216",
"+  c #2A2615",
"@  c #2E2916",
"#  c #23221E",
"$  c #28261C",
"%  c #2D2A1C",
"&  c #332D16",
"*  c #322E1B",
"=  c #373015",
"-  c #3C3315",
";  c #36311B",
":  c #3B351B",
">  c #3F381B",
",  c #212121",
"<  c #3E2723",
"1  c #403716",
"2  c #443A15",
"3  c #493D16",
"4  c #433B1B",
"5  c #483F1B",
"6  c #432B23",
"7  c #4E342E",
"8  c #51362E",
"9  c #55392E",
"0  c #5B3E2E",
"q  c #4E4115",
"w  c #4D421A",
"e  c #544515",
"r  c #564815",
"t  c #5C4C15",
"y  c #52461A",
"u  c #55491A",
"i  c #5B4C1A",
"p  c #614E1B",
"a  c #645215",
"s  c #6A5615",
"d  c #6D5915",
"f  c #63521A",
"g  c #6A5719",
"h  c #6C591A",
"j  c #755D15",
"k  c #795F15",
"l  c #735D19",
"z  c #785F19",
"x  c #7D6315",
"c  c #7B6219",
"v  c #5D4037",
"b  c #66462F",
"n  c #6C4B2F",
"m  c #74502F",
"M  c #634537",
"N  c #6B4B38",
"B  c #745238",
"V  c #7B5738",
"C  c #5D5753",
"Z  c #5D5855",
"A  c #5E5B5A",
"S  c #6D4C41",
"D  c #704E41",
"F  c #60574F",
"G  c #655A4F",
"H  c #6A5D4E",
"J  c #765B46",
"K  c #625A51",
"L  c #665B50",
"P  c #615E5E",
"I  c #6E604E",
"U  c #74634C",
"Y  c #7A664A",
"T  c #7D694A",
"R  c #796F5F",
"E  c #7D715E",
"W  c #6F6B67",
"Q  c #6F6D6B",
"!  c #736D64",
"~  c #796F61",
"^  c #706E6C",
"/  c #777063",
"(  c #7B7161",
")  c #70706F",
"_  c #747373",
"`  c #826515",
"'  c #866815",
"]  c #8B6B14",
"[  c #826519",
"{  c #866919",
"}  c #8C6C19",
"|  c #936E16",
" . c #916F19",
".. c #947215",
"X. c #9C7615",
"o. c #947219",
"O. c #9A7519",
"+. c #9F7818",
"@. c #A67C15",
"#. c #A37A19",
"$. c #AB7D19",
"%. c #835D38",
"&. c #8B6338",
"*. c #FF5622",
"=. c #FF5A22",
"-. c #FF6222",
";. c #FF6923",
":. c #845E42",
">. c #896945",
",. c #896F47",
"<. c #836C49",
"1. c #976C42",
"2. c #8D7146",
"3. c #8C7249",
"4. c #937546",
"5. c #967846",
"6. c #9C7B45",
"7. c #947748",
"8. c #83755E",
"9. c #88775B",
"0. c #86785E",
"q. c #8C7A5C",
"w. c #937D59",
"e. c #987F58",
"r. c #A37E44",
"t. c #817560",
"y. c #AD8317",
"u. c #AE8018",
"i. c #B38115",
"p. c #BE8817",
"a. c #B48219",
"s. c #BB8619",
"d. c #C78C18",
"f. c #FF9900",
"g. c #FFA000",
"h. c #C9953F",
"j. c #DDA33F",
"k. c #E7A93E",
"l. c #EDB13D",
"z. c #FFC107",
"x. c #FFCD07",
"c. c #FFD308",
"v. c #9D8257",
"b. c #96805A",
"n. c #9B8359",
"m. c #A68144",
"M. c #AC8443",
"N. c #B28742",
"B. c #B68A42",
"V. c #BB8C41",
"C. c #BE9042",
"Z. c #A28656",
"A. c #A68956",
"S. c #AC8C55",
"D. c #A18658",
"F. c #A48958",
"G. c #A88C58",
"H. c #B18E53",
"J. c #AF9056",
"K. c #B49154",
"L. c #BB9553",
"P. c #BE9854",
"I. c #C39141",
"U. c #CA9A46",
"Y. c #CB9D4F",
"T. c #D39D40",
"R. c #C09751",
"E. c #C49B52",
"W. c #CA9E51",
"Q. c #CFA04F",
"!. c #DAA341",
"~. c #D5A44F",
"^. c #D9A74F",
"/. c #DCA94E",
"(. c #CDA151",
"). c #D3A451",
"_. c #D7A751",
"`. c #DBA950",
"'. c #E4AD4D",
"]. c #E9AF4C",
"[. c #EBB34C",
"{. c #EEBA4A",
"}. c #F3BF47",
"|. c #F1BC4A",
" X c #E0AC50",
".X c #F6BD50",
"XX c #F5C349",
/* pixels */
"o # o # X o # X $ # $ % % * & : 1 4 4 5 5 y r i i p p p f f f f p p p p i r u y w 5 4 4 : : : * % % $ $ $ # # # o # , # , , o o ",
"Q Q W W W W ! ! ! ~ ~ ~ % * * ; ; - 9.w.w.w.5 5 5 5 e.e.v.q y y w y y e.e.e.w.w.w.w.q.: : : ; * * ~ ~ ! ! ! ! ! W W ,   # o   _ ",
"Q W C W P ! W R ! R R ~ E * ; ; - q.w.w.w.e.e.5 5 Z.Z.Z.Z.A.u i u Z.Z.Z.D.e.e.n.w.w.q.w.: : : & 8.( ~ ~ ! ! ! ! W Q Q # o , ) ) ",
"W W W W W W R W R ~ H J 8.8.: : 9.w.w.e.e.e.Z.r i A.A.S.S.S.i i S.A.A.A.A.Z.D.D.n.e.e.w.q.: : 8.t.t.( ( ( ! ! ! ! ! W Q # o Q A ",
"Q W W C ! ! R R R R R 8.8.9.- : w.w.,.e.Z.Z.Z.r i H.S.S.H.H.f f r.H.H.H.S.A.A.Z.D.e.n.e.w.4 1 9.8.8.8.~ ~ ~ ! ! ! W W Q W , Q ) ",
"W C W ! W R R R R R 8.U 9.Y > 4 e.2.e.A.Z.A.6.a f H.H.L.H.L.h h L.r.H.r.H.H.S.S.A.Z.Z.e.w.5 4 q.9.9.t.t.E ~ ( ! ! ! ! Q W o Z Z ",
"C W C ! F R G R J E U 9.T = - b.e.e.Z.m.S.S.H.H.s L.L.R.R.R.l z N.R.L.M.L.H.H.H.S.G.Z.D.3.5 5 <.q.Y 8.t.E ( ( ! ! ! W Z W , Z Z ",
". C F F F G G H H U Y Y = - 4 v.Z.Z.A.S.H.H.L.L.l R.R.E.U.E.[ z j V.B.R.R.N.L.K.r.S.6.F.4.u 5 <.<.T 9.U U ( H ~ ! ! K ^ C o . Z ",
". .     X O O O + @ @ = - 3 v.2.Z.A.S.H.H.L.L.R.c E.*.W.W.I.{ { ` x V.V.V.R.N.M.K.r.S.6.5.y y 1 ,.T T U U E E G L K K ! C o   . ",
". . R W R R R + @ & & = 2 3 2.Z.A.M.r.K.L.L.R.E.[ *.*.).~.{ o.o. .' ' ` I.V.B.B.N.M.r.t r e y 3 1 - = = & I I I G K K C   # . . ",
"X O ! R R R R 9.9.9.w.w.4 w 4.A.S.r.H.M.R.N.U.V.{ z.z.z.*.g.O.O.X...| ' ' ' x j j s s g f G.D.D.n.b.4 > & @ + + O O O     # o   ",
"# F R G R R E 8.U 9.w.w.w e 4.6.r.m.M.N.E.h.h.h.o.z.=.=.=.c.*.#.#.#.'.'.`.~.' ` c j s l m.S.G.D.n.b.<.T = @ @ $ O O $ $ # # o o ",
"# F G R R E 8.9.9.T <.e.w e e r m.m.N.V.E.h.h.| X.*.z.*.z.*.f.f.u.u.].'.'./.~. .' [ z l h r.6.5.2.3.<.4 > : ; * % % $ $ # # # o ",
"# # G G H I U U T q.e.,.y u r t a d c V.h.h.| ..#.*.*.z.*.x.z.f.f.*.'.[.].'.T.O.} { [ z l g f i u y w w > : ; ; * + $ $ $ # # # ",
"W   X O O + + & T >.,.2 e r S.H.a d c x ` ] ..@.[.[.[.}.f.f.z.f.f.*.p.k.k.j.@.X.^.).W.E.L.K.J.S.F.v.b.4 4 : 0.0.( ( / $ $ # W W ",
"! R R R E 8.@ & = - 1 3 u S.H.L.L.c x ] o.X.].[.[.{.|.}.c.g.f.z.z.*.*.d.p.a.@.'.`.).Q.W.E.L.K.J.F.Z.n.b.4 > 0.t.( ( / / # $ W W ",
"! ! R R R 8.8.- > 4 w w A.S.H.C.R.E.{ } O.#.].[.[.}.}.z.*.z.*.z.z.z.f.*.d.s.{. X/./.~.(.E.P.K.J.S.Z.n.b.> > 0.8.( ( ( / # ! W Q ",
"W R R R E E 9.q.w.3 w Z.S.S.H.L.E.Y.{ o.X.].[.|.|.}.XX*.z.z.*.f.z.z.*.f.d.{.=.[.'./.).(.E.P.P.J.S.F.n.n.w 4 0.0.8.( / / $ ! W Q ",
"W W R R E U 8.9.9.b.w Z.A.S.H.R.E.Y.] o.'.].[.|.*.*.XX*.*.z.z.z.z.z.z.*.=.*.{.[.[./._.(.(.P.P.K.J.G.n.n.4 > q.t.8.( ( / $ W W W ",
"R R R R E 8.9.w.w.v.w Z.S.H.L.L.E.Y. .O.].[.{.|.*.z.*.*.*.z.*.z.z.*.f.*.*.z.{.{.[.'._.~.(.P.P.K.J.F.F.3.w 4 q.Y U ( ( / $ / ! ) ",
"F R H R E 9.9.Y q.,.q 5.S.r.L.P.E.(.h.O.'.[.|.*.z.*.*.z.z.z.z.*.z.g.c.x.f.f.l.[.[. X`.).(.P.P.m.6.F.4.3.w > Y 0.E / R G $ W C W ",
"R G R H I 9.Y 9.<.,.y q &.H.r.R.Y.(.] X.].[.[.}.*.z.f.f.f.f.z.z.z.z.z.*.z.f.z.f.[. X`.).C.B.M.K.J.6.3.q 2 4 q.U U I I / $ F / Z ",
"F F H H H U Y T T 2.e q a m.M.N.E.Q.' X.].[.g.x.*.*.*.z.*.z.c.x.z.z.*.f.*.*.*.i.[.'.U.h.C.B.M.m.m.r q w w 4 Y U U I I G $   C Z ",
"$ $ $ * * ; - - 4 w w u r p a d x x  .X.X.y.i.=.f.*.z.z.f.f.g.z.f.z.f.*.z.*.*.a.@.X.o.] x c d g t e q n.b.> = ; @ + + # $ X     ",
"# # + % * & : : 4 w w y e a s d j x ] o.X.$.i.p.d.f.f.z.z.f.z.z.z.z.f.*.*.f.*.a.u.#.o. .[ c m h f i y n.b.T > & @ * O O $ # #   ",
"! R / % % ; ; > q.e.v.Z.A.H.K.L.E.Y.~.o.+.$.a.p.d.*.z.f.z.z.z.z.z.z.z.f.f.z.*.a.[. X_.(.W.E.P.K.f i y ,.<.- : : E ( ( / / W W ^ ",
"! ! R + % ; ; : q.w.2.v.A.S.r.L.E.W.Q.~./.#.$.s.{.*.*.z.*.=.z.f.f.z.f.*.*.*.*.[. X`.(.(.E.P.K.J.G.F.y 3 > 4 : t.E ( ( / ! W W ) ",
"! L G ( * * ; q.q.b.v.v.A.S.H.L.L.E.Q.~./.#.$.a.l.{.XXx.x.=.-.=.*.z.z.z.*.s.a.'. X_.(.(.E.P.K.J.G.F.n.w 4 > q.t.t.( / / K / W ! ",
"! ! R R % * ; 0.9.b.e.v.Z.A.H.H.L.E.Y.Q.~./.#.$.k.{.XX-.-.x.=.=.=.z.g.*.z.a.$. X_._.(.(.P.L.H.J.F.n.n.w 4 : 8.t.( I / ! ! Z Q W ",
"! ! ! H % * * Y q.<.w.v.4.A.S.K.L.L.E.Y.~./.+.#.[.|.XXx.;.c.;.-.g.x.c.*.[.u.#.`._.(.(.P.P.K.J.J.F.n.b.w 4 : 0.t.( ( / / / Q ! Q ",
"W ! F H $ % & U Y w.<.2.2.4.6.r.K.L.E.E.(.~.o.+.!.J :.:.%.m n B 0 7 8 6 < 6 O._.).(.E.P.L.J.J.G.3.n.<.5 4 : U t.I ( ! ! ! ! Q Q ",
"! F ! G % * * & Y T <.1 3 q e r r.L.L.E.E.(.} O.!..X:.%.&.&.m b 0 6 7 < < O.o.(.(.E.E.P.m.J.G.5.3.3.4 4 > : % I ( L / K Q C Q Z ",
"K F C O + % % @ @ & = - 1 3 q e r m.L.M.N.c { } o.!.|.1.&.&.m b 7 8 6 < U. .' ` k j M.M.6.G.5.4.3.2 - 4 q.0.; O H G K K Z Z Z Z ",
"        + % % * @ & = w.v.n.v.q r r a g d c [ { ] ..#.y.&.%.V M 0 9 6 } ` { [ [ j d a a t r e 3 2 1 b.t.q.t.; $ O O X         o ",
"# # $ $ $ % % * = ; 9.w.<.b.n.4.t i f g h z c c { } o.o.V B B 0 6 6 < { [ [ z z d g f i r e 3 4 w 5 t.q.t.t.( % $ O         . . ",
"W ! ! ! ! / ! E ; ; & T T <.1 3 u i S.S.K.K.L.L.P.(.).`.J N N 9 9 8 < E.E.R.R.L.K.J.G.G.F.u y w 5 5 q.t.t.( ( % $ $ $ # # Q Q Q ",
"W Q W ! R ! R E E ; ; & = = > w w Z.Z.S.S.J.K.L.L.P.E.(.M M 9 9 7 6 < P.P.L.K.K.J.G.G.F.n.n.b.w > : q.t.( ( H % $ $ W Q Q W W ) ",
"C W W ! ! ! R ! E E E 0.: > 4 w.b.v.F.Z.5.J.S.K.K.K.K.P.D v M 8 7 < < L.K.K.J.J.G.G.F.3.n.b.b.b.> : U ( t.( % $ # ! ! Q Q Q Q Q ",
"C C W W ! ! ! E ( E E 8.9.: 4 q.b.b.b.v.v.A.F.S.J.J.K.K.S v 7 7 < < 6 J.J.J.G.G.F.D.D.n.b.b.q.t.: : % t.( H $ $ ! Q Q Q Q Q ) ) ",
"Q W ! W W ! ! ! ! ( E 8.U : : q.q.b.b.n.n.F.A.A.A.F.G.J.J.S.< < < r.G.G.G.F.F.D.n.D.b.b.t.b.w.t.t.; + ( ( / / , ! ^ Q Q Q Q Q ) ",
"Q Q W W W W ! ! F / H E I = ; = T q.w.b.b.n.n.v.n.Z.A.G.A.G.7 7 7 y 7.F.D.D.n.n.n.b.w.q.T Y Y 8.U * % H L ! ! $ C ^ W Z Z ) A A ",
"Q C C W C Q ! F G G H H O ; ; % = T q.<.<.w.b.n.n.n.4.n.D.4.S 7 7 5 5 4.n.n.,.b.b.<.b.T q.U U U + * % ~ L K K # C C C C Z Z A A ",
"Z . . C C C C   X O O O O ; % ; @ & & = - - - 2 2 3 2 4 3 3 v 7 7 3 3 2 2 4 1 - - - ; & & @ * @ O % % G L K   #     . . . . . . ",
". . . .               X + % * * ; @ 8.0.= = > 4 - 4 b.b.b.b.S v 7 5 5 5 1 - - : = & * * & % + + % % $ X o .   o #   . . . . . . ",
". , o o o   . o # $ # $ $ $ % + % ; U U ; ; : > : 4 T q.t.<.S v 7 1 5 4 4 : 1 : : ; ; ; * * % % $ $ $   .     o o . , , . , , , ",
") o # # o # W W W W ! ! ! / / ( ( * % ; ; ; 8.0.: : : Y 4 > v 7 8 t.q.t.t.t.t.t.8.8.( t.% % % $ ! / ! ^ ^ W ^ W Q , , , Q ) ) _ ",
"Q ) Q , o Q Q W W Q ! W ! ! ! ( / ! $ % * 8.E t.t.8.; : : t.v v 8 t.9.t.9.t.t.t.( ( ( / ( $ $ $ ! ! ^ ! Q Q Q Q Q ) , ) ) _ _ _ ",
"_ ) ) # o Q Q Q W Q W ! ^ ! ! ! ! ( ( % % ( ( ( t.t.* * : t.S 7 8 t.t.t.t.t.t.( H H H / / $ $ ^ ! ! ^ ^ Q Q Q Q ) ) , ) ) _ _ _ ",
") ) ) , , Q Q W A W Q C W W W W ! K ! $ $ ~ ~ ~ ~ ( ( * * ( M v 8 ( ( ( H H H ~ / / ! ! ! ! o Q Q ^ W W Q ) ) ) ) A , ) _ _ _ _ ",
"_ ) Z , , ) ) A C Q Q Q W W W W K ! ! # $ H L ~ H ~ ~ % % / 0 7 7 ( ( / / ~ ~ ! / / ! W ! W o A W Q C A Q Q ) Z ) A , _ A P _ _ ",
"_ A A , . A A Q Q Z Q Z C C W C ! C K # # L ! K ! L G $ % H S 7 7 L / L / K K K ^ K Q K K C , . Z Z Q Q Z ) A Q A A . A _ _ P P ",
"P A . , , . A A A Z Z Z C Z C Z C K   # # X K K K L X $ , o S v 7 K K K K K K K K K K K o , , , . A Z Z Z A A A . . , . P P P P ",
". . , , , . . . . . . . . . .   . . . o o . . . #     $ $   S v 7 o X     X     . .   o . Q Q , . . . . . . . . . , , , , . . , ",
". . , , , , , . . . . . . . . . . . o o o o . . .   # # # # 0 8 7 .     . .     . . X o Q Q A . , , . . . . . . . , , , . . . . ",
"_ _ _ _ _ _ _ ) Q ) ) , o ,   , Q Q Q Q Q Q , o # # ^ W Q W N 8 7 ^ ^ ! W Q Q W W ^ o o A A , , Q ) ) ) ) o , , , , , _ _ _ _ _ ",
"_ _ _ _ _ _ _ _ _ ) Q _ # , , Q Q Q Q Q Q Q , , # ^ W Q ^ Q v v 7 W W ^ Q Q Q ^ Q ^ ^ o , , , ) ) ) ) _ _ _ , , , , , _ _ _ _ _ ",
"_ _ _ _ _ _ _ _ _ ) _ _ _ o o ) ) ) ) Q Q ) . , . Q Q Q Q Q v v 7 Q Q Q Q Q Q Q ) ) ) ) . , , ) _ _ _ _ _ _ _ , , , _ _ _ _ _ _ ",
"_ _ _ Q _ _ _ _ _ P _ _ _ o , ) ) ) ) ) ) Q ) , ) Q Q A Q A S 7 7 Q Q Q ) ) Z A ) ) ) ) ) , , _ _ _ _ _ _ _ _ , , _ _ P _ _ _ _ ",
"_ _ _ _ _ _ _ Q _ P _ _ _ , , _ _ ) ) _ ) ) ) , A ) ) Q A A 7 7 7 ) ^ A ) ) ) ) ) ) ) _ _ , _ _ _ P _ _ _ _ _ , , _ _ _ _ P _ _ ",
"_ _ _ _ _ _ _ _ _ _ _ _ _ , , A A A ) _ ) A A . . ) A ) ) Q ) ) ) ) ) ) ) ) ) ) ) _ ) _ _ . _ _ _ _ _ _ _ _ _ , , P _ _ _ Q _ _ ",
"_ _ _ _ _ _ _ _ P _ P _ P , , P _ _ A A A _ _ , . A _ A ) _ ) ) ) ) ) _ ) A _ _ _ _ P _ P , P P _ _ _ _ _ _ _ , , . P _ _ _ _ _ ",
") _ Q _ P P _ P _ P P P . , , P P P P P _ A A , . A A A _ A _ ) A A _ A A _ A _ _ P P P . , . P P _ P Q P _ P , , . , P _ P _ P ",
"P P P P P P P P W . . . . , , . . . . . P P . . , . . . P P A P A P P P P P A P P . . , . , . . P P P P P P . . , , . P P P Q P ",
". , . . . . . . . . . , , , , . . . . . . . . , , , , . . . . . . . . . . . . . . . . , , , , , . . . . . . . , , , . . . . . . "
};
