/* XPM */
static char *result[] = {
/* columns rows colors chars-per-pixel */
"64 64 174 2 ",
"   c #1B1B1A",
".  c #201F1A",
"X  c #24221A",
"o  c #2A261A",
"O  c #2E291B",
"+  c #332D1B",
"@  c #37301B",
"#  c #3C331B",
"$  c #222221",
"%  c #282621",
"&  c #2D2A21",
"*  c #3E2723",
"=  c #322E21",
"-  c #3F2823",
";  c #363122",
":  c #3B3522",
">  c #3F3822",
",  c #40371B",
"<  c #443A1B",
"1  c #493D1C",
"2  c #432B23",
"3  c #4D3323",
"4  c #433B22",
"5  c #483F22",
"6  c #4E342E",
"7  c #51362E",
"8  c #55392E",
"9  c #4E411B",
"0  c #54451C",
"q  c #56481C",
"w  c #5C4C1C",
"e  c #64521C",
"r  c #69561C",
"t  c #6D591C",
"y  c #745E1C",
"u  c #76601D",
"i  c #7C641D",
"p  c #4D4222",
"a  c #524623",
"s  c #554922",
"d  c #5B4D23",
"f  c #5D402E",
"g  c #5F5022",
"h  c #5D4037",
"j  c #66462F",
"k  c #6C4B2F",
"l  c #635323",
"z  c #695723",
"x  c #6D5A23",
"c  c #735F23",
"v  c #74502F",
"b  c #664737",
"n  c #745238",
"m  c #7B5738",
"M  c #7A6423",
"N  c #7A6523",
"B  c #6D4C41",
"V  c #704E41",
"C  c #7B5741",
"Z  c #615E5E",
"A  c #65615E",
"S  c #6A655E",
"D  c #6E685F",
"F  c #746C5F",
"G  c #786F5F",
"H  c #7C725F",
"J  c #757575",
"K  c #787775",
"L  c #7C7A75",
"P  c #80671D",
"I  c #856B1D",
"U  c #896E1D",
"Y  c #8D711D",
"T  c #93751D",
"R  c #96781E",
"E  c #9C7D1E",
"W  c #835D38",
"Q  c #846C24",
"!  c #8C7224",
"~  c #917624",
"^  c #967924",
"/  c #9A7D24",
"(  c #8B6338",
")  c #FF5622",
"_  c #FF5822",
"`  c #FF6122",
"'  c #FF6923",
"]  c #845E42",
"[  c #976C42",
"{  c #81775F",
"}  c #84795F",
"|  c #8A7D5F",
" . c #877B60",
".. c #817E75",
"X. c #A3821E",
"o. c #AA871E",
"O. c #B38E1E",
"+. c #9E8024",
"@. c #A48425",
"#. c #AB8A25",
"$. c #B18D25",
"%. c #B49125",
"&. c #BA9525",
"*. c #BF9926",
"=. c #FF9900",
"-. c #FFA100",
";. c #FFA901",
":. c #E4B31F",
">. c #C49C26",
",. c #CCA226",
"<. c #D6AA26",
"1. c #DEB026",
"2. c #E8B727",
"3. c #FFC107",
"4. c #FFCB07",
"5. c #FFD308",
"6. c #8F815F",
"7. c #94845F",
"8. c #9B8A5F",
"9. c #A5925F",
"0. c #8E8060",
"q. c #958560",
"w. c #9C8B60",
"e. c #858175",
"r. c #8A8576",
"t. c #8E8876",
"y. c #948C76",
"u. c #988F76",
"i. c #9C9376",
"p. c #A28F60",
"a. c #A59160",
"s. c #AB9660",
"d. c #AE9860",
"f. c #B49D60",
"g. c #A19776",
"h. c #A59A76",
"j. c #AB9D76",
"k. c #BCA260",
"l. c #AEA077",
"z. c #B4A477",
"x. c #B8A777",
"c. c #BCAB77",
"v. c #C1A761",
"b. c #C7AB61",
"n. c #CBAE60",
"m. c #CEB161",
"M. c #D7B862",
"N. c #C1AF77",
"B. c #C2AF78",
"V. c #C5B277",
"C. c #CAB677",
"Z. c #CEB877",
"A. c #C5B278",
"S. c #CAB578",
"D. c #CEB978",
"F. c #D3BC77",
"G. c #D3BC78",
"H. c #DAC177",
"J. c #DBC278",
"K. c #E5C261",
"L. c #EAC662",
"P. c #F4CE62",
"I. c #FCD663",
"U. c #E1C678",
"Y. c #E5CA78",
"T. c #EACE78",
"R. c #EFD178",
"E. c #F4D579",
"W. c #F4D678",
"Q. c #FBDB79",
"!. c #FFE279",
"~. c #FFEA79",
"^. c #FFF279",
"/. c #FFFF7B",
/* pixels */
"$ $ $ $ $ $ $ $ % % % & = = ; : : 4 5 5 p a s d d d l l l l l l l l l d d d s a a 5 4 4 : : : = = & % % % $ $ $ $ $ $ $ $ $ $ $ ",
"J J J J J J K K K K L L & = = = ; : t.y.y.y.4 5 5 p g.g.h.p p a p a p g.g.i.i.i.u.y.y.: = : = = & ..L L L K K K J J $ $ $ $ $ J ",
"J J Z J J K K K K L L ....= ; ; : t.y.u.i.i.i.p p j.z.z.A.A._ x l z.j.h.h.g.i.i.i.u.y.y.: : = = e.e.....L L K K K J J $ $   J J ",
"J J J J K K K L L e.D F e.r.: : y.y.i.i.i.h.h.a d z.N.C.J.U.=.Q G.A.z.z.j.j.j.h.g.g.i.u.u.4 : t.r.e.e.....L L L K K J K $ $ J Z ",
"J J J A J K L L L L ..e.r.r.: > y.i.} i.h.h.j.s d c.Z.U.R.Q.) +.n.F.V.z.z.z.j.j.j.h.g.i.u.4 4 t.t.e.e.e.....L L L J J J J $ J J ",
"J Z J J K K L L e.e.e.G r.H > 4 i.| h.h.j.l.w.l z C.G.E.!.=.) %.R.=.C.d.c.z.z.z.j.j.h.g.i.4 4 y.t.t.e.e.....L L L L J J J $ Z Z ",
"Z J Z J A K S ..D e.F r.H # # i.i.h.h.j.l.z.z.c.c F.U.W.=.) ,.&.K.) G.f.B.c.c.z.z.l.j.j.| p 5 { y.H t.e.e...L L L J J Z J   Z Z ",
"  Z Z A A S S D D G G H + # 5 i.h.j.l.z.z.c.c.A.c G.Y.W.!.^.>.&.E M.b.F.S.f.B.c.a.x.w.j.q.a 5  .{ H t.G F e.D ..L L Z J Z $   Z ",
"          X X o o O + + # 4 i.6.h.j.z.z.c.N.V.C.M J.U.E.Q.P.%.) ) Y n.=.k.C.f.f.N.s.z.w.8.a 5 < } { H G F r...D S A A J A $     ",
"    L L L ..L o o + + # 5 5 6.j.j.z.a.c.V.V.S.F.Q J.T.E.Q.@.$.#.3.) U ) b.v.v.f.f.s.s.w 0 0 s 1 < # @ @ O F D D S A A A   $     ",
"% $ K K L e...e.r.t.y.y.5 p 7.j.z.p.c.d.C.k.F.b.Q Y.T.E.Q.X.@.@.=.3.=.Y U I i y y t r z l l.j.h.i.i.> > + O o o $ X . .   $ $   ",
"$ A K S L e.e.r.G t.y.i.p p q.w.p.a.f.f.D.v.b.n.~ M.E.W.K.#.#.#.3.=.=.=.T.Y.U Q y y t c s.x.l.j.h.i.0.H @ O O % o X % $ $ $ $ $ ",
"$ A A L L e.e.r.t.H { i.p s 0 q a.s.f.k.G.b.m.Y / E K.L.#.$.$.3.3.;.) Q.E.R.T.~ Q Q c c c a.p.8.7.6.} 4 > ; ; = & & % % $ $ $ $ ",
"$ % A S S F F G H y.i.| p s q w e r M k.b.m.T R @.X.o.o.#.3.=.3.4.-.) !.Q.W.M.^ ~ Q Q M c z l d d a p p > > ; ; = & % % $ $ $ $ ",
"K . . X X o o + H { } 1 a d z.c.r t y i I T R @.Q.!.~.~.=.3.3.=.3.) *.P.P.L.@./ T.U.G.G.S.A.x.z.l.h.i.4 > > r.r.e...L % $ % J J ",
"K L L L e.e.O + # # , 1 s l.c.c.A.M Q ! ~ / W.!.!.~.^.) 3.) 3.) _ 3.,.>.*.%.#.Q.R.T.U.G.D.A.c.x.l.j.h.i.4 > t.r.e.....L % $ L J ",
"K L L ..e.e.r.; > 4 p p j.z.c.N.V.F.Q ! ^ @.Q.!.~.^.^.3.) ) ) ) 3./.<.,.>.&.!.Q.E.T.U.J.F.V.V.c.z.l.h.i.4 > t.r.e.e.L L % K K K ",
"K L L ..e.r.t.t.y.p p h.l.z.c.V.Z.G.! ~ / Q.!.~.^./.) ) 3.3.4.` /././.) ,.^.~.!.Q.R.T.J.G.S.V.c.z.l.h.i.p > t.r.e.e.e.L % K K K ",
"K L L ..e.F t.t.y.i.p j.l.z.c.V.Z.G.! ^ E.Q.!.~.^.=.3.3.) 3.3.;./.=.=.) <.I.~.!.Q.E.T.J.H.Z.V.c.x.l.l.i.4 > t.t.r.e.L L % K K J ",
"L L L e.e.r.t.t.u.i.p j.l.c.c.S.F.H.! / W.!.!.^.=.3.3.3.3.) 3.=.3.3.3.3.1.,._ _ !.W.R.U.H.D.C.c.x.l.l.0.p 4 y.H F e.e.L % K K K ",
"A L S ..e.r.t.H y.| p 7.l.a.c.S.Z.H.m./ Q.!.~.^.4._ =.3.3.3.4.;.) 3.3.:.1.=.=.^.!.Q.T.Y.J.G.S.d.9.l.q.6.p > H t.r.e...S % K Z J ",
"L A L D D r.G y.{ | a 9 w.c.d.S.G.H.Y / W.!.~.=.;.=.3.3.3.=.4.3.3.3.) 2.2.) ;.I.!.W.T.T.n.k.f.c.c.8.q.9 , 4 t.H F D D ..% A K A ",
"A A S D D F G H { | p 0 q a.s.f.D.J.Y / W.~.~.=.=.=.=.) 3.=.3.3.=.=.=.3.3.=.3.O.Q.Q.M.M.n.k.f.s.a.q 9 p p 4 H G F D D S % . A Z ",
"o % % & ; ; : > 4 p p s q w e t u P ! ^ X.o.&.;.3.=.) =.) =.3.3.=.=.3.) =.=.>.%.o.E T U i u t e w q 9 h.i.4 @ + O o X . % .     ",
"$ % % & ; ; ; > 4 p p a q l z t u i ! ^ E #.O.) 3.=.3.=.3.=.3.) =.) 3.3.=.3.>.%.#.@.^ ! Q N M z l d s g.i.H > O O & X X % $ $   ",
"K L ..& & ; ; > y.i.g.h.l.z.c.S.Z.H.U.^ +.#.%.*.3.3.=.3.=.3.3.=.) =.=.3.=.) ) %.Q.E.R.J.H.G.V.c.l d s 0.| # > : e.e.e...L K K K ",
"K L L & & ; ; : y.i.0.h.l.z.a.V.C.F.J.T.R.@.#.&.3.3.=.=.4.3._ =.) =.3.=.;.=.3.!.Q.R.U.J.G.Z.V.c.z.l.a < # 4 : r.r.e...L L L K K ",
"K S A ..& ; ; t.y.i.i.h.j.z.c.A.C.G.J.U.R.@.#.%.3.=.3.4.=.4.-.=.=.=.) =.` =.%.Q.W.R.U.H.D.S.c.c.z.l.g.p 4 4 t.r.e.e.L L A K K J ",
"K L L L & ; ; t.y.u.i.g.l.l.z.c.V.Z.F.J.T.R.@.#.P.~.4._ ` 5.-.-.=.4.) ) 4.) #.W.R.U.J.H.D.A.c.z.l.h.g.p 4 > t.t.e.D ..L K A J J ",
"K L L S & & ; G y.H i.i.q.l.z.c.V.S.G.J.U.T.+.@.!.~.^.5.' 5.;.` =.=.3.) =.#.@.E.R.U.J.F.V.A.c.z.l.h.i.5 > > r.e.e.e.L L L K K J ",
"J K S S & & ; H H y.} 0.0.7.8.a.c.V.C.G.H.J.^ +.L.C C m m v k n h 2 7 * * 6 / T.U.J.F.Z.V.c.z.z.q.h.| 5 > > G r.D ..L L K J J J ",
"K A K S % ; & O H H } , 1 9 0 q a.N.V.D.H.J.! / K.!.] ( ( ( v k f 2 7 * * / ^ Y.J.G.D.S.d.c.z.w.q.0., 4 > ; O D ..D L A L A J Z ",
"Z Z Z . % & & O O @ @ # # 9 9 q w 9.c.f.k.i ! ! T K.!.[ [ ( v j 3 8 - - M.~ I i u y f.9.9.c.w.7.6.1 # > t.r.= o D A A A A A Z Z ",
".   . . % & = = O @ @ u.i.i.h.9 q w e r t N N ! Y Y X.#.W W m j f 8 - Y I ! Q Q y y r e w q 9 9 < # u.y.t.r.& O X X X         $ ",
"$ $ % % % & & = ; ; t.y.0.i.i.q.d g l z x M N N Q ! T E m n m f 2 2 - ! Q Q N M t e e w q 0 9 < p 4 y.t.r.r.e.& % . . .         ",
"J J J K L ......; ; @ H H } # 9 s d z.z.c.c.V.Z.D.H.J.T.C b b 8 8 7 - G.F.D.C.V.c.c.z.z.l.s p p 4 4 y.t.r.r.e.& % % $ $ $ J J J ",
"J J J K L L L ....; ; @ @ # # p p h.l.l.z.c.c.c.V.C.Z.H.b b 7 7 6 * - S.V.V.V.c.c.z.l.j.h.h.i.5 > > t.r.e.e.D % % % K K J J J J ",
"Z J K K K L L ....e.e.r.: > p u.i.h.h.l.8.z.x.c.c.V.V.V.V h h 7 6 - - A.V.c.c.x.z.l.l.q.h.i.i.u.> : G r.r.L & % % K K J J J J J ",
"Z Z J K K L L ....e.e.r.r.: > y.i.i.h.h.l.l.l.z.z.c.x.c.B h 6 6 - - - c.x.x.z.l.l.j.h.g.i.i.y.y.: ; O e...D % % K J J J J J J J ",
"J J K J J K L L L ..e.e.F : : y.u.i.i.i.h.h.l.l.l.z.z.x.x.x.- - * a.z.z.z.l.l.l.h.h.g.i.i.u.y.t.t.; o e.L L L % K K J J J J J J ",
"J J J J J J K L A ..D ..F = ; @ H u.u.i.i.i.h.l.j.l.l.l.l.l.6 6 6 0 w.j.l.j.h.h.h.i.i.i.H H H r.G & & D S K K $ A J J Z Z J Z Z ",
"J Z Z J Z J K A A A S D o = ; O @ H u.H } i.i.i.g.h.q.h.j.q.B 6 6 9 9 q.h.h.| i.i.} u.H y.H H G O ; & L S S A $ Z A Z Z Z Z Z Z ",
"Z     Z Z A A   . . . X X = = = O O @ @ # @ # < , < < < < 9 h 6 6 1 < < < , , # # # @ @ + O ; O o % % D A A $ $                 ",
"                . . . . & & = = = O t.t.@ @ > p # 5 i.i.i.i.B h 6 5 5 5 # # # # @ @ + O O o o o & % % . .     $ $               ",
"  $ $   $     $ $ $ % % % % & & & ; F F ; ; > > > > H u.y.} B h 6 > 4 4 : > : : ; : ; ; & = & & & % %   $     $   $ $ $ $ $   $ ",
"J $ $ $ $ $ J J J L J L L L ....e.& = ; ; ; r.r.: : > H > 2 h 6 6 y.t.y.t.t.t.r.r.r.e.e.& & & % L L K L J J J J J $ $   J J J J ",
"J J J $ $ J J J J J K K L L L L L ..& & & e.e.r.r.r.; ; : r.h h 6 r.r.r.r.r.r.e.e.e.L e...& % % L K K K J J J J J J $ J J J J J ",
"J J J $ $ J J J J J J J K J L L L L ..& & e...e.e.e.; ; ; r.V 6 6 r.r.e.e.e.e.e.D D D L L % % K K K K K J J J J J J $ J J J J J ",
"J J J $ $ J J J Z J J Z J J J J J Z K % % ..L e...e.e.& = ..h h 6 ..e.e.D D D ....L J J J J $ J K J J J J J J J J Z $ J J J J J ",
"J J Z   $ J J Z Z J J J J J J J Z J K % $ J S L D L ..& & ..h 6 6 ......L ..L ..L L J J J J $ Z J J Z Z J J J Z J Z $ J Z Z J J ",
"J Z Z $ $ Z Z J J Z J Z Z Z J Z J Z Z $ $ A K S L A D % % S B 6 6 S L S L S A A L J J Z J Z $   Z Z J J Z J Z J Z Z   Z J J Z Z ",
"Z Z   $ $   Z Z Z Z Z Z Z Z Z Z Z Z   $ $   A A A A $ % % $ B h 6 A S A A A Z Z Z Z Z Z $ $ $ $   Z Z Z Z Z Z Z     $   Z Z Z Z ",
"        $                             $ $       $ $ . % $ . B h 6 $       $           $ $ J J $                                 ",
"      $ $ $                         $ $ $ $         $ $ $ $ h 6 6 $                   $ J J Z   $ $               $ $           ",
"J J J J J J J J J J J $ $ $ $ $ J J J J J J $ $ $ $ J J J K B 6 6 K K J J J J J J J $ $ Z Z $ $ J J J J J   $ $ $ $ $ J J J J J ",
"J J J J J J J J J J J J $ $ $ J J J J J J J $ $ $ J J J J J h h 6 J J K J J J J J J J $ $ $ $ J J J J J J J $ $ $ $   J J J J J ",
"J J J J J J J J J J J J J $ $ J J J J J J J $ $ $ J J J J J h 6 6 J J J J J J J J J J J   $ $ J J J J J J J J $ $ $ J J J J J J ",
"J J J Z J J J J J Z J J J   $ J J J J J J J J $ J J J Z J Z B 6 6 J J J J J Z Z J J J J J $   J J J Z J J J J $ $ J J Z J J J J ",
"J J J J J J J Z J Z J J J $ $ J J J J J J J J   Z J J J Z Z 6 6 6 J J Z J J J J J J J J J $ J J J Z J J J J J $ $ J J J J Z J J ",
"J J J J J J J J J J J J J   $ Z Z Z J J J Z Z     J Z J J J J J J J J J J J J J J J J J J $ J J J J J J J J J $ $ Z J J J Z J Z ",
"J J J J J J J J Z J Z J Z $ $ Z J J Z Z Z J J $   Z J Z J J J J J J J J J Z J J J J Z J Z $ Z Z J J J J J J J $     Z J J J J J ",
"Z J Z J Z Z J Z J Z Z Z   $ $ Z Z Z Z Z J Z Z $ $ Z Z Z J Z J J Z Z J Z Z J Z J J Z Z Z   $   Z Z J Z Z Z J Z         Z J Z J Z ",
"Z Z Z Z Z Z Z Z Z         $ $           Z Z             Z Z Z Z Z Z Z Z Z Z Z Z Z               Z Z Z Z Z Z     $ $   Z Z Z Z Z ",
"                      $   $ $                 $ $ $ $                                 $ $ $ $                 $ $ $             "
};
