/* XPM */
static char *result[] = {
/* columns rows colors chars-per-pixel */
"64 64 155 2 ",
"   c #1B1B1A",
".  c #201F19",
"X  c #242219",
"o  c #2A2619",
"O  c #2E291A",
"+  c #332D1A",
"@  c #37301A",
"#  c #3C331A",
"$  c #222221",
"%  c #282620",
"&  c #2D2A20",
"*  c #3E2723",
"=  c #322E20",
"-  c #363121",
";  c #3B3521",
":  c #3F3821",
">  c #40371A",
",  c #443A1A",
"<  c #493D1B",
"1  c #432B23",
"2  c #433B21",
"3  c #483F21",
"4  c #4E342E",
"5  c #51362E",
"6  c #54392E",
"7  c #5A3D2E",
"8  c #4E411A",
"9  c #54451B",
"0  c #56481B",
"q  c #5C4C1B",
"w  c #64521B",
"e  c #69551B",
"r  c #6D591B",
"t  c #745E1B",
"y  c #76601C",
"u  c #7C641B",
"i  c #4D4221",
"p  c #524621",
"a  c #554921",
"s  c #5B4D21",
"d  c #5D4037",
"f  c #63442F",
"g  c #6D4B2F",
"h  c #635322",
"j  c #695721",
"k  c #6C5A21",
"l  c #735F21",
"z  c #634537",
"x  c #6C4B37",
"c  c #725037",
"v  c #755238",
"b  c #7C5738",
"n  c #7C5838",
"m  c #7A6421",
"M  c #7E6822",
"N  c #6D4C41",
"B  c #795541",
"V  c #615E5D",
"C  c #65615C",
"Z  c #6A645C",
"A  c #6F685C",
"S  c #746B5C",
"D  c #796E5C",
"F  c #7D715C",
"G  c #757574",
"H  c #797773",
"J  c #7C7A72",
"K  c #80671C",
"L  c #856B1C",
"P  c #8A6E1C",
"I  c #8E711B",
"U  c #93751C",
"Y  c #97781C",
"T  c #9C7B1C",
"R  c #835D38",
"E  c #846B22",
"W  c #896F22",
"Q  c #8D7222",
"!  c #927522",
"~  c #967922",
"^  c #9B7C22",
"/  c #FF5622",
"(  c #FF5B22",
")  c #FF6022",
"_  c #825C42",
"`  c #8C6342",
"'  c #82755C",
"]  c #86795C",
"[  c #8C7D5C",
"{  c #827E72",
"}  c #A8841C",
"|  c #A8851C",
" . c #B38C1C",
".. c #9F8022",
"X. c #A38223",
"o. c #AB8723",
"O. c #AD8923",
"+. c #B48E23",
"@. c #BC9323",
"#. c #C3971D",
"$. c #FF9900",
"%. c #FFA400",
"&. c #FFA901",
"*. c #CDA024",
"=. c #FFC107",
"-. c #FFCB07",
";. c #FFCE08",
":. c #FFD108",
">. c #94835C",
",. c #99875B",
"<. c #9C895C",
"1. c #A48E5C",
"2. c #A7915C",
"3. c #AC945C",
"4. c #B1975B",
"5. c #B49A5B",
"6. c #BA9E5B",
"7. c #BDA15C",
"8. c #868072",
"9. c #8B8472",
"0. c #8F8872",
"q. c #908772",
"w. c #948B72",
"e. c #9A8E72",
"r. c #9D9172",
"t. c #A39572",
"y. c #A69872",
"u. c #AC9C72",
"i. c #B09F72",
"p. c #B4A272",
"a. c #B9A672",
"s. c #BDA972",
"d. c #C5A65C",
"f. c #CEAC5C",
"g. c #D8B55D",
"h. c #E4BD5C",
"j. c #C3AD72",
"k. c #C7B072",
"l. c #CCB472",
"z. c #D1B771",
"x. c #D4BA72",
"c. c #DABD72",
"v. c #F3CB5D",
"b. c #F5CA5D",
"n. c #DEC272",
"m. c #E2C572",
"M. c #E7C872",
"N. c #EBCB72",
"B. c #F2CF72",
"V. c #F5D272",
"C. c #FAD672",
"Z. c #FDDB72",
"A. c #FDE372",
"S. c #FDEA72",
"D. c #FEF673",
/* pixels */
"$ $ $   . . . $ $ % % & & = - ; 1 , i i i p a a s h s h h h h h h h h s s s a p p 3 2 2 2 ; - = = % % % % % $ $ $ $ $ $ $ $ $ $ ",
"G G G G G G H H H H H { & = = = - - 9.q.q.e.2 3 3 i t.t.t.p a p i p p r.r.e.e.e.w.w.q.; ; = - = & { J J H H G G G G $ $ $ $ $ G ",
"G G V G G H H H H H { { J @ = - # q.w.w.e.e.r.i p t.y.y.y.y.a a a y.y.y.t.t.t.r.e.e.w.q.; ; ; = { { { J J J H H G G G . $ $ G G ",
"G G G G G G H H H { A A 8.9.; 1 w.w.e.e.r.t.y.p a u.u.u.u.i.h s i.u.i.u.u.u.y.t.t.r.r.e.w.; ; 9.9.9.{ J J J H H G H G G $   G V ",
"G G G V D G H J J J { 8.9.9.; : w.e.[ t.y.y.y.0 a i.p.i.a.a.h h 1.p.p.i.i.i.i.u.y.t.t.r.w.2 2 9.9.8.8.{ J J H J G G G G G   G G ",
"G V G G G H J J J { 8.S 9.F : 2 e.[ t.t.y.u.<.w h a.s.a.s.j.l k j.3.j.2.p.p.i.i.i.y.t.t.r.3 2 w.9.9.9.8.8.J J J H G G G G $ V V ",
"V G V G C H Z J A 8.S 9.F @ # e.r.t.y.y.i.p.p.a.k j.j.j.j.k.t l 4.j.j.4.j.a.a.i.i.u.u.t.[ i 2 ' q.F 9.8.{ J J J H H G V G   V V ",
"  V V V C Z Z A A S S F @ # 3 r.t.y.i.i.p.a.s.s.l k.l.l.z.l.E m t 6.6.l.k.4.j.j.2.p.<.u.>.p i ] ' ' 9.S S { A J J J V G V $   V ",
"          X X o o O + + # 3 r.[ y.u.i.p.a.j.j.l.u z.z.x.x.d.E E K K d.7.6.l.5.5.s.2.p.<.,.p p > ] ' F S S 8.J Z Z C C G V $     ",
"    H H J { J o O + + # , i [ y.y.p.1.s.j.j.l.z.E c.c.n.m.P ! / ~ L L K d.d.7.5.5.3.3.q 9 9 p < > # # + + S S A Z Z C C   $     ",
"X X H H J J { 8.9.9.q.w.3 i >.y.i.1.s.4.j.6.z.d.E m.M.M.M.U / / Y ^ U P E L u u t r e j h u.u.t.r.r.2 : + O o o X X       $ $   ",
"X C H Z J 8.8.8.D 0.w.e.i p >.<.1.2.3.5.z.d.d.f.! g.N.B.h.=.$./ / X.B.N.N.m.P u u t r k 3.p.i.y.y.r.] F @ + O o X X % % $ $ $ $ ",
"$ C C J J { { 8.0.F ' e.i a 9 0 1.3.5.6.z.d.f.I ^ Y h.v.o.=.=.$.=.=.&.Z.V.N.M.Q E E m l j 1.1.,.>.[ ] 2 ; ; - & & % % % $ $ $ $ ",
"$ % C C Z S S D D w.e.[ i a 0 q w e m 7.d.f.I Y X.T } }  .@.=.=.$./ $.$.Z.V.g.~ Q E E m l k h s a p i 3 2 ; - - = & % % % X $ $ ",
"H . . X X o o + F ' ] , p q p.a.e r t K P P Y X.C.A.Z.A.A.S.$.=.=.$./ b.v.v...^ M.n.c.l.j.j.a.p.u.y.r.3 2 ; 9.8.8.J J o % $ G G ",
"H H J J { { + + # # , < a i.p.s.j.m E W ~ ^ V.Z.Z.A.S.S.D.=./ =.=./ / / +.+.o.V.N.M.c.x.l.j.s.p.i.u.r.r.2 : 0.8.8.{ J H % $ G G ",
"G J H { 8.8.9.# ; 2 3 p y.i.p.j.k.z.L W ^ ^ C.Z.A.S.S.D.D.D.=.=.=.=.=.=.( @.A.C.B.N.n.c.l.k.j.p.i.y.y.r.2 : 0.8.8.{ J J & G G G ",
"G H J { J 8.9.0.e.2 p y.i.i.a.j.l.z.W ! ^ C.Z.A.A.D.D.$.D.D.=.( =.$.=.$.*.A.A.Z.V.N.m.c.x.l.j.a.p.u.y.r.3 : 0.9.8.{ J J % G G G ",
"H H H J { S 9.q.e.e.3 y.u.p.j.k.z.z.W ~ B.C.Z.A.S.D.;.&.D.D.D.=.$.$.$./ =./ A.Z.C.B.M.n.x.l.j.s.p.i.y.r.2 2 0.9.8.{ J J % H G G ",
"H J J { 8.9.0.q.e.e.9 u.i.p.a.k.l.c.! ^ V.Z.Z.S.=./ ( $.=.D.D.$.=.$.=.$.$.#.S.A.Z.V.M.m.c.l.k.s.p.i.y.>.i 2 0.D S { { J % H H H ",
"C J Z J { 8.9.F w.] p >.i.1.j.k.l.c.f.^ V.Z.Z.S./ =./ / $.D.=./ $.=.=.=.$.$.b.A.C.V.N.m.c.l.l.3.1.i.>.>.3 : F 0.8.8.8.Z % G C G ",
"G Z J A A 9.F q.' [ p < <.p.3.k.z.c.P ^ V.Z.A./ =.$.$.$.=.=.=.$.$./ =.$./ / #.b.Z.V.N.m.d.6.5.s.a.<.>.< > 2 0.F S A Z J % C G V ",
"C C Z Z A D D F ' [ p 9 0 1.3.5.l.c.P ^ V.Z.A./ $.$.$.=.=.$.=.=.=.$.$./ $.$.#. .Z.V.g.f.d.d.i.3.1.0 8 i i 2 F S S A Z C o   C V ",
"% o % & + - ; # 2 3 3 a 0 q w t y K ! ^ T / / =.=.=.=.=.$.$.=./ =.=.;.&.$.$.( +.} T U P u t r h s 0 8 y.r.2 @ + O o o X % .     ",
"$ % % & = = ; ; 2 3 i a 9 h k r y u ! ^ Y O./ / =./ =.=.=.$.=.$.=.( =.=./ =./ @.O...^ Q E M m j h s a t.e.' ; + O & X X % % $   ",
"H H J & = - - ; w.r.t.y.i.p.a.j.l.x.c.~ X.O.=.=.=.=./ / $.=.$.=.=.=.=.=.=.$.@.+.C.B.M.n.x.l.j.a.h s a [ ' # ; ; 8.8.{ J H G G G ",
"G J J & & = ; ; w.e.[ y.u.i.1.j.l.z.c.M.N.X.O.=./ ( $.=.=.=.=.=.=.) -.=./ / $.Z.V.N.n.n.z.k.k.a.p.y.p , > 2 ; 9.8.{ { J J G G G ",
"H C C { = = - q.w.e.r.t.u.p.a.j.k.l.c.m.M.X.o./ =.=.$.( -.( ( $.( &./ =.$.=.+.C.B.N.n.c.z.k.s.a.p.u.t.3 3 : 9.9.{ { J J C J H G ",
"H H J { O = = q.q.e.r.t.y.u.p.s.j.l.z.c.M.N.X.O.=.A.( ( ) -.%.( =.=.$.=.$.$.o.V.N.m.n.x.l.j.s.p.u.y.t.i 2 ; 0.9.{ A J J G C G G ",
"H H H Z & = = D q.' e.t.>.u.p.a.j.k.z.c.n.M.^ o.Z.A.-.;.&.:.%.) %.( $./ $.o.X.N.M.n.x.l.k.j.a.p.u.y.r.3 2 ; 9.8.{ { J J J G G G ",
"G H Z Z % & = S D w.' [ [ >.,.1.s.j.l.z.c.n.Y ^ v.B _ v n g f c 7 1 5 * * 4 ^ M.n.c.z.l.j.s.p.i.>.y.] 3 2 ; S { A { J H H H G G ",
"G C H C & = = + D ' ' > < 9 9 0 1.j.j.l.x.c.Q ^ g.C._ b R R g f 7 1 5 * * ^ ~ m.c.x.l.k.3.a.p.,.>.[ # 2 : # O S { Z H C H V G V ",
"V C C X % & + O + + # # , < 8 9 q 2.j.5.5.u W Q P v.Z.` R R g f 4 6 1 * f.! L u y y 4.3.2.p.,.>.>., # 2 0.9.- o Z Z C C V V V C ",
"        % & & = O + @ e.r.r.y.9 9 q w e r m M W L U T | R n v d 7 5 1 P P Q E E t r e w q 0 8 8 , # e.0.0.9.& o X X . .       $ ",
"$ X % % % & & = = ; 0.q.' r.t.>.a s h j k m m m E Q I Y v v x d 1 1 * W E M m m e e h s 0 8 8 < i 2 0.0.8.8.8.& & .             ",
"G G H H H J J { = - + F F ] > , a s i.p.a.s.k.k.l.z.n.n.B x x 6 6 5 * x.l.l.l.j.s.s.p.i.u.p i i 2 : 0.0.8.{ { & % % % $ $ G G G ",
"G G G H H J J J { - - + @ # # i i y.u.i.p.p.s.j.j.l.l.z.d z 6 6 4 * * l.l.j.s.s.p.p.i.u.y.r.r.i 2 : 0.8.8.8.Z & o X G G G G G G ",
"V G G G G J J J J 8.8.9.; : 2 r.r.y.y.u.,.p.p.a.s.s.j.k.N d d 6 4 * * j.s.s.a.p.p.i.u.>.t.r.r.w.: ; S 8.8.J & % $ G G G G G G G ",
"V V G H H J J J J { { 8.9.; : w.e.r.r.y.y.u.i.p.p.p.s.s.N d 4 4 * * * a.a.p.p.i.u.y.y.t.r.r.w.w.; - O 8.J Z % % H G G G G G G G ",
"G G G G G H J J J J { 8.S ; ; w.w.r.r.r.y.y.u.u.i.i.p.p.p.p.* * * 1.p.p.p.u.u.u.y.y.r.r.w.w.q.q.9.- o 8.{ J J % H H G G G G G G ",
"G G G G G G G H Z J A J S @ - + F w.w.r.r.r.y.y.y.y.u.i.u.i.4 4 4 a ,.y.u.y.y.t.t.r.r.w.' F F 9.S = = Z Z J G $ V G G V V G V V ",
"G V V G V G H V C C Z A o - - O + F w.' ' r.r.r.y.y.>.y.y.>.N 4 4 i 8 >.t.t.[ r.r.' w.' 0.D S S o = & J C C V $ V V V V V V V V ",
"V     V V V V     . X X X & - - O + @ @ # # # , > > > 3 8 8 d 4 4 , < , , > > # # # @ + + O = o o & & Z C C   $                 ",
"                .   . . % & & - - O 9.9.@ @ : 2 # 3 r.e.e.e.N d 4 3 3 3 > # # ; @ @ + + O O o % & % % . . $   $ $               ",
"  $ $ $ X     $ $ % $ % % & & & & - S S - - ; : : : F w.w.F N d 4 2 2 2 ; ; ; ; - - - = = & & & % % %           $ $ $ $   $ $ $ ",
"G $ $ $ X . G G G G H J H H J { J & - - - - 8.0.; ; : F : 4 d 4 4 q.q.9.q.9.9.9.8.9.{ 8.= & & & J J H H G G G G G $ $ $ G G G G ",
"G G G $   G G G G G H G H H H J J { & & & 8.8.8.8.9.- ; - 9.d d 4 9.9.9.9.9.{ 8.{ { { { J & % % H H H G G G G G G G $ G G G G G ",
"G G G $ $ G G G G G G G H H J H H J J & & 8.J 8.{ 8.- - - 8.N 4 4 9.{ 9.8.{ { 8.A A Z J J & % G H H G G G G G G G G $ G G G G G ",
"G G G $ $ G G G V G G V G G G G G V G $ % G { { J { { * & { 7 7 4 { { { Z Z G { G G G G G G $ G G G G G G G G G G V $ G G G G G ",
"G G V $ $ G G V V G G G G G G G V G G $ $ G Z J Z J J % * { d 4 4 { J { { J G G { G G G G G $ V G G V V G G G V G V $ G V V G G ",
"G V V $ $ V V G G V G V V V G V G V V $ $ V G Z G Z Z % $ Z N 4 4 Z J Z J C V V G G G V V V $ $ V V G G V G V G V V   V G G V V ",
"V V     $   V V V V V V V V V V V V   $ $ $ V Z C C $ % % . N d 4 C Z V Z V V V V G V V $ $ $ $   V V V V V V V         V V V V ",
"      $ $                             $ $       $ $ . $ $ . N d 4                     $ $ G G $                     $         $ ",
"      $ $ $ $                       $ $ $ $         $ $ $ $ d 4 4 $   $               $ G G V $ $                 $ $           ",
"G G G G G G G G G G G $ $ $     G G G G G G   $ $ $ G G H G N 4 4 G { G G G G G G G $ $ V V $ $ G G G G G $ $ $ $ $ $ G G G G G ",
"G G G G G G G G G G G G $ $   G G G G G G G $ $ $ G G G H G d d 4 G G G G G G G G G G $ $ $ $ G G G G G G G $ $ $ $ $ G G G G G ",
"G G G G G G G G G G G G G $ $ G G G G G G G $ $ $ G G G G G d d 4 G G G G G G G G G G G $ $ $ G G G G G G G G $ $ $ G G G G G G ",
"G G G V G G G G G V G G G $ $ G G G G G G G G $ G G G V G V N 4 4 G G G G G V V G G G G G $ $ G G G V G G G G $ $ G G V G G G G ",
"G G G G G G G V G V G G G $ $ G G G G G G G G $ V G G G V V 4 4 4 G G V G G V G G G G G G $ G G G G G G G G G $ $ G G G G V G G ",
"G G G G G G G G G G G G G $ $ V V V G G G V V     G V G G G G G G G G G G G G G G G G G G $ G G G G G G G G G $ $ V G G G V G V ",
"G G G G G G G G V G V G V $ $ V G G V V V G G $   V G V G G G G G G G G G V G G G G V G V $ V V G G G G G G G $ $   V G G G G G ",
"G G V G V V G V G V V V   $ $ V V V V V G V V $   V V V G V G G V V G V V G V G G V V V   $   V V G V V V G V $ $     V G V G V ",
"V V V V V V V V V         $ $           V V     $       V V V V V V V V V V V V V         $     V V V V V V     $ $   V V V V V ",
"                      $ $ $ $                 $ $ $ $                                 $ $ $ $ $               $ $ $           $ "
};
