/* XPM */
static char *pixil_frame_01699886104[] = {
/* columns rows colors chars-per-pixel */
"64 64 2 1 ",
"  c #FF5622",
". c #E0DFDF",
/* pixels */
"................................................................",
"................................................................",
"................................................................",
"................................................................",
"................................................................",
"................................................................",
"................................................................",
"...................      .......................................",
"................... .....                  .....................",
"................... ............................................",
"................... ............................................",
"................... ............................................",
"................... ............................................",
"................... ............................................",
"................... ............................................",
"................... ............................................",
"................... ............................................",
"................... ............................................",
"................... ............................................",
"................... ............................................",
"................... ............................................",
"................... ............................................",
"................... ......                 .....................",
"....................      .................  ...................",
"....................  ..........................................",
".................... ...........................................",
".................... ...........................................",
".................... ...........................................",
".................... ...........................................",
".................... ...........................................",
".................... ...........................................",
".................... ...........................................",
".................... ...........................................",
".................... ...........................................",
".................... ...........................................",
".................... ...........................................",
"..................... ..........................................",
"..................... ..........................................",
"..................... ..........................................",
"..................... ..........................................",
"..................... ..................... ....................",
".....................                        ...................",
"................................................................",
"................................................................",
"................................................................",
"................................................................",
"................................................................",
"......... ............................. ........................",
"........    ........................... ........................",
".......  ... .......................... ........................",
"....... ... ........................... ........................",
"....... .. ..........  ................ ........................",
"....... .  .......   .  .. .....  ..... ........................",
".......   ........ .... .. ...  . .... ...........   ...........",
"....... ......... ..... .. .  ........ .........  ..  ..........",
"....... ......... ...... .  .......... .......       ...........",
"....... ........ ...... ..  ..........          ................",
"....... ........ ....  ... ........... ........ ................",
"....... .........    ..... ........... ........ ................",
"...................................... .........        ........",
"...................................... .........................",
"...................................... .........................",
"...................................... .........................",
"................................................................"
};
