/* XPM */
static char * brickwall_door_closed_xpm[] = {
"64 64 177 2",
"  	c #1E1E1E",
". 	c #202020",
"+ 	c #1F1F1F",
"@ 	c #1C1C1C",
"# 	c #1A1A1A",
"$ 	c #1B1B1B",
"% 	c #1D1D1D",
"& 	c #191919",
"* 	c #212121",
"= 	c #565656",
"- 	c #636363",
"; 	c #5C5C5C",
"> 	c #545454",
", 	c #606060",
"' 	c #585858",
") 	c #5F5F5F",
"! 	c #525252",
"~ 	c #595959",
"{ 	c #5E5E5E",
"] 	c #626262",
"^ 	c #4F4F4F",
"/ 	c #5B5B5B",
"( 	c #5A5A5A",
"_ 	c #454545",
": 	c #434343",
"< 	c #474747",
"[ 	c #575757",
"} 	c #5D5D5D",
"| 	c #505050",
"1 	c #4B4B4B",
"2 	c #414141",
"3 	c #535353",
"4 	c #151515",
"5 	c #444444",
"6 	c #464646",
"7 	c #424242",
"8 	c #4E4E4E",
"9 	c #393939",
"0 	c #181818",
"a 	c #404040",
"b 	c #171717",
"c 	c #161616",
"d 	c #515151",
"e 	c #616161",
"f 	c #555555",
"g 	c #4D4D4D",
"h 	c #4C4C4C",
"i 	c #3E3E3E",
"j 	c #3F3F3F",
"k 	c #3D3D3D",
"l 	c #4A4A4A",
"m 	c #141414",
"n 	c #383838",
"o 	c #4E3D30",
"p 	c #484848",
"q 	c #66503E",
"r 	c #634D3D",
"s 	c #715541",
"t 	c #7A5C44",
"u 	c #6C533F",
"v 	c #6B5340",
"w 	c #6C5340",
"x 	c #795A44",
"y 	c #664F3E",
"z 	c #69503E",
"A 	c #644E3D",
"B 	c #6F5540",
"C 	c #69523F",
"D 	c #695240",
"E 	c #6D5441",
"F 	c #6A5140",
"G 	c #68503E",
"H 	c #6A523F",
"I 	c #68513F",
"J 	c #494949",
"K 	c #654E3E",
"L 	c #6A513F",
"M 	c #6E5440",
"N 	c #6F5440",
"O 	c #755843",
"P 	c #69513F",
"Q 	c #705541",
"R 	c #674F3E",
"S 	c #6B523F",
"T 	c #725642",
"U 	c #6B533F",
"V 	c #664F3F",
"W 	c #6D5340",
"X 	c #6E5441",
"Y 	c #6A5240",
"Z 	c #67503E",
"` 	c #614B3C",
" .	c #715641",
"..	c #6D5440",
"+.	c #6F5541",
"@.	c #755842",
"#.	c #785A43",
"$.	c #785B43",
"%.	c #795C44",
"&.	c #735742",
"*.	c #7B5C44",
"=.	c #654E3D",
"-.	c #6E5540",
";.	c #745742",
">.	c #624D3D",
",.	c #5F4A3B",
"'.	c #7A5A43",
").	c #765943",
"!.	c #765843",
"~.	c #725742",
"{.	c #6C523F",
"].	c #69503F",
"^.	c #654F3E",
"/.	c #735741",
"(.	c #775942",
"_.	c #6F5441",
":.	c #6C5440",
"<.	c #6C5240",
"[.	c #6E5340",
"}.	c #684F3E",
"|.	c #745842",
"1.	c #725641",
"2.	c #68503F",
"3.	c #795B43",
"4.	c #67513E",
"5.	c #6B5240",
"6.	c #757575",
"7.	c #634C3D",
"8.	c #735841",
"9.	c #838383",
"0.	c #6A503E",
"a.	c #735641",
"b.	c #765942",
"c.	c #5D4737",
"d.	c #67503F",
"e.	c #745741",
"f.	c #3B3B3B",
"g.	c #3C3C3C",
"h.	c #6B513F",
"i.	c #6D533F",
"j.	c #715642",
"k.	c #664E3D",
"l.	c #705540",
"m.	c #755943",
"n.	c #6E5341",
"o.	c #755742",
"p.	c #715742",
"q.	c #695140",
"r.	c #735842",
"s.	c #624C3D",
"t.	c #644D3D",
"u.	c #765842",
"v.	c #69513E",
"w.	c #644E3E",
"x.	c #705641",
"y.	c #614C3C",
"z.	c #6D5341",
"A.	c #3A3A3A",
"B.	c #604B3C",
"C.	c #6E5541",
"D.	c #7C5C44",
"E.	c #664E3E",
"F.	c #775943",
"G.	c #68513E",
"H.	c #725741",
"I.	c #6D5240",
"J.	c #775A42",
"K.	c #664F3D",
"L.	c #67513F",
"M.	c #6D523F",
"N.	c #674E3E",
"O.	c #674F3F",
"P.	c #745843",
"Q.	c #705441",
"R.	c #634E3D",
"S.	c #775A43",
"T.	c #785A44",
"  . + +   @   # $ @ @ @ #   $ + +   # +   @ $ $ + . + % @ &   % @ %   $ $ @   & @ %   + + + @ $   % @ & $ & &   @ # % %   % % % ",
"% * = - +   % ; > @ & # > , ' - ' = ) ! ' # # & = ) ~ > ' > { - > ! , { + +   ] ^ $ @ % ~ / ' - ' > - = ( # & @ = - ! ; - ! ! % ",
"+ _ > : < # [ } : | $ ' _ = ' | [ ! : ! < _ # = = _ 1 < ' = ' ' < 2 3 > [ $ / [ > > + | 3 > [ ! = > [ ' > = 4 _ > 5 > ' > 5 ' 6 ",
"  _ _ = 6   6 3 = _ & 5 [ _ = 5 < > = > > > @ 7 : 8 9 5 > < ' < [ > ' < : @ < < ' < & _ ' < 6 ! : 2 = 7 | 2 0 _ 7 = 6 3 [ [ < < ",
"  % 6 7   $ @ a : b @ $ 7 _ : : _ : _ a 5 # # & 5 6 _ < 5 < < _ : < < 6 % # @ < _ $ % $ _ 5 5 < 5 < < 6 : @ $ % 5 < < 2 < 5 5   ",
"* @ @   % # @ @   $ @   % @ @ +   . @ @ $ % +   @ $ . % * .   @ # @ & @ & c & # $ @ % @ 0 $ @ $ b c & b b # &   . $ & b 4 $ b @ ",
"( | $ @ $ d ' - '   $ # ] [ ' ' e { > = ) [ - ' ! , ] # @ @ } = > ) ) , ! f f , 3 ) ' - - ! ; } - - ' ! ) { ] > - * $ 0 > { > / ",
"[ { d $ f ~ { ' - | $ ' > | , > ' - { = > e [ ' ' = | {   } > ] [ [ [ ' - ! > > { - ' = | f , > ' ' ' ) , > ] > [ / & } f > - > ",
"' d g $ ; | d ' ] ' . h 3 | 2 7 ! < 5 [ > 8 a ' ' : 3 5 $ : 6 5 5 < ] < a | < ' < ' [ | h ! 5 7 < = > > = = ' 5 2 i # | ! ' ' = ",
"[ ! 8 % 3 = > ' g h &   5 j j 7 2 < 5 < < [ 5 : d 2 6 # # . j 2 < 5 5 < f a ^ < : > : k 7 a 8 > > 2 < < _ _ 6 7 > # $ { d ' ' = ",
"[ f !   ! 6 > ' 8 > @   b &   # $ # % % % & + 0 0 # @ % 0 % # % @ 0 @ # #     # & # @ # 0 # # @ %   & $ 0 0 @ & % @ & f ! > = = ",
"> | >   > > = ' | >   % ] 3 ( > ' ~ l ; 0 & % ; ] # $ + - ' | ; | , | / # $   | / = ' ' - [ | } ] ! f ' % m % ' ( $ & f l f d h ",
"3 > ! $ > f > ' 3 3 $ 6 - ' d 3 > = [ ~ { % / ' } { # | ' f > ' ' f 8 | |   [ [ > > > ' > | | | ! ! = ' ) $ - f = 3 % = 3 > 8 l ",
"= = | $ < 1 ! ' [ > @ [ [ ' > d > ' ! 5 ! % ' : 7 [ @ 5 ' ' > < ' ' ' ! 2 & > > 5 [ = : < ' < < [ > = ' 3 @ ' ] > :   2 ! = = | ",
"! : ' % | : | ' < > @ a | < | 7 > < _ > : % a = ! : % _ ' 6 2 f = < ' 5 > @ 6 < < > : = > 5 < [ > : < 7 2 & ' ' < 8 % _ ' 5 > ' ",
"! 5 f & 5 ' 7 ' _ a $ & j 8 i j d 5 > :   $   5 5 @   % < 7 < 5 a _ 7 7 # # % < < _ : : 5 5 _ _ 5 : < < # + 5 = 2 n @ < < [ _ _ ",
": j 0 & % < < < < 0 @ @ c c b @ + $ % % .   % @ $ +   + & # + $ $ +   + # & # $ + @ % + % $ @ +   @ $ + % # @ 6 7 @ @ @ : 6 7 5 ",
". . % @ % $ #   @ @ & @ - ' - # @ o o o o o o o o o o o o o o o o o o o o o o o o o o o o o o + . ' ' ' @ $ @ .     + $ + @ @ % ",
"+ % } 3 p 8 } ' ( @ b , - ' - ^ $ o o q r s t o u v w x y z A B C o D E F q G o v w H I I o o   ! = ; ! = & % ; $     = ~ / f $ ",
"$ ! > 3 J = = 8 3 1 # 1 8 ' l d 0 o q K L M N o G O P Q y R S T Q o w U V Q W o v w X Y I I o @ 3 < : ! j b ' ' 3 + , [ = 8 3 ' ",
"$ 7 [ [ > [ ! 3 _ |   @ 6 ' 7 @ # o Z r u M r o A K w r K ` R w  .o ..+.@.#.+.o $.%.&.*. .I o @ 7 > 3 : < b ' _ _   > 7 ! _ = 7 ",
"  2 2 3 7 k > : j ! $ # % # + %   o =.r q P y o -.;.&.y >.,.A H Q o Q w M Q '.o @.#.).!.O ~.o @   j : 5 $ c > 5 _ @ _ _ > < 7 7 ",
". + 2 6 5 a 2 : j   @ 0 | ' < @ + o M u {.].^.o w M I y r ].G X S o /.(._./.w o u s +.~.:.w o $ $ $ @ $   & # : . . @ 5 5 : _ & ",
"+ @ @ $   $ %   + @ $ < ' - - < # o R <.[.G R o R }.W V =.{.P y r o |.W 1.N 2.o w 3.w 4.C 5.o 0 @ ' ' ' @ @     % % % $ @ @ @ $ ",
"~ ! | [ $ @   ' ' & @ ) } ^ ; > # o ..X 6.S 2.o ;.@.W H 6.{.7.r z o W 2.6.1.G o 8.M 6.B w U o % | > / > = &   ; ; ^ } & & . , } ",
"! ' h ^ ]   e ' ) l + ] = ) ] e % o R 6.9.6.N o M S W 6.9.6.0.a. .o H 6.9.6.+.o b.6.9.6...w o + | } ' > = $ , ' ' ; > ; & ' J ! ",
"! = ! = =   = ' ' | + [ > ' ! d $ o K c.- c.W o H S W c.- c.H /.{.o w c.- c.1.o w c.- c.O d.o $ 7 d > = 6 # = ; > ' ' ' & > | ' ",
"> 3 8 > ! & = ' > > @ ^ = > d 8   o Z N c.P y o e.;.;.1.c.;.5.Z <.o Z S c.X +.o W &.c.+.w y o   1 a f.> g.% | f ' ' ' ' # ' | 8 ",
"8 3 | > | 0 ' ' > ^ # = ' ! > = $ o h.P u S M o y i.W =.L Z }.S S o X 5.u v s o P N 4...j.5.o   = 3 7 > d $ ^ d | = ' ' @ ' = ! ",
"> ! > > ! @ = ' _ g % d > h 3 ! @ o =.^.L M N o X S 1.P Q [.k.u R o ..l.P H F o d.B S m.~.q o % 7 < > > a % | > d ' ' = & > = = ",
"l 8 = = f.  : ' 5 | & 8 : [ ' 7 % o Q w L [.n.o P I w X S o.G [.R o Q H L Z w o q +.p.p.F q o @ 7 < : < < $ ' < ^ 3 : _ 4 7 | > ",
"f < : 3 3 % 6 ' 7 _   5 = : 6 |   o U H H <.r o q.2.W 5.P Q M S G o U q P I N o y w T {.:.r.o * @ < : 6 % % > < _ d f._ b 6 8 : ",
"5 6 2 _ $ % @ ' < # # j 7 < : < @ o s.A P ^.t.o K Z I y Z G d.W w o ..v A H u.o 5.U s T H M o $   % & @   # $ 7 < < _ + @ # j 2 ",
"% 0 @ # # @     + % #   < < < @ + o K v.M 2.P o q G  .G w.w.P P 2.o [.P L Z U o  .B /.|.x.&.o #   - - - + # & $ b # . $ # & & $ ",
"+   $ - ' e / ( 8 # @   % @   . % o Z r y.y y o q V s 5.d.F P y y o W Y w z.M o #.N Q Q s Y o $ 6 } = > -   % ' [ > ) ' - ^ > [ ",
"' * A.' ' [ > ' } d b # ~ ' )     o y P B.}.Z o F I C.G H P P G L o 2...w Q v o W R P #.M {.o $ ' ' < > [ # ' 8 f [ [ ] [ > ^ < ",
"_ % : ' < = < < = 5 0 } f - g e @ o y q w.G r o D.P P L R 2.E.y Z o P 5.Q F.@.o H 5.L q Z W o % f ' = ' [ # ' j = _ f a > : < ! ",
"5 # : 5 [ > ' < 3 d & : d ' ) ^ @ o K ^.G.Z L o l.@.y Q [.Z k.1.5.o -.H...P W o s <.9.9.Z Q o + > < h < '   ' 7 > ! 3 g.f 7 [ 5 ",
"  @ + a 2 2 7 2 f.$ @ [ ' ' ' { % o W Z ].2.Z o }.2.L P z.S <.T w o P F ..W H o W c.6.6.c.d.o @ > 3 ^ ' ! $ @ < 7 k 5 : 6 : _ 5 ",
"%   +   $ % + @ + @ @ ' ' ' ' ' + o S S 6.L K o L ].I.P 6.J.1.@.W o X w 6.w W o F.c.6.6.c.q o # ' ' ' ' < 0 & & % % $ $   # + @ ",
") } > + @ $ ' ' '   . a ' ' ' =   o N 6.9.6.K.o ;.|.B 6.9.6.Z S S o x 6.9.6.Q o |.c.6.6.c.P o # J , < l , % $ , p 5 ( ' & % $ d ",
"| ! > d + 8 | ' > '   = e ' ( | % o +.c.- c.h.o 2.x.|.c.- c.w 2.w o z.c.- c.d.o ].c.6.6.c.H o $ 3 _ ' > _ $ ! > d ' > ' { % - ) ",
"[ < > 6 % [ ' ' < < & > = < | > $ o w ..c.M 1.o P P _.8.c.H r W N o Q W c. .H o {.c.6.6.c.P o + a ' < < < $ 2 ' [ f ! [ '   ' : ",
"_ = < = % < < ' _ _ @ < = ' ^ 5 @ o W u N S 2.o q d.2.).H ^.r A y o H M Y ..R o 5.c.6.6.c.L o @ % 6 < _ & @ < j ^ _ a = a % _ ' ",
"_ 5 7   + $ < ' < c & f < < ' 5 @ o >.G O S P o Z L r |.~.L.y R K o q y y 1. .o Q c.- - c.H o     # % % $ b % 2 _ 5 a 5 & % $ _ ",
"% %   @ %   % % 0 c 0 < ' ' < <   o N P M q ^.o E.2.G x.B t.A P H o w Z r H x.o U ^.c.c.^.y o % . | | < & & & & # #   @ $ % $ # ",
"+   - > ' f ! > l # # 8 _ ^ e ' . o 2.I U t.>.o R 5.H y 2.r ].^.Z o v _.<.w C o w d.y y d.I o % = - ' ' - $ % ] ' ; d ' - ] , . ",
"+ - > { ~ = 3 ! ~ f     | h 7 +   o S G.G y R o G P L y A V K G q o j.U F.5.H o M.w G y ^.^.o + e > ] ' - $ - , ; f | ' ! > d ; ",
"  8 [ ! > ^ J ! ! =     + % $ $ $ o Q q o.L A o E.K W N 2.w  .[.^.o u 2.a.v s o W U R Q Y I o % ! ! [ ' = @ ' { d ' ' > f ' [ [ ",
"+ 8 8 | > ^ 3 = ' > + % f f ! % @ o a.M [.K y o i.Z G.T C W 5.t.P o P N.Z Q X o <.G A G q.H o $ 2 = > < ! @ ) d ^ ! ! > = ' ' [ ",
"+ d 3 [ ' = 8 ^ > 1 @ f.8 a i i @ o d.Z L O.G o y 2.S M W U G P P o L G S I 5.o P [.w d.5.w o   A.a < ' _   [ f ! = > = ' [ [ d ",
"* = ' ^ ^ [ 3 d | _ @   _ : i + @ o |.Z S K r o A H ..G P ....S v.o K 5. .L.w o q G.^.L.C C o   $ k k < $ % > f 8 6 g = ' | ! > ",
"% j = > 2 < > | j 2 0     @   $ $ o M H 1.R l.o {.[.H Q d.w _.=.L o R w B Z ].o y I H y y L.o $ & $ + . $ c > 2 > ' _ 5 ' 3 > < ",
"+ i > < _ > 6 ' : 2 $ $ ) g ( + * o {.H W 5.M o R ].G G.P x.1.1.L o =.G _.I M o F I L ^.^.y o b b ) e - # & 3 g.^ 5 = : < ' < 5 ",
"    : j : : < _ _ @ @ , } ) d - @ o +...d.P K o y {.y ^.K Q y M I o L R P P H o I L 1.A d.d.o   / f - ' ' $ & 2 7 6 a i 2 : <   ",
"  + . + + % % % + . $ ' ' ' ' ' + o 1.^.@.E.h.o 2.d.5.^.y ^... .L o H L Z T w o ..W ~.P w d.o % ' ' ' ' ' b   % # $ c # @ b 0 % ",
"/ g } @ % . } = ' % @ ! ' ' ' '   o Q S 6.y W o A w 1.z.6.4. . .L o 5.W 6.1...o Q P 6.T P.d.o % - 7 | - l & @ ' ' , | ; = } } ; ",
"[ } ! e # e ^ , ' ' @ { ' { ' ]   o +.6.9.6.=.o ..j.M 6.9.6.~.P M o F 6.9.6. .o Q 6.9.6.I P o $ 5 7 h h ^ @ , ' ~ > > ! > 3 > ( ",
"| ^ > =   | 8 ! ! 3 @ ' ' = ' ! & o z.c.- c.K o w Q. .c.- c.L S a.o R.c.- c.B o p.c.- c.I q.o @ _ = _ ' a % > ' > ' = ! = g ! ! ",
"| [ [ > # 5 > f = = % > = 7 ' : $ o ..&.c.N <.o G G Q Q c.+.P _.T o P 5.c.w P o Q G.c.x.P I o +   _ _ < 0 % ' ' 5 [ = 3 f = 8 1 ",
"| | ' > % > 5 k 1 2 + 6 > 6 ' ! $ o A q.U G &.o P ..L B C S u Z :.o h.P ..r.I o I +.I +.X X o .     $ # &   = ' g.d h i k f ^ j ",
"5 | 6 <   2 _ | f.3   ' 6 < ' 9 0 o q y 2.P M o B m.W E &.N C.w &.o |.S.C.I I o w w +...I H o     | > {   % a ' : i < i h ! n ^ ",
"< < : @ % % _ _ _ % # k 7 < ' < $ o o q q.2.1.o z  .W T.|.w I ~.j.o #. .I Y Y o X ~.+.I d.o o & 5 J h h 9 % % ' < 2 A.k 9 i j 7 ",
"    % @ % $   @ % .   < < ' < < $ o o o o o o o o o o o o o o o o o o o o o o o o o o o o o o @ < ' < ' < $ @ @ # @ + @ % & #   "};
