/* XPM */
static char * brickwall_door_open_xpm[] = {
"64 64 109 2",
"  	c #1E1E1E",
". 	c #202020",
"+ 	c #1F1F1F",
"@ 	c #1C1C1C",
"# 	c #1A1A1A",
"$ 	c #1B1B1B",
"% 	c #1D1D1D",
"& 	c #191919",
"* 	c #212121",
"= 	c #565656",
"- 	c #636363",
"; 	c #5C5C5C",
"> 	c #545454",
", 	c #606060",
"' 	c #585858",
") 	c #5F5F5F",
"! 	c #525252",
"~ 	c #595959",
"{ 	c #5E5E5E",
"] 	c #626262",
"^ 	c #4F4F4F",
"/ 	c #5B5B5B",
"( 	c #5A5A5A",
"_ 	c #454545",
": 	c #434343",
"< 	c #474747",
"[ 	c #575757",
"} 	c #5D5D5D",
"| 	c #505050",
"1 	c #4B4B4B",
"2 	c #414141",
"3 	c #535353",
"4 	c #151515",
"5 	c #444444",
"6 	c #464646",
"7 	c #424242",
"8 	c #4E4E4E",
"9 	c #393939",
"0 	c #181818",
"a 	c #404040",
"b 	c #171717",
"c 	c #161616",
"d 	c #515151",
"e 	c #616161",
"f 	c #555555",
"g 	c #4D4D4D",
"h 	c #4C4C4C",
"i 	c #3E3E3E",
"j 	c #3F3F3F",
"k 	c #3D3D3D",
"l 	c #4A4A4A",
"m 	c #141414",
"n 	c #383838",
"o 	c #4E3D30",
"p 	c #484848",
"q 	c #725744",
"r 	c #494949",
"s 	c #654E3E",
"t 	c #67503E",
"u 	c #634D3D",
"v 	c #6C533F",
"w 	c #654E3D",
"x 	c #66503E",
"y 	c #6E5440",
"z 	c #6C523F",
"A 	c #674F3E",
"B 	c #6C5240",
"C 	c #6E5340",
"D 	c #6D5440",
"E 	c #6E5441",
"F 	c #68513E",
"G 	c #644E3D",
"H 	c #5D4737",
"I 	c #6F5440",
"J 	c #3B3B3B",
"K 	c #3C3C3C",
"L 	c #6B513F",
"M 	c #69513F",
"N 	c #654F3E",
"O 	c #6A513F",
"P 	c #705541",
"Q 	c #6C5340",
"R 	c #6B533F",
"S 	c #6A523F",
"T 	c #624C3D",
"U 	c #69513E",
"V 	c #614C3C",
"W 	c #3A3A3A",
"X 	c #664F3E",
"Y 	c #604B3C",
"Z 	c #644E3E",
"` 	c #6D5340",
" .	c #69503F",
"..	c #6B523F",
"+.	c #6F5541",
"@.	c #725641",
"#.	c #624D3D",
"$.	c #68503E",
"%.	c #755843",
"&.	c #68503F",
"*.	c #68513F",
"=.	c #755742",
"-.	c #735641",
";.	c #67503F",
">.	c #745842",
",.	c #574638",
"'.	c #6D5341",
").	c #6B5240",
"!.	c #695140",
"  . + +   @   # $ @ @ @ #   $ + +   # +   @ $ $ + . + % @ &   % @ %   $ $ @   & @ %   + + + @ $   % @ & $ & &   @ # % %   % % % ",
"% * = - +   % ; > @ & # > , ' - ' = ) ! ' # # & = ) ~ > ' > { - > ! , { + +   ] ^ $ @ % ~ / ' - ' > - = ( # & @ = - ! ; - ! ! % ",
"+ _ > : < # [ } : | $ ' _ = ' | [ ! : ! < _ # = = _ 1 < ' = ' ' < 2 3 > [ $ / [ > > + | 3 > [ ! = > [ ' > = 4 _ > 5 > ' > 5 ' 6 ",
"  _ _ = 6   6 3 = _ & 5 [ _ = 5 < > = > > > @ 7 : 8 9 5 > < ' < [ > ' < : @ < < ' < & _ ' < 6 ! : 2 = 7 | 2 0 _ 7 = 6 3 [ [ < < ",
"  % 6 7   $ @ a : b @ $ 7 _ : : _ : _ a 5 # # & 5 6 _ < 5 < < _ : < < 6 % # @ < _ $ % $ _ 5 5 < 5 < < 6 : @ $ % 5 < < 2 < 5 5   ",
"* @ @   % # @ @   $ @   % @ @ +   . @ @ $ % +   @ $ . % * .   @ # @ & @ & c & # $ @ % @ 0 $ @ $ b c & b b # &   . $ & b 4 $ b @ ",
"( | $ @ $ d ' - '   $ # ] [ ' ' e { > = ) [ - ' ! , ] # @ @ } = > ) ) , ! f f , 3 ) ' - - ! ; } - - ' ! ) { ] > - * $ 0 > { > / ",
"[ { d $ f ~ { ' - | $ ' > | , > ' - { = > e [ ' ' = | {   } > ] [ [ [ ' - ! > > { - ' = | f , > ' ' ' ) , > ] > [ / & } f > - > ",
"' d g $ ; | d ' ] ' . h 3 | 2 7 ! < 5 [ > 8 a ' ' : 3 5 $ : 6 5 5 < ] < a | < ' < ' [ | h ! 5 7 < = > > = = ' 5 2 i # | ! ' ' = ",
"[ ! 8 % 3 = > ' g h &   5 j j 7 2 < 5 < < [ 5 : d 2 6 # # . j 2 < 5 5 < f a ^ < : > : k 7 a 8 > > 2 < < _ _ 6 7 > # $ { d ' ' = ",
"[ f !   ! 6 > ' 8 > @   b &   # $ # % % % & + 0 0 # @ % 0 % # % @ 0 @ # #     # & # @ # 0 # # @ %   & $ 0 0 @ & % @ & f ! > = = ",
"> | >   > > = ' | >   % ] 3 ( > ' ~ l ; 0 & % ; ] # $ + - ' | ; | , | / # $   | / = ' ' - [ | } ] ! f ' % m % ' ( $ & f l f d h ",
"3 > ! $ > f > ' 3 3 $ 6 - ' d 3 > = [ ~ { % / ' } { # | ' f > ' ' f 8 | |   [ [ > > > ' > | | | ! ! = ' ) $ - f = 3 % = 3 > 8 l ",
"= = | $ < 1 ! ' [ > @ [ [ ' > d > ' ! 5 ! % ' : 7 [ @ 5 ' ' > < ' ' ' ! 2 & > > 5 [ = : < ' < < [ > = ' 3 @ ' ] > :   2 ! = = | ",
"! : ' % | : | ' < > @ a | < | 7 > < _ > : % a = ! : % _ ' 6 2 f = < ' 5 > @ 6 < < > : = > 5 < [ > : < 7 2 & ' ' < 8 % _ ' 5 > ' ",
"! 5 f & 5 ' 7 ' _ a $ & j 8 i j d 5 > :   $   5 5 @   % < 7 < 5 a _ 7 7 # # % < < _ : : 5 5 _ _ 5 : < < # + 5 = 2 n @ < < [ _ _ ",
": j 0 & % < < < < 0 @ @ c c b @ + $ % % .   % @ $ +   + & # + $ $ +   + # & # $ + @ % + % $ @ +   @ $ + % # @ 6 7 @ @ @ : 6 7 5 ",
". . % @ % $ #   @ @ & @ - ' - # @ o o o o o % % 0 $ @ $ # . + $   % % % % % & % . $ + $ $ % $ + . ' ' ' @ $ @ .     + $ + @ @ % ",
"+ % } 3 p 8 } ' ( @ b , - ' - ^ $ o q q q o @ + $ $ & $ # @ $ $ @ $ . @ @ @ % +   $ % $ @ + +   ! = ; ! = & % ; $     = ~ / f $ ",
"$ ! > 3 r = = 8 3 1 # 1 8 ' l d 0 o q s q o $ + $ & @ % $ % @ +   + + % # 0 # % @ + +   @   % @ 3 < : ! j b ' ' 3 + , [ = 8 3 ' ",
"$ 7 [ [ > [ ! 3 _ |   @ 6 ' 7 @ # o t u v o # b & # $ 0 4 $ %   $ % . $   # $ 0 $   .   % % & @ 7 > 3 : < b ' _ _   > 7 ! _ = 7 ",
"  2 2 3 7 k > : j ! $ # % # + %   o w u x o @ $ @     @ % $   .   .   #   @   $ # + + + @   % @   j : 5 $ c > 5 _ @ _ _ > < 7 7 ",
". + 2 6 5 a 2 : j   @ 0 | ' < @ + o y v z o   % . @ + % 0 & @ # + * + #   % + + +   .   @ $ $ $ $ $ @ $   & # : . . @ 5 5 : _ & ",
"+ @ @ $   $ %   + @ $ < ' - - < # o A B C o   % @ @ % $ & @ & b * % @   @ + $ + . @ % %   & $ 0 @ ' ' ' @ @     % % % $ @ @ @ $ ",
"~ ! | [ $ @   ' ' & @ ) } ^ ; > # o D E x o %   % $ + % # # # $ + %   % % % + + * %   % & % + % | > / > = &   ; ; ^ } & & . , } ",
"! ' h ^ ]   e ' ) l + ] = ) ] e % o A F G o @         @ 0 $ $ % $ $ % + % %     .   * + @ +   + | } ' > = $ , ' ' ; > ; & ' r ! ",
"! = ! = =   = ' ' | + [ > ' ! d $ o s H A o % . + $ @ $ #       @ $ % @ % + % @   % * $ & @ $ $ 7 d > = 6 # = ; > ' ' ' & > | ' ",
"> 3 8 > ! & = ' > > @ ^ = > d 8   o t I H o @ . * + % % $ $ . + . + % % .   $ @ * @ + % +   %   1 a J > K % | f ' ' ' ' # ' | 8 ",
"8 3 | > | 0 ' ' > ^ # = ' ! > = $ o L M v o $   +   $ $ & @   % %   % +   b # $ @ % &     . *   = 3 7 > d $ ^ d | = ' ' @ ' = ! ",
"> ! > > ! @ = ' _ g % d > h 3 ! @ o w N O o % $ @ % # + @ + % % # + & % b 0 $ $ # % 0 & & % + % 7 < > > a % | > d ' ' = & > = = ",
"l 8 = = J   : ' 5 | & 8 : [ ' 7 % o P Q O o # @   + % 0 0 + c #   + @ $ & # $ @ & % + & # # % @ 7 < : < < $ ' < ^ 3 : _ 4 7 | > ",
"f < : 3 3 % 6 ' 7 _   5 = : 6 |   o R S S o % . . + @ # $ $ % @   + % # % @ $   & $ # & @ + $ * @ < : 6 % % > < _ d J _ b 6 8 : ",
"5 6 2 _ $ % @ ' < # # j 7 < : < @ o T G M o %   % + % @ % + % @ @ @     + + @ @   &   + @ $ b $   % & @   # $ 7 < < _ + @ # j 2 ",
"% 0 @ # # @     + % #   < < < @ + o s U y o $ .   @ % # & +     +   . . . % $ $ + % % + % + @ #   - - - + # & $ b # . $ # & & $ ",
"+   $ - ' e / ( 8 # @   % @   . % o t u V o % + # % + # b $ @ %       % % $ #     % & + + @   $ 6 } = > -   % ' [ > ) ' - ^ > [ ",
"' * W ' ' [ > ' } d b # ~ ' )     o X M Y o @ $ $ @   % @ + %   $ + + @ #   @ + % + % @   . # $ ' ' < > [ # ' 8 f [ [ ] [ > ^ < ",
"_ % : ' < = < < = 5 0 } f - g e @ o X x Z o $ . +   $ % 4 % @ @ $ % $ @ $ $ % # 4   + + + % b % f ' = ' [ # ' j = _ f a > : < ! ",
"5 # : 5 [ > ' < 3 d & : d ' ) ^ @ o s N F o $   %   # % 0 . % $ @ # @ % + + %   # + % @ # # # + > < h < '   ' 7 > ! 3 K f 7 [ 5 ",
"  @ + a 2 2 7 2 J $ @ [ ' ' ' { % o ` t  .o + * . + # 0 # % @ @   0 @ @ $ & @   + * . @ 0 0 . @ > 3 ^ ' ! $ @ < 7 k 5 : 6 : _ 5 ",
"%   +   $ % + @ + @ @ ' ' ' ' ' + o ......o @ + $   @ $ + %     + . + # % # $ $ @   % + % % + # ' ' ' ' < 0 & & % % $ $   # + @ ",
") } > + @ $ ' ' '   . a ' ' ' =   o I O ` o   # % + $ % .   . $   * + & $ @ +         . @     # r , < l , % $ , p 5 ( ' & % $ d ",
"| ! > d + 8 | ' > '   = e ' ( | % o +.H @.o + @ + % % $ $ # + @ +   @ # $   + % @ % % % #     $ 3 _ ' > _ $ ! > d ' > ' { % - ) ",
"[ < > 6 % [ ' ' < < & > = < | > $ o Q D H o # & % @   + $ %   # @ $ % # $ %   & +   $ % & @ & + a ' < < < $ 2 ' [ f ! [ '   ' : ",
"_ = < = % < < ' _ _ @ < = ' ^ 5 @ o ` v I o #   @ $ @ % b @   $ # + @   $ % + # @ % % @ # & # @ % 6 < _ & @ < j ^ _ a = a % _ ' ",
"_ 5 7   + $ < ' < c & f < < ' 5 @ o #.$.%.o @ + @ + % % # @ @ # & @ $ % $ @ * % @ % # $ @ 0 $     # % % $ b % 2 _ 5 a 5 & % $ _ ",
"% %   @ %   % % 0 c 0 < ' ' < <   o I M y o %   # # @   % % % $ b 0 @ $ %   * % % % + % c 0 0 % . | | < & & & & # #   @ $ % $ # ",
"+   - > ' f ! > l # # 8 _ ^ e ' . o &.*.R o . .   @ %   & # $ % % 0     @ $   @ +   . @ % &   % = - ' ' - $ % ] ' ; d ' - ] , . ",
"+ - > { ~ = 3 ! ~ f     | h 7 +   o ..F $.o @ * % $   @ @ + @ % + % $ * # & @ @ @ % + %   $ % + e > ] ' - $ - , ; f | ' ! > d ; ",
"  8 [ ! > ^ r ! ! =     + % $ $ $ o P x =.o   +   $ $ $ @ + +   +     + @ & $   @ + +       % % ! ! [ ' = @ ' { d ' ' > f ' [ [ ",
"+ 8 8 | > ^ 3 = ' > + % f f ! % @ o -.y C o   + + # c % $ @ *   $ @ @ % $ % # $ + @ + . % # % $ 2 = > < ! @ ) d ^ ! ! > = ' ' [ ",
"+ d 3 [ ' = 8 ^ > 1 @ J 8 a i i @ o ;.t O o   +   @ & @     % # % $   %   % #   * +   & @   +   W a < ' _   [ f ! = > = ' [ [ d ",
"* = ' ^ ^ [ 3 d | _ @   _ : i + @ o >.t ..o   % # $ % % @ % @   % $ +   $ %   +   % % 4 # # #   $ k k < $ % > f 8 6 g = ' | ! > ",
"% j = > 2 < > | j 2 0     @   $ $ o y S @.o @ @ @ 0 0 @ @   @ b + %     & # % @ # # + $ @   @ $ & $ + . $ c > 2 > ' _ 5 ' 3 > < ",
"+ i > < _ > 6 ' : 2 $ $ ) g ( + * o z S ` o @   $ & # % $ @ $ # @ % % 0 $ % $ $ % + + & $   $ b b ) e - # & 3 K ^ 5 = : < ' < 5 ",
"    : j : : < _ _ @ @ , } ) d - @ o +.D ;.o @ # # # $   @ 0 # 0 0 b # # # @ # + % % % # @ $ $   / f - ' ' $ & 2 7 6 a i 2 : <   ",
"  + . + + % % % + . $ ' ' ' ' ' + o @.N ,.o + b + % % @ $ & % $ % # $ 0 @ @ & # & % @   % # @ % ' ' ' ' ' b   % # $ c # @ b 0 % ",
"/ g } @ % . } = ' % @ ! ' ' ' '   o P ..,.o # b % + % @ # %   @ . + @ @     $         + $ %   % - 7 | - l & @ ' ' , | ; = } } ; ",
"[ } ! e # e ^ , ' ' @ { ' { ' ]   o ,.,.,.o @     + +   @ $ #   @ . + . % % & % %   % % b @ % $ 5 7 h h ^ @ , ' ~ > > ! > 3 > ( ",
"| ^ > =   | 8 ! ! 3 @ ' ' = ' ! & o '.H ).o + % + . + %   $ 0 & b     + $ $ % & @ +   % $ # @ @ _ = _ ' a % > ' > ' = ! = g ! ! ",
"| [ [ > # 5 > f = = % > = 7 ' : $ o ,.,.H o +   % + . + # # + % @ $ $ @ % @ % $ @ # # 0 & #   +   _ _ < 0 % ' ' 5 [ = 3 f = 8 1 ",
"| | ' > % > 5 k 1 2 + 6 > 6 ' ! $ o ,.!.,.o 0 & % %   @ $ # @ @ # & %   @   @ # $ % + % b & @ .     $ # &   = ' K d h i k f ^ j ",
"5 | 6 <   2 _ | J 3   ' 6 < ' 9 0 o x X ,.o & b   @ $ @ & 0 % $ $ $ @ % $ % # $ % @ %   & &       | > {   % a ' : i < i h ! n ^ ",
"< < : @ % % _ _ _ % # k 7 < ' < $ o ,.,.,.o # & @ % @ % % $   $   + %   @ + % % @   % & @   $ & 5 r h h 9 % % ' < 2 W k 9 i j 7 ",
"    % @ % $   @ % .   < < ' < < $ o o o o o # #   . + + $ $ @ # %   @ + +   % #   + @   $   + @ < ' < ' < $ @ @ # @ + @ % & #   "};
