/* XPM */
static char * brickwall_xpm[] = {
"64 64 72 1",
" 	c #1B1B1B",
".	c #191919",
"+	c #1A1A1A",
"@	c #1F1F1F",
"#	c #1C1C1C",
"$	c #1E1E1E",
"%	c #1D1D1D",
"&	c #202020",
"*	c #212121",
"=	c #181818",
"-	c #171717",
";	c #565656",
">	c #636363",
",	c #5C5C5C",
"'	c #545454",
")	c #606060",
"!	c #585858",
"~	c #5F5F5F",
"{	c #525252",
"]	c #595959",
"^	c #5E5E5E",
"/	c #626262",
"(	c #4F4F4F",
"_	c #5B5B5B",
":	c #5A5A5A",
"<	c #161616",
"[	c #454545",
"}	c #434343",
"|	c #474747",
"1	c #575757",
"2	c #5D5D5D",
"3	c #505050",
"4	c #4B4B4B",
"5	c #414141",
"6	c #535353",
"7	c #444444",
"8	c #464646",
"9	c #424242",
"0	c #4E4E4E",
"a	c #393939",
"b	c #151515",
"c	c #141414",
"d	c #131313",
"e	c #404040",
"f	c #0F0F0F",
"g	c #121212",
"h	c #0E0E0E",
"i	c #101010",
"j	c #0D0D0D",
"k	c #111111",
"l	c #515151",
"m	c #616161",
"n	c #555555",
"o	c #4D4D4D",
"p	c #4C4C4C",
"q	c #4A4A4A",
"r	c #494949",
"s	c #3E3E3E",
"t	c #3F3F3F",
"u	c #383838",
"v	c #3B3B3B",
"w	c #373737",
"x	c #484848",
"y	c #3C3C3C",
"z	c #3D3D3D",
"A	c #0C0C0C",
"B	c #3A3A3A",
"C	c #353535",
"D	c #0B0B0B",
"E	c #070707",
"F	c #090909",
"G	c #0A0A0A",
" . ++@+##@@##$$@%$@.+# $@&++ #@*@$=$ *@++$#.+%%%$%$#%+ -#$&#$.+@",
"@$;> -+,'&@+')!>!;~{!. @;~]'!'^>'{)^=%+/(%##]_!>!'>;:+.+;>{,>{{%",
"<['}|<12}3 ![;!31{}{|[-;;[4|!;!!|56'1+_1''=36'1{;'1!';+['7'!'7!8",
"#[[;8=86;[@71[;7|';'''#9}0a7'|!|1'!|}+||!|.[!|8{}5;935 [9;8611||",
" b89c de}f+g9[}}[}[e7c+h78[|7||[}||8d b|[b-i[77|7||8}f f7||5|77<",
"+ cb<g-ji= %icbgccff<@.dbbbgcdcigggd-+#kg<=-kgiki<b--=-=ck<c<-b%",
":3,2:lbg-0,;/1!!m^';~1>!{)/<%<2;'~~){nn)6~!>>{,2>>!{~^/'>b -'^'_",
"1^l!n]^-!3)!'3)'!>^;'m1!!;3^-2'/111!>{''^>!;3n)'!!!~)'/'1_=2n'>'",
"!lo^{3lb/('^633{{!'1'03!!'6'<6;''1/!33!!!!13p{'{!;'';;!'lo.3{!!;",
"1{0(6;'=op;''00{l1'1!1''ll11=(0l!''!n((1''6p{(0''3!!;;;{';=^l!!;",
"1n{;{8'.0'6l'6!'ql3;l;{6lp61=(4o;{'n(o{63(3{6np61;!;6'!0(;+n{';;",
"'3'!'';+3';6163'(3q{(60{1l(l.03{3n3l;'(3l;!!!1361{p!n{!03n nqnlp",
"6'{3'n'b66!;!!l6';03'{l(6';3.n'!!n033'11'''!'333{{o!'3!noq=;6'0q",
";;3r!4{c1'!11!'l'!{'{!!{{1;7 !'1!!!{3n'''1;'!!!!1';!6(!1'}<5{;;3",
"{}!!3}3-|'7e3|3l'|n'}!3;{';[.83n;!!''|;|!'};'7|1'}|{51!!|0$[!7'!",
"{7n}'!9 [es3t0s0l7'}919'7'||b9|'e[{98|!!|[6}'7[[7'|1!77;5u$||1[[",
"}tv}9|g#i9}|e5w97}|857[[}||g<d87e[997|||8}|}7|}}||7}5t989d$c}897",
"fjhb-c-+=ffikcf<d<bkcck-ddc$%%c=--dkdgk-bhddikg=<.cgddc-<+#-i<bd",
"++26x02!3'>;+$%(o)'~'.+ '/'!!>)n{,.=<'!^'>!$%.'_{;,{;2!,$=+;]_n#",
"#{'6r;;064o40%ql'''(ql$;1l0!!1({;;'#12!!11!;#6n361'{04!!6.)1;06!",
"c911'1{6[3y(8.9'7;7{(y+9el'{66}'['| !6y{{3'|+5'[l'6}!8![[%'9{[;9",
".5569z'}t{(7e$}[;|11|7+}6|'e8!}7n}|=|;z['';|<955|0}77;'7[#[['|99",
"$<587e5}tt7|k-<||||75g%d|75||}|5esk-gzt7etekbh9eas[|787}<=d77}[=",
"##fjgkjhbkgd# #cdgffi+$ fkiifbcd<k%%#bgdccb%+bijggdcbckd...gkb=%",
"]{311>dbc1^'6(,''p,2!!!m{{(/+++)')^;^:+% >!{2!:'3'_';0^{{(2% <)2",
"{!p(/'md~q31;~1;'!62!~13{3){^-m;';6:'l_@];>!;''132!';n;!!,',+!r{",
"{;{;;3;-!3l0'!{l'!nr''13{;{o3+!;6;1;('!+;;{;'n6n{l';8n;{'!!!<'3!",
"'60'{0;-'''(;'l0';l7;!!'o!{'; l3q!!10(;#!n(;!';'4(r'4;3n!!!!<!30",
"063'3l!#'(0;!{';6'1l{!1'''3'!<(1{;!o;!{@!'0;'!'6;6{'l;(l3;!!<!;{",
"'{''{n;-[o[l'p6{p{;{4;''1l{(|-3;;{'q{!{$'0(!!'4({!''(33'l!!;.';;",
"q0;;v0}+73v0}1!943;!3'z{83'5}+7{|;8}''9+9{}|!79{9!'!1|!|(6}[#93'",
"n|}6698=9[47;}83{!7'9[0tyn|8z.|{1373}le.[[[;|718}!};z9'|[lv[$80}",
"785[|5ddk|9t9|}|||85s[tye9|[<@bt|5}995Abc8[[|8|}5}|[y}e9||[g#dt5",
"cjfkhg+#+gkkig<dfcbigbcdidkd-.=giggcdf<b.gdidbckicb<bdkddfbb.+ci",
"%b=>!m_:0{)1<=%',!>>!) -=!>'c..:3!m6~;!;^_(!+-+/;2;'>.+-1'~!>('1",
"!=B!!1'!2l;ne='1';!'l)!<>;;'' 1;1;3'lxp6!;;11-4l!!1'1'+0n11/1'(|",
"[-}!|;||;7'{[<s;|'[;{}3 'el7!<8p6||'eq9[!}|'7={([!8!|3 t;[ne'}|{",
"7+}71'!|6l3}9c7|';7{95C#['}1|.|l5;3}!{};;}'|| e;}1z|!e@9'{6yn917",
"d-he5595v|||f-d}8}9[9|=+c|||k=i|[95}|||77|||k<g7}}e|9<#i9z7}8}[7",
"==bccccdiikkb+ ggiidkd.==gcg#=-b-<<ciic<<k<d+b=ddbbi<# .bbifhdgb",
"~2'64'db p)(<db;)o')';1{2'_{:(;d .n33;~21p.$+;_4:)!,)!{)x7:!<+-l",
"3{'lr03.'!!;m=:3lp661l('{{;(63o6=/n6!!;o6>~$>;;;6;!';{{'l!'!^+>~",
"1|'8'1!.||!};c5'ls'67z3l90'78ep5=;}1;'6l5n'#'}{6e!||!q5!1n{1! !}",
"[;|;{||.[['|;de7!(}|;935el7'86[[+55196t5{}7=}|;[!;|[;}|t([e;e#[!",
"[79[}|d f[e[k=i7||}999}|7}|}5}7fike|||z7[}c-g[|5}}7957|5[7e7i<d[",
"kcdgd-.<.ggc=<<kckc<dd<b<dbiff<#-+kibdckkb%<bbbfdkkgc<bkicdDhb-f",
"bb>'!n{'q{{);mm+b+{^,<  '~1!/';^2n;~~>'=<-2nm;^,;> ##>/1!,l!>/)<",
"k>'^];6{]n!!>^{m<>';>)@23!121l2{6{2!633)b~;6on60m'/.>!!;,n3!{'l,",
".01{'(r{{;o|';!!bl(;!'+3'!13{611l';13ql;b!!{{';'{{1c;!!^l!!'n!11",
"=003'(6;!''lnn{{ 6'!;' !;!!l}q!10o46{;;{.6';1!!;3;'c{!'l({{';!!1",
" l61!;0('40q03oo#;''30.;4;;lo{36{rl'q;'{=op{'{;rx(!=;!1n{;';!11l",
".;!((16l3[rln6o(+663{o {4';{;n1'1o6!n!3l%3{{{l{'0pp.p!'n08o;!3{'",
" t;'5|'3t5583[;n+5n1|7b[p5lq3t|'33[7'778c|;9{p3n}0vde''5'![7!6'|",
"#s'|['8!}5};7o5|.77s45<7o18le{70v508;{{}<}8''o7[9'8=5[6y(7;}|!|7",
"bg}t}}|[[}e[}79k<ie[|d.k||9}}987[[}[|7[c=g|9e}}|5[d.d[5598es5}|f",
"i+-igAEggicddjc. -hAd-%#<-gkkcdbciigfcg=%=dgkdckdb#gbFfgbdkfhki<",
"_o2c=+2;!m^{!<.=l/:/;2;6'>>~'!o/ bg/,{l;n)l{!b# >{3>,'=-.)3,;22,",
"12{mbm()!!m^!^g/ln{n]p{'>61!!)(;)d/1n62^o!n{!>+_'{p^(()-]''{'6':",
"3(';<30{{6{!!;b{n;;nn;';!p3'!33o;b;'l{'1''1'!!b';;;!33'b'!;{;o{{",
"311'b7'n;;'';9d}l!30'!{'!;!3r316'-663{;;1'{o;6<1!;;!n6!<71;6n;04",
"33!'d'7z453;'8k{9[e{!!!8!!||;;|'|<7'e5[[{{7s66g7{7;;9!;<ylpszn(t",
"738|g5[3v65!8|-a4a(}9{ezzpt!!}17z.|||5'v076on8h}v|7}4le=}s|sp{u(",
"||}h-g[[[7}z9d=k79}8s99|8eB}7s9[Gbf||t}v9[ss9hch7vzza9h.d5Bzast9",
"cci.+.cbkgkikd--dkjkGDjDDi<gfhifd=gffhAickFAi..-Afibgfc< jhkfdbk"};
